<?xml version="1.0" standalone="no"?>
<!DOCTYPE svg PUBLIC "-//W3C//DTD SVG 1.1//EN" "http://www.w3.org/Graphics/SVG/1.1/DTD/svg11.dtd" >
<svg xmlns="http://www.w3.org/2000/svg" xmlns:xlink="http://www.w3.org/1999/xlink" version="1.1">
<metadata>
Created by FontForge 20170731 at Mon Feb 15 23:28:46 2016
 By Aleksey,,,
</metadata>
<defs>
<font id="GraphikCy-Regular" horiz-adv-x="1228" >
  <font-face 
    font-family="Graphik Cy Regular"
    font-weight="400"
    font-stretch="normal"
    units-per-em="2048"
    panose-1="0 0 0 0 0 0 0 0 0 0"
    ascent="1675"
    descent="-373"
    x-height="1071"
    cap-height="1464"
    bbox="-471 -451 2236 2279"
    underline-thickness="102"
    underline-position="-408"
    unicode-range="U+0020-FB02"
  />
<missing-glyph horiz-adv-x="1024" 
 />
    <glyph glyph-name="f_f" unicode="ff" horiz-adv-x="1298" 
d="M55 928v143h154v160q0 165 80.5 254.5t238.5 89.5q62 0 127 -21v-143q-59 23 -120 23q-80 0 -118 -49.5t-38 -135.5v-178h420v174q0 165 80.5 254.5t238.5 89.5q66 0 127 -20v-144q-59 23 -121 23q-155 0 -155 -184v-193h262v-143h-262v-928h-170v928h-420v-928h-170v928
h-154z" />
    <glyph glyph-name=".notdef" horiz-adv-x="1024" 
 />
    <glyph glyph-name=".null" horiz-adv-x="0" 
 />
    <glyph glyph-name="nonmarkingreturn" horiz-adv-x="682" 
 />
    <glyph glyph-name="space" unicode=" " horiz-adv-x="542" 
 />
    <glyph glyph-name="exclam" unicode="!" horiz-adv-x="585" 
d="M162 121q0 55 38.5 93t92.5 38t92.5 -38t38.5 -93t-38.5 -93t-92.5 -38t-92.5 38t-38.5 93zM201 1464h188l-29 -1050h-131z" />
    <glyph glyph-name="quotedbl" unicode="&#x22;" horiz-adv-x="768" 
d="M125 1464h184l-30 -501h-123zM459 1464h184l-31 -501h-123z" />
    <glyph glyph-name="numbersign" unicode="#" horiz-adv-x="1030" 
d="M61 578v143h193l39 270h-174v144h194l49 329h140l-49 -329h198l49 329h140l-49 -329h178v-144h-199l-39 -270h180v-143h-202l-54 -375h-139l53 375h-198l-54 -375h-139l53 375h-170zM393 721h199l39 270h-199z" />
    <glyph glyph-name="dollar" unicode="$" horiz-adv-x="1284" 
d="M92 446h172q7 -54 17 -93.5t32.5 -82t55.5 -70.5t87.5 -49t127.5 -28v569q-106 20 -182 48.5t-134.5 74t-87 113t-28.5 157.5q0 161 120.5 272.5t311.5 123.5v184h121v-186q185 -17 295 -119.5t130 -280.5h-159q-23 119 -87.5 182t-178.5 78v-512q118 -21 199 -50
t141 -77t88 -118t28 -168q0 -175 -128.5 -296.5t-327.5 -133.5v-260h-121v260q-102 7 -183 35t-134.5 70t-91 100t-56.5 120.5t-27 136.5zM313 1102q0 -52 10.5 -88t39.5 -69t83 -56.5t138 -40.5v493q-127 -10 -199 -76t-72 -163zM705 123q125 12 205.5 89t80.5 189
q0 117 -61 176.5t-225 94.5v-549z" />
    <glyph glyph-name="percent" unicode="%" horiz-adv-x="1605" 
d="M70 1126q0 149 100 250t236 101q138 0 236.5 -100t98.5 -247q0 -149 -99.5 -247.5t-235.5 -98.5q-134 0 -235 98t-101 244zM225 1128q0 -102 48.5 -156t132.5 -54t132 55t48 157q0 98 -48.5 155.5t-131.5 57.5t-132 -56t-49 -159zM276 0l895 1464h156l-895 -1464h-156z
M864 326q0 149 100 249.5t236 100.5q138 0 237 -99.5t99 -246.5q0 -149 -100 -247.5t-236 -98.5q-134 0 -235 98t-101 244zM1020 328q0 -102 48 -156.5t132 -54.5t132 55.5t48 157.5q0 98 -48.5 155.5t-131.5 57.5t-131.5 -56t-48.5 -159z" />
    <glyph glyph-name="ampersand" unicode="&#x26;" horiz-adv-x="1404" 
d="M104 387q0 84 25 152.5t73.5 121t104.5 90.5t133 76q-129 167 -129 310q0 106 52 184t132 115t175 37q136 0 227.5 -85.5t91.5 -216.5q0 -243 -313 -378l307 -375l178 338h158l-240 -457l246 -299h-207l-145 176q-165 -190 -406 -190q-203 0 -333 110.5t-130 290.5z
M276 403q0 -131 79 -204.5t218 -73.5q179 0 312 160l-365 444q-58 -28 -99 -56.5t-75.5 -67.5t-52 -89t-17.5 -113zM475 1135q0 -52 31 -109t96 -139q125 56 176 120t51 169q0 71 -46 117t-119 46q-82 0 -135.5 -51t-53.5 -153z" />
    <glyph glyph-name="quotesingle" unicode="'" horiz-adv-x="434" 
d="M125 1464h184l-30 -501h-123z" />
    <glyph glyph-name="parenleft" unicode="(" horiz-adv-x="659" 
d="M109 639q0 288 93 525.5t247 418.5h169q-154 -192 -242.5 -420.5t-88.5 -523.5q0 -294 88 -522t243 -420h-169q-340 400 -340 942z" />
    <glyph glyph-name="parenright" unicode=")" horiz-adv-x="659" 
d="M41 -297q155 192 243.5 421t88.5 523t-88.5 521.5t-243.5 420.5h170q340 -400 340 -942q0 -288 -93 -525.5t-247 -418.5h-170z" />
    <glyph glyph-name="asterisk" unicode="*" horiz-adv-x="864" 
d="M86 1208l45 138l242 -99l-15 275h150l-14 -275l239 99l45 -138l-254 -59l170 -227l-114 -84l-152 245l-143 -245l-117 84l170 227z" />
    <glyph glyph-name="plus" unicode="+" horiz-adv-x="1062" 
d="M74 629v143h383v414h149v-414h383v-143h-383v-414h-149v414h-383z" />
    <glyph glyph-name="comma" unicode="," horiz-adv-x="577" 
d="M74 -195l196 449l166 -78l-252 -428z" />
    <glyph glyph-name="hyphen" unicode="-" horiz-adv-x="684" 
d="M123 483v160h438v-160h-438z" />
    <glyph glyph-name="period" unicode="." horiz-adv-x="577" 
d="M158 121q0 55 38.5 93t92.5 38t92.5 -38t38.5 -93t-38.5 -93t-92.5 -38t-92.5 38t-38.5 93z" />
    <glyph glyph-name="slash" unicode="/" horiz-adv-x="825" 
d="M12 -303l596 1892h156l-596 -1892h-156z" />
    <glyph glyph-name="zero" unicode="0" horiz-adv-x="1394" 
d="M123 690v82q0 326 155 518.5t422 192.5q266 0 419 -194.5t153 -512.5v-82q0 -324 -150.5 -518t-416.5 -194q-263 0 -422.5 194.5t-159.5 513.5zM305 692q0 -273 106.5 -418t293.5 -145q191 0 289 144t98 423v82q0 258 -104 409.5t-288 151.5q-187 0 -291 -148t-104 -417
v-82z" />
    <glyph glyph-name="one" unicode="1" horiz-adv-x="817" 
d="M68 1053v166l340 245h165v-1464h-178v1288z" />
    <glyph glyph-name="two" unicode="2" horiz-adv-x="1134" 
d="M39 0v41l582 612q104 111 157 213.5t53 210.5q0 123 -69 192.5t-193 69.5q-268 0 -309 -325h-166q17 217 142.5 343t332.5 126q203 0 323 -111.5t120 -300.5q0 -244 -295 -532l-404 -394h707v-145h-981z" />
    <glyph glyph-name="three" unicode="3" horiz-adv-x="1236" 
d="M82 432h164q13 -139 100 -223t252 -84q167 0 250.5 75t83.5 208q0 284 -309 284h-111v150h102q275 0 275 250q0 109 -68.5 177t-197.5 68q-136 0 -223 -75.5t-101 -200.5h-156q8 178 141.5 300t338.5 122q102 0 186 -32t139 -85.5t85 -123t30 -146.5q0 -224 -232 -320
q133 -35 208 -127.5t75 -240.5q0 -196 -144.5 -311t-375.5 -115q-228 0 -366 126.5t-146 323.5z" />
    <glyph glyph-name="four" unicode="4" horiz-adv-x="1263" 
d="M80 307v58l670 1099h237v-1011h203v-146h-203v-307h-174v307h-733zM305 453h508v876z" />
    <glyph glyph-name="five" unicode="5" horiz-adv-x="1202" 
d="M88 395h170q12 -65 30.5 -110.5t53.5 -83.5t92.5 -57t138.5 -19q150 0 236 94.5t86 259.5q0 155 -84 248.5t-223 93.5q-122 0 -203 -35.5t-143 -105.5h-66v784h823v-153h-675v-447q108 101 299 101q200 0 327 -132.5t127 -353.5q0 -150 -67.5 -264.5t-181 -173.5
t-253.5 -59q-227 0 -349 112t-138 301z" />
    <glyph glyph-name="six" unicode="6" horiz-adv-x="1267" 
d="M123 647v35q0 385 157 593t416 208q174 0 286.5 -90.5t141.5 -264.5h-170q-26 106 -88.5 157.5t-181.5 51.5q-171 0 -275 -151t-110 -434q54 91 153 144.5t224 53.5q214 0 346.5 -137t132.5 -342q0 -221 -137.5 -355t-368.5 -134q-117 0 -208 34.5t-150 93.5t-97.5 144.5
t-54.5 182t-16 210.5zM311 487q0 -175 93 -270.5t245 -95.5q145 0 234.5 93.5t89.5 248.5q0 159 -88.5 253.5t-237.5 94.5q-148 0 -242 -91t-94 -233z" />
    <glyph glyph-name="seven" unicode="7" horiz-adv-x="1075" 
d="M66 1321v143h964v-24l-549 -1440h-182l510 1321h-743z" />
    <glyph glyph-name="eight" unicode="8" horiz-adv-x="1243" 
d="M117 416q0 141 76 238t200 141q-105 40 -163 120t-58 187q0 114 66.5 203t168 133.5t216.5 44.5t216.5 -45.5t166.5 -133.5t65 -198q0 -107 -60 -185t-165 -124q131 -47 205.5 -143.5t74.5 -233.5q0 -106 -43.5 -191.5t-115.5 -138t-160.5 -80.5t-183.5 -28
q-92 0 -180.5 27.5t-162 79.5t-118.5 137t-45 190zM299 422q0 -138 94.5 -216.5t229.5 -78.5q140 0 230.5 78.5t90.5 220.5q0 139 -90 215t-227 76q-138 0 -233 -77.5t-95 -217.5zM352 1100q0 -112 80 -177t197 -65q119 0 190.5 65.5t71.5 180.5q0 105 -76.5 172t-191.5 67
q-117 0 -194 -66t-77 -177z" />
    <glyph glyph-name="nine" unicode="9" horiz-adv-x="1269" 
d="M113 995q0 221 137.5 355.5t367.5 134.5q258 0 392.5 -169t134.5 -487v-92q0 -363 -144 -558t-407 -195q-200 0 -320.5 98.5t-150.5 277.5h172q26 -113 97 -172t206 -59q177 0 274.5 147t100.5 435q-53 -90 -153.5 -142.5t-225.5 -52.5q-212 0 -346.5 135.5t-134.5 343.5
zM295 1004q0 -159 88.5 -254t237.5 -95q148 0 241.5 88t93.5 230q0 176 -93 274.5t-245 98.5q-145 0 -234 -93.5t-89 -248.5z" />
    <glyph glyph-name="colon" unicode=":" horiz-adv-x="598" 
d="M168 121q0 55 38.5 93t92.5 38t92.5 -38t38.5 -93t-38.5 -93t-92.5 -38t-92.5 38t-38.5 93zM168 729q0 55 38.5 93t92.5 38t92.5 -38t38.5 -93t-38.5 -93t-92.5 -38t-92.5 38t-38.5 93z" />
    <glyph glyph-name="semicolon" unicode=";" horiz-adv-x="598" 
d="M43 -195l197 449l166 -78l-252 -428zM186 729q0 55 38.5 93t92.5 38t93 -38t39 -93t-39 -93t-93 -38t-92.5 38t-38.5 93z" />
    <glyph glyph-name="less" unicode="&#x3c;" horiz-adv-x="1032" 
d="M109 639v41l786 444v-163l-539 -302l539 -301v-163z" />
    <glyph glyph-name="equal" unicode="=" horiz-adv-x="991" 
d="M82 401v148h827v-148h-827zM82 770v148h827v-148h-827z" />
    <glyph glyph-name="greater" unicode="&#x3e;" horiz-adv-x="1032" 
d="M137 195v163l539 301l-539 302v163l787 -444v-41z" />
    <glyph glyph-name="question" unicode="?" horiz-adv-x="1001" 
d="M76 1075q11 182 129.5 295t304.5 113q101 0 178 -28.5t122 -77.5t67 -108t22 -126q0 -44 -13 -86t-28 -71.5t-48 -68.5t-52 -57.5t-60 -58.5q-45 -43 -69 -68.5t-54 -65.5t-43.5 -80t-13.5 -85v-88h-151v102q0 40 7.5 76.5t26 72t32.5 59.5t46 59t47 50l52 52
q49 49 76 80.5t50 78.5t23 93q0 95 -54.5 149.5t-164.5 54.5q-115 0 -188 -72t-84 -194h-160zM307 121q0 55 38.5 93t92.5 38t92.5 -38t38.5 -93t-38.5 -93t-92.5 -38t-92.5 38t-38.5 93z" />
    <glyph glyph-name="at" unicode="@" horiz-adv-x="1873" 
d="M92 532q0 184 70.5 348t189 279.5t279.5 182.5t336 67q180 0 333 -58t258.5 -158.5t164.5 -238.5t59 -295q0 -111 -24.5 -201.5t-63.5 -149t-90.5 -98t-103 -56.5t-103.5 -17q-117 0 -170 45t-66 131q-46 -82 -129 -136t-176 -54q-150 0 -240 95.5t-90 260.5
q0 203 117.5 339t286.5 136q101 0 162 -39.5t86 -99.5l14 123h170l-62 -516q-21 -162 99 -162q97 0 166 99.5t69 295.5q0 280 -177.5 449.5t-489.5 169.5q-153 0 -286 -54.5t-228 -151t-149 -234t-54 -297.5q0 -142 44.5 -267.5t128.5 -223.5t217.5 -155t299.5 -57
q161 0 272 40t211 126h158q-79 -136 -251 -218.5t-390 -82.5q-160 0 -297.5 44.5t-237.5 123t-171.5 184t-106.5 228t-35 253.5zM700 481q0 -105 54 -166t139 -61q103 0 182.5 90t79.5 244q0 115 -55.5 173t-157.5 58q-101 0 -171.5 -91.5t-70.5 -246.5z" />
    <glyph glyph-name="A" unicode="A" horiz-adv-x="1380" 
d="M74 0l504 1464h233l496 -1464h-177l-143 422h-604l-141 -422h-168zM432 563h508l-254 754z" />
    <glyph glyph-name="B" unicode="B" horiz-adv-x="1273" 
d="M184 0v1464h441q85 0 154 -11.5t129 -39t101 -70t64 -108t23 -150.5v-8q0 -234 -222 -309q157 -38 225 -121.5t68 -228.5v-8q0 -202 -127.5 -306t-353.5 -104h-502zM358 139h324q311 0 311 273v8q0 136 -80.5 201t-255.5 65h-299v-547zM358 825h267q160 0 228.5 61
t68.5 197v9q0 123 -72.5 178t-228.5 55h-263v-500z" />
    <glyph glyph-name="C" unicode="C" horiz-adv-x="1495" 
d="M113 723v16q0 214 88.5 385t246 267t353.5 96q156 0 282.5 -52.5t211.5 -162.5t100 -264h-176q-28 170 -129.5 254t-286.5 84q-228 0 -367 -164.5t-139 -440.5v-16q0 -280 134 -439t370 -159q183 0 299 91t143 267h166q-37 -248 -198.5 -375.5t-413.5 -127.5
q-317 0 -500.5 200.5t-183.5 540.5z" />
    <glyph glyph-name="D" unicode="D" horiz-adv-x="1425" 
d="M184 0v1464h387q184 0 327.5 -54.5t233 -152.5t135.5 -227.5t46 -284.5v-18q0 -123 -28 -231.5t-87.5 -200t-146.5 -157t-210.5 -102t-273.5 -36.5h-383zM362 145h201q277 0 421 155t144 429v16q0 130 -32.5 233t-99.5 181t-177 120t-258 42h-199v-1176z" />
    <glyph glyph-name="E" unicode="E" horiz-adv-x="1159" 
d="M184 0v1464h854v-145h-676v-498h545v-145h-545v-531h713v-145h-891z" />
    <glyph glyph-name="F" unicode="F" horiz-adv-x="1118" 
d="M184 0v1464h856v-145h-678v-518h529v-146h-529v-655h-178z" />
    <glyph glyph-name="G" unicode="G" horiz-adv-x="1570" 
d="M113 723v16q0 212 88.5 382.5t251 268t368.5 97.5q112 0 210 -27t179.5 -81.5t136 -145.5t70.5 -211h-178q-30 168 -138 246t-276 78q-248 0 -388 -166t-140 -439v-16q0 -277 135.5 -438.5t388.5 -161.5q116 0 204.5 36t143 100.5t83 147.5t30.5 183h-428v147h602v-108
q0 -208 -81 -355.5t-223 -220.5t-331 -73q-220 0 -382 96.5t-244 263t-82 381.5z" />
    <glyph glyph-name="H" unicode="H" horiz-adv-x="1495" 
d="M184 0v1464h178v-663h771v663h178v-1464h-178v651h-771v-651h-178z" />
    <glyph glyph-name="I" unicode="I" horiz-adv-x="567" 
d="M195 0v1464h178v-1464h-178z" />
    <glyph glyph-name="J" unicode="J" horiz-adv-x="860" 
d="M78 20v148q94 -41 194 -41q113 0 175.5 68t62.5 211v1058h178v-1067q0 -107 -31.5 -188t-87.5 -130t-128 -73t-158 -24q-131 0 -205 38z" />
    <glyph glyph-name="K" unicode="K" horiz-adv-x="1261" 
d="M184 0v1464h178v-704l637 706h199l-651 -712l684 -754h-215l-654 715v-715h-178z" />
    <glyph glyph-name="L" unicode="L" horiz-adv-x="1095" 
d="M184 0v1464h178v-1319h670v-145h-848z" />
    <glyph glyph-name="M" unicode="M" horiz-adv-x="1753" 
d="M184 0v1464h248l453 -1140l438 1140h246v-1464h-178v1233l-486 -1233h-55l-502 1233v-1233h-164z" />
    <glyph glyph-name="N" unicode="N" horiz-adv-x="1482" 
d="M184 0v1464h232l712 -1210v1210h170v-1464h-204l-740 1255v-1255h-170z" />
    <glyph glyph-name="O" unicode="O" horiz-adv-x="1660" 
d="M113 723v16q0 155 52.5 291.5t146 236.5t229 158t293.5 58t292.5 -58t226.5 -157.5t143.5 -235t51.5 -289.5v-16q0 -154 -51.5 -291t-143 -237t-225.5 -158.5t-290 -58.5q-159 0 -295 58.5t-230 158t-147 235.5t-53 289zM297 725q0 -262 154.5 -429t386.5 -167
q242 0 384 165.5t142 434.5v16q0 166 -61 299.5t-183 214t-286 80.5q-167 0 -289.5 -77t-185 -211.5t-62.5 -309.5v-16z" />
    <glyph glyph-name="P" unicode="P" horiz-adv-x="1189" 
d="M184 0v1464h416q109 0 199.5 -24.5t161.5 -74.5t111 -134t40 -195v-8q0 -113 -40 -198t-112 -135t-162 -74.5t-198 -24.5h-238v-596h-178zM362 737h250q157 0 239.5 75t82.5 216v8q0 150 -83 217.5t-239 67.5h-250v-584z" />
    <glyph glyph-name="Q" unicode="Q" horiz-adv-x="1660" 
d="M113 723v16q0 155 52.5 291.5t146 236.5t229 158t293.5 58t292.5 -58t226.5 -157.5t143.5 -235t51.5 -289.5v-16q0 -185 -72 -341.5t-202 -258.5l184 -205l-108 -104l-205 229q-136 -65 -307 -65q-159 0 -295 58.5t-230 158t-147 235.5t-53 289zM297 725
q0 -262 154.5 -429t386.5 -167q113 0 200 37l-164 184l109 105l186 -211q94 80 144.5 204.5t50.5 280.5v16q0 166 -61 299.5t-183 214t-286 80.5q-167 0 -289.5 -77t-185 -211.5t-62.5 -309.5v-16z" />
    <glyph glyph-name="R" unicode="R" horiz-adv-x="1286" 
d="M184 0v1464h441q109 0 199 -23t161.5 -70t111.5 -127t40 -187v-8q0 -171 -99.5 -269.5t-263.5 -130.5l449 -649h-199l-436 637h-226v-637h-178zM362 778h275q158 0 239.5 68.5t81.5 202.5v8q0 143 -81.5 203.5t-239.5 60.5h-275v-543z" />
    <glyph glyph-name="S" unicode="S" horiz-adv-x="1284" 
d="M98 446h172q10 -73 29.5 -125t61 -99.5t116 -72t180.5 -24.5q143 0 238.5 76.5t95.5 199.5q0 127 -74 187.5t-280 93.5q-121 19 -207 47t-152 74t-98.5 116t-32.5 166q0 170 133 284t338 114q220 0 351 -104.5t153 -299.5h-159q-26 137 -109 198.5t-236 61.5
q-146 0 -225.5 -65.5t-79.5 -171.5q0 -58 13.5 -96t51 -71t107.5 -55.5t181 -39.5q259 -40 378 -134t119 -292q0 -185 -144 -308.5t-362 -123.5q-114 0 -205.5 24.5t-153 66.5t-104.5 102t-65.5 126.5t-30.5 144.5z" />
    <glyph glyph-name="T" unicode="T" horiz-adv-x="1148" 
d="M59 1319v145h1031v-145h-426v-1319h-179v1319h-426z" />
    <glyph glyph-name="U" unicode="U" horiz-adv-x="1425" 
d="M172 535v929h178v-909q0 -228 83.5 -327t268.5 -99q92 0 157.5 21t115.5 71t75 139.5t25 221.5v882h178v-907q0 -274 -139 -424.5t-416 -150.5q-252 0 -389 143.5t-137 409.5z" />
    <glyph glyph-name="V" unicode="V" horiz-adv-x="1339" 
d="M61 1464h177l436 -1292l436 1292h168l-506 -1464h-213z" />
    <glyph glyph-name="W" unicode="W" horiz-adv-x="1900" 
d="M70 1464h182l297 -1181l344 1181h127l344 -1185l301 1185h166l-381 -1464h-164l-332 1157l-342 -1157h-161z" />
    <glyph glyph-name="X" unicode="X" horiz-adv-x="1345" 
d="M92 0l483 752l-450 712h197l364 -575l363 575h182l-455 -712l477 -752h-200l-391 616l-392 -616h-178z" />
    <glyph glyph-name="Y" unicode="Y" horiz-adv-x="1224" 
d="M47 1464h201l383 -680l368 680h179l-463 -827v-637h-178v639z" />
    <glyph glyph-name="Z" unicode="Z" horiz-adv-x="1218" 
d="M57 0v29l830 1290h-756v145h1002v-26l-807 -1286h794v-152h-1063z" />
    <glyph glyph-name="bracketleft" unicode="[" horiz-adv-x="729" 
d="M180 -303v1892h459v-135h-289v-1622h289v-135h-459z" />
    <glyph glyph-name="backslash" unicode="\" horiz-adv-x="825" 
d="M61 1589h156l596 -1892h-156z" />
    <glyph glyph-name="bracketright" unicode="]" horiz-adv-x="729" 
d="M90 -168h289v1622h-289v135h459v-1892h-459v135z" />
    <glyph glyph-name="asciicircum" unicode="^" horiz-adv-x="1038" 
d="M90 836l342 628h174l342 -628h-172l-260 483l-258 -483h-168z" />
    <glyph glyph-name="underscore" unicode="_" horiz-adv-x="806" 
d="M-2 -188h811v-136h-811v136z" />
    <glyph glyph-name="grave" unicode="`" horiz-adv-x="819" 
d="M150 1556h212l127 -301h-127z" />
    <glyph glyph-name="a" unicode="a" horiz-adv-x="1105" 
d="M84 297q0 89 44.5 155.5t122 104t170 55t200.5 17.5h153v78q0 128 -53 184.5t-176 56.5q-223 0 -246 -192h-170q8 88 46 154.5t97.5 104.5t129.5 56.5t151 18.5q65 0 120 -11t106 -38t86.5 -69.5t57 -110t21.5 -154.5v-707h-170v135q-62 -78 -140.5 -115.5t-193.5 -37.5
q-103 0 -181 32t-126.5 104.5t-48.5 178.5zM254 297q0 -88 47.5 -134t155.5 -46q139 0 228 68.5t89 189.5v133h-147q-373 0 -373 -211z" />
    <glyph glyph-name="b" unicode="b" horiz-adv-x="1284" 
d="M172 0v1583h170v-692q48 82 149.5 140.5t213.5 58.5q215 0 351 -146.5t136 -392.5v-16q0 -247 -133.5 -400t-353.5 -153q-124 0 -219 54.5t-144 139.5v-176h-170zM336 526q0 -199 95 -301t257 -102q159 0 243.5 104t84.5 299v17q0 194 -94 299.5t-236 105.5
q-156 0 -253 -103.5t-97 -301.5v-17z" />
    <glyph glyph-name="c" unicode="c" horiz-adv-x="1167" 
d="M92 524v17q0 120 41 223.5t111 174.5t165.5 111t202.5 40q87 0 163 -21t140.5 -64t107 -117t54.5 -173h-168q-19 121 -98.5 177t-198.5 56q-150 0 -247 -111t-97 -296v-17q0 -192 95.5 -296.5t254.5 -104.5q120 0 207.5 68.5t100.5 193.5h157q-17 -176 -146.5 -289.5
t-320.5 -113.5q-228 0 -376 148.5t-148 393.5z" />
    <glyph glyph-name="d" unicode="d" horiz-adv-x="1284" 
d="M92 514v16q0 246 139.5 403t360.5 157q125 0 212.5 -52.5t137.5 -138.5v684h170v-1583h-170v184q-48 -82 -151.5 -142t-215.5 -60q-215 0 -349 143t-134 389zM268 522q0 -194 91.5 -296.5t234.5 -102.5q157 0 255.5 104t98.5 301v17q0 201 -89.5 302t-250.5 101
q-160 0 -250 -107.5t-90 -301.5v-17z" />
    <glyph glyph-name="e" unicode="e" horiz-adv-x="1163" 
d="M92 524v17q0 243 140.5 396t361.5 153q76 0 145 -18.5t131 -59.5t107 -101.5t71.5 -151t26.5 -202.5v-55h-807q6 -184 93.5 -281.5t250.5 -97.5q251 0 285 186h170q-27 -158 -149.5 -242.5t-307.5 -84.5q-229 0 -373.5 148.5t-144.5 393.5zM274 639h627q-22 309 -307 309
q-129 0 -213.5 -82.5t-106.5 -226.5z" />
    <glyph glyph-name="f" unicode="f" horiz-adv-x="708" 
d="M55 928v143h154v174q0 165 80.5 254.5t238.5 89.5q66 0 127 -20v-144q-59 23 -120 23q-80 0 -118 -49t-38 -135v-193h262v-143h-262v-928h-170v928h-154z" />
    <glyph glyph-name="g" unicode="g" horiz-adv-x="1284" 
d="M92 543v14q0 145 62.5 266.5t178 194t259.5 72.5q125 0 212.5 -52.5t137.5 -138.5v172h170v-999q-1 -226 -140.5 -344.5t-371.5 -118.5q-224 0 -342.5 91.5t-142.5 238.5h174q38 -187 309 -187q164 0 254 81.5t90 248.5v156q-49 -83 -149.5 -143t-212.5 -60
q-211 0 -349.5 143.5t-138.5 364.5zM268 549q0 -170 95 -271.5t235 -101.5q153 0 251.5 101.5t98.5 277.5v14q0 179 -91 279t-249 100q-157 0 -248.5 -106t-91.5 -277v-16z" />
    <glyph glyph-name="h" unicode="h" horiz-adv-x="1224" 
d="M172 0v1583h170v-682q40 81 129.5 135t214.5 54q175 0 276 -105t101 -328v-657h-170v670q0 141 -61.5 206.5t-190.5 65.5q-126 0 -212.5 -77.5t-86.5 -215.5v-649h-170z" />
    <glyph glyph-name="i" unicode="i" horiz-adv-x="522" 
d="M145 1407q0 46 33.5 79.5t79.5 33.5t79.5 -33.5t33.5 -79.5t-33.5 -79.5t-79.5 -33.5t-79.5 33.5t-33.5 79.5zM176 0v1071h170v-1071h-170z" />
    <glyph glyph-name="j" unicode="j" horiz-adv-x="522" 
d="M18 -248q86 7 122 49t36 117v1153h170v-1139q0 -158 -77 -237.5t-251 -85.5v143zM145 1407q0 46 33.5 79.5t79.5 33.5t79.5 -33.5t33.5 -79.5t-33.5 -79.5t-79.5 -33.5t-79.5 33.5t-33.5 79.5z" />
    <glyph glyph-name="k" unicode="k" horiz-adv-x="1056" 
d="M172 0v1583h170v-1005l444 493h199l-459 -498l498 -573h-207l-475 555v-555h-170z" />
    <glyph glyph-name="l" unicode="l" horiz-adv-x="524" 
d="M176 0v1583h172v-1583h-172z" />
    <glyph glyph-name="m" unicode="m" horiz-adv-x="1863" 
d="M172 0v1071h170v-164q39 79 124 131t196 52q109 0 191.5 -49t121.5 -152q52 98 154.5 149.5t211.5 51.5q75 0 138 -23.5t114 -72.5t80 -133t29 -197v-664h-170v676q0 138 -57 202t-170 64q-114 0 -198.5 -75.5t-84.5 -211.5v-655h-170v676q0 138 -57 202t-170 64
q-114 0 -198.5 -75.5t-84.5 -211.5v-655h-170z" />
    <glyph glyph-name="n" unicode="n" horiz-adv-x="1224" 
d="M172 0v1071h170v-170q40 81 129.5 135t214.5 54q175 0 276 -105t101 -328v-657h-170v670q0 141 -61.5 206.5t-190.5 65.5q-126 0 -212.5 -77.5t-86.5 -215.5v-649h-170z" />
    <glyph glyph-name="o" unicode="o" horiz-adv-x="1236" 
d="M92 526v17q0 240 149 393.5t377 153.5q229 0 378 -152.5t149 -392.5v-17q0 -241 -149.5 -393.5t-379.5 -152.5q-228 0 -376 154.5t-148 389.5zM268 526q0 -184 94 -293.5t256 -109.5q160 0 255.5 110.5t95.5 292.5v15q0 186 -95.5 296.5t-255.5 110.5q-161 0 -255.5 -110
t-94.5 -295v-17z" />
    <glyph glyph-name="p" unicode="p" horiz-adv-x="1284" 
d="M172 -373v1444h170v-180q48 82 149.5 140.5t213.5 58.5q215 0 351 -146.5t136 -392.5v-16q0 -247 -133.5 -400t-353.5 -153q-125 0 -219.5 54.5t-143.5 139.5v-549h-170zM336 526q0 -199 95 -301t257 -102q159 0 243.5 104t84.5 299v17q0 194 -94 299.5t-236 105.5
q-156 0 -253 -103.5t-97 -301.5v-17z" />
    <glyph glyph-name="q" unicode="q" horiz-adv-x="1284" 
d="M92 514v16q0 246 139.5 403t360.5 157q125 0 212.5 -52.5t137.5 -138.5v172h170v-1444h-170v557q-48 -82 -151.5 -142t-215.5 -60q-215 0 -349 143t-134 389zM268 522q0 -194 91.5 -296.5t234.5 -102.5q157 0 255.5 104t98.5 301v17q0 201 -89.5 302t-250.5 101
q-160 0 -250 -107.5t-90 -301.5v-17z" />
    <glyph glyph-name="r" unicode="r" horiz-adv-x="770" 
d="M172 0v1071h170v-192q56 100 136 153.5t216 57.5v-160q-86 -4 -146.5 -21t-109 -54.5t-72.5 -103.5t-24 -163v-588h-170z" />
    <glyph glyph-name="s" unicode="s" horiz-adv-x="983" 
d="M84 330h166q9 -100 68.5 -153.5t183.5 -53.5q121 0 177 41.5t56 128.5q0 80 -58 117.5t-192 62.5q-209 38 -290.5 107t-81.5 208q0 58 21.5 107.5t57.5 85t83 60.5t98 37t102 12q75 0 138 -16.5t116.5 -51.5t87.5 -96.5t45 -145.5h-164q-19 88 -71.5 128t-153.5 40
q-92 0 -147.5 -42t-55.5 -111q0 -73 51.5 -108.5t198.5 -61.5q76 -14 125.5 -27t101.5 -37t82 -56t49 -82t19 -116q0 -150 -101 -237.5t-292 -87.5q-192 0 -302 91.5t-118 256.5z" />
    <glyph glyph-name="t" unicode="t" horiz-adv-x="727" 
d="M55 928v143h154v244h170v-244h250v-143h-250v-643q0 -156 133 -156q70 0 131 23v-144q-64 -22 -145 -22q-142 0 -215.5 76t-73.5 206v660h-154z" />
    <glyph glyph-name="u" unicode="u" horiz-adv-x="1216" 
d="M162 393v678h170v-670q0 -140 60.5 -206t187.5 -66q122 0 208 77.5t86 215.5v649h170v-1071h-170v170q-40 -81 -128.5 -134.5t-210.5 -53.5q-170 0 -271.5 100t-101.5 311z" />
    <glyph glyph-name="v" unicode="v" horiz-adv-x="1093" 
d="M51 1071h185l317 -899l313 899h176l-385 -1071h-217z" />
    <glyph glyph-name="w" unicode="w" horiz-adv-x="1626" 
d="M57 1071h185l250 -862l260 862h147l244 -862l252 862h174l-334 -1071h-188l-224 803l-250 -803h-186z" />
    <glyph glyph-name="x" unicode="x" horiz-adv-x="1081" 
d="M57 0l383 551l-358 520h199l262 -389l260 389h184l-354 -508l391 -563h-201l-288 432l-295 -432h-183z" />
    <glyph glyph-name="y" unicode="y" horiz-adv-x="1083" 
d="M51 1071h182l328 -768l297 768h174l-592 -1444h-172l203 484z" />
    <glyph glyph-name="z" unicode="z" horiz-adv-x="989" 
d="M43 0v25l633 903h-572v143h834v-31l-619 -890h611v-150h-887z" />
    <glyph glyph-name="braceleft" unicode="{" horiz-adv-x="780" 
d="M82 584v127q61 0 108 14t74.5 37.5t44.5 55t18.5 66.5t-3.5 72l-39 213q-40 224 64.5 325t340.5 101v-129q-62 -1 -106 -10t-77.5 -30t-48.5 -55t-20 -85.5t8 -120.5l39 -235q18 -111 -37 -183t-163 -100q108 -28 163 -99.5t37 -182.5l-39 -236q-13 -69 -8 -120.5
t20 -85.5t48.5 -55t77.5 -30t106 -10v-129q-236 0 -340.5 101t-64.5 325l39 213q5 37 3.5 72t-18.5 66.5t-44.5 55.5t-74.5 38t-108 14z" />
    <glyph glyph-name="bar" unicode="|" horiz-adv-x="518" 
d="M190 -303v1892h138v-1892h-138z" />
    <glyph glyph-name="braceright" unicode="}" horiz-adv-x="780" 
d="M90 -172q62 1 106 10t77.5 30t48.5 55t20 85.5t-8 120.5l-39 236q-18 111 37.5 182.5t163.5 99.5q-108 28 -163.5 100t-37.5 183l39 235q13 69 8 120.5t-20 85.5t-48.5 55t-77.5 30t-106 10v129q236 0 341 -101t65 -325l-39 -213q-5 -37 -3.5 -72t18.5 -66.5t44.5 -55
t74 -37.5t107.5 -14v-127q-61 0 -107.5 -14t-74 -38t-44.5 -55.5t-18.5 -66.5t3.5 -72l39 -213q40 -224 -65 -325t-341 -101v129z" />
    <glyph glyph-name="asciitilde" unicode="~" horiz-adv-x="911" 
d="M90 457q10 126 72.5 194t144.5 68q58 0 115 -26.5t101.5 -52.5t70.5 -26q35 0 61.5 28t30.5 81h135q-8 -128 -70 -195t-141 -67q-48 0 -95.5 16.5t-78.5 35.5t-63.5 35.5t-53.5 16.5q-35 0 -61 -28t-33 -80h-135z" />
    <glyph glyph-name="uni00A0" unicode="&#xa0;" horiz-adv-x="573" 
 />
    <glyph glyph-name="exclamdown" unicode="&#xa1;" horiz-adv-x="589" 
d="M164 1104q0 55 38.5 93t92.5 38t92.5 -38t38.5 -93t-38.5 -93t-92.5 -38t-92.5 38t-38.5 93zM199 -240l28 1051h131l29 -1051h-188z" />
    <glyph glyph-name="cent" unicode="&#xa2;" horiz-adv-x="1157" 
d="M92 524v17q0 223 128.5 371.5t326.5 172.5v203h121v-203q164 -13 275.5 -104t133.5 -266h-168q-16 104 -80 160t-161 69v-817q103 14 175 81t83 177h157q-15 -162 -129.5 -273t-285.5 -126v-262h-121v262q-203 21 -329 166t-126 372zM268 524q0 -171 74 -273t205 -124
v815q-126 -24 -202.5 -130.5t-76.5 -270.5v-17z" />
    <glyph glyph-name="sterling" unicode="&#xa3;" horiz-adv-x="1220" 
d="M78 0q3 37 17 74.5t38.5 74.5t65 64t90.5 37q24 60 24 127q0 95 -47 268h-168v127h133q-36 155 -36 289q0 185 128.5 303.5t321.5 118.5q194 0 309 -104.5t129 -282.5h-172q-23 123 -83 182t-183 59q-119 0 -194.5 -76.5t-75.5 -201.5q0 -120 35 -287h436v-127h-408
q31 -159 31 -270q0 -67 -27 -133q55 -13 179.5 -62t173.5 -49q86 0 133 40.5t53 135.5h149q-9 -146 -91.5 -235.5t-223.5 -89.5q-61 0 -130.5 20t-121 44.5t-108.5 44.5t-95 20q-62 0 -95 -32.5t-38 -78.5h-149z" />
    <glyph glyph-name="yen" unicode="&#xa5;" horiz-adv-x="1179" 
d="M57 1464h193l358 -663l342 663h172l-409 -770h321v-119h-344v-159h344v-119h-344v-297h-174v297h-344v119h344v159h-344v119h320z" />
    <glyph glyph-name="brokenbar" unicode="&#xa6;" horiz-adv-x="532" 
d="M190 -303v911h138v-911h-138zM190 752v837h138v-837h-138z" />
    <glyph glyph-name="section" unicode="&#xa7;" horiz-adv-x="1103" 
d="M86 612q0 100 61.5 173t169.5 104q-63 44 -93.5 105.5t-30.5 154.5q0 142 109.5 238t254.5 96q169 0 270 -84.5t105 -237.5h-172q-6 87 -51.5 132.5t-147.5 45.5t-153.5 -52t-51.5 -134q0 -83 55 -128.5t220 -86.5q75 -19 127.5 -37t105 -47t84 -64.5t51 -87t19.5 -116.5
q0 -90 -60 -166t-165 -109q120 -88 120 -260q0 -138 -107 -235t-261 -97q-173 0 -277.5 88.5t-107.5 245.5h174q8 -93 56 -141.5t151 -48.5t156 51.5t53 132.5q0 83 -58 129.5t-231 89.5q-90 23 -154.5 50t-116.5 67.5t-78 97.5t-26 131zM254 627q0 -78 61.5 -122.5
t198.5 -82.5l154 -43q182 45 182 192q0 84 -60.5 128t-195.5 79l-162 43q-81 -18 -129.5 -69t-48.5 -125z" />
    <glyph glyph-name="dieresis" unicode="&#xa8;" horiz-adv-x="819" 
d="M109 1407q0 44 32 76.5t76 32.5t76.5 -32.5t32.5 -76.5t-32.5 -76.5t-76.5 -32.5t-76 32.5t-32 76.5zM494 1407q0 44 32 76.5t76 32.5t76.5 -32.5t32.5 -76.5t-32.5 -76.5t-76.5 -32.5t-76 32.5t-32 76.5z" />
    <glyph glyph-name="copyright" unicode="&#xa9;" horiz-adv-x="1728" 
d="M113 731q0 154 59 293.5t159 240t240 159.5t295 59q157 0 296.5 -59t238.5 -159t157 -238t58 -292q0 -157 -59 -297t-159.5 -240t-240 -158t-295.5 -58q-205 0 -377 98t-272 270.5t-100 380.5zM211 731q0 -144 53.5 -269.5t143.5 -211t208 -134t246 -48.5
q130 0 249.5 49.5t209.5 135.5t143.5 212t53.5 270q0 190 -89 342.5t-238 236t-325 83.5q-178 0 -327.5 -84t-238.5 -237.5t-89 -344.5zM473 723v16q0 182 110.5 295t282.5 113q144 0 239 -72.5t107 -210.5h-155q-25 160 -191 160q-107 0 -169 -75.5t-62 -209.5v-14
q0 -135 60.5 -209t170.5 -74q86 0 140.5 43t66.5 127h148q-15 -144 -110.5 -219.5t-244.5 -75.5q-185 0 -289 109.5t-104 296.5z" />
    <glyph glyph-name="ordfeminine" unicode="&#xaa;" horiz-adv-x="858" 
d="M61 848q0 72 35 125.5t96.5 83.5t137 44.5t166.5 14.5h118v53q0 96 -40.5 140.5t-133.5 44.5q-162 0 -184 -140h-158q8 91 59 153.5t125 89t167 26.5q325 0 325 -312v-561h-160v107q-93 -123 -266 -123q-126 0 -206.5 64t-80.5 190zM223 852q0 -66 36 -99.5t118 -33.5
q105 0 171 50.5t66 141.5v95h-114q-277 0 -277 -154z" />
    <glyph glyph-name="guillemotleft" unicode="&#xab;" horiz-adv-x="1024" 
d="M121 535l266 364h168l-256 -364l256 -365h-168zM485 535l267 364h168l-256 -364l256 -365h-168z" />
    <glyph glyph-name="uni00AD" unicode="&#xad;" horiz-adv-x="684" 
d="M123 483v160h438v-160h-438z" />
    <glyph glyph-name="registered" unicode="&#xae;" horiz-adv-x="1052" 
d="M72 1028q0 189 132 322t322 133q193 0 324 -131.5t131 -321.5q0 -191 -132 -321.5t-323 -130.5q-190 0 -322 129.5t-132 320.5zM154 1028q0 -166 106.5 -271.5t265.5 -105.5q160 0 266.5 106.5t106.5 272.5q0 167 -105 273t-268 106t-267.5 -107t-104.5 -274zM371 811
v449h157q80 0 126 -34.5t46 -101.5v-2q0 -93 -92 -121l119 -190h-102l-109 174h-47v-174h-98zM469 1053h57q78 0 78 65v2q0 64 -78 64h-57v-131z" />
    <glyph glyph-name="macron" unicode="&#xaf;" horiz-adv-x="819" 
d="M141 1327v131h537v-131h-537z" />
    <glyph glyph-name="degree" unicode="&#xb0;" horiz-adv-x="874" 
d="M102 1155q0 135 98.5 231.5t237.5 96.5q138 0 236 -96.5t98 -231.5q0 -132 -98 -228t-236 -96q-139 0 -237.5 95.5t-98.5 228.5zM248 1155q0 -87 54 -146t136 -59q81 0 132 58.5t51 146.5q0 90 -51 149.5t-132 59.5q-83 0 -136.5 -59.5t-53.5 -149.5z" />
    <glyph glyph-name="plusminus" unicode="&#xb1;" horiz-adv-x="1062" 
d="M74 0v143h915v-143h-915zM74 670v143h383v373h149v-373h383v-143h-383v-373h-149v373h-383z" />
    <glyph glyph-name="twosuperior" unicode="&#xb2;" horiz-adv-x="585" 
d="M16 764v22l263 279q110 113 110 199q0 48 -26.5 75t-75.5 27q-106 0 -123 -135h-125q6 115 72.5 178.5t179.5 63.5q109 0 171 -56t62 -151q0 -118 -135 -250l-149 -148h290v-104h-514z" />
    <glyph glyph-name="threesuperior" unicode="&#xb3;" horiz-adv-x="636" 
d="M43 981h125q14 -125 139 -125q64 0 96.5 29.5t32.5 81.5q0 110 -123 110h-53v97h51q115 0 115 100q0 43 -27.5 69.5t-79.5 26.5q-54 0 -87 -30t-39 -83h-125q6 96 74 156t180 60q109 0 172 -53.5t63 -135.5q0 -109 -117 -151q63 -14 100.5 -57.5t37.5 -110.5
q0 -98 -72 -154.5t-195 -56.5q-125 0 -195 61t-73 166z" />
    <glyph glyph-name="acute" unicode="&#xb4;" horiz-adv-x="819" 
d="M330 1255l127 301h213l-213 -301h-127z" />
    <glyph glyph-name="paragraph" unicode="&#xb6;" horiz-adv-x="1204" 
d="M92 1079q0 126 59.5 214.5t158 129.5t227.5 41h475v-1669h-142v1553h-165v-1553h-140v914h-28q-202 0 -323.5 95t-121.5 275z" />
    <glyph glyph-name="periodcentered" unicode="&#xb7;" horiz-adv-x="577" 
d="M158 670q0 55 38.5 93t92.5 38t92.5 -38t38.5 -93t-38.5 -93t-92.5 -38t-92.5 38t-38.5 93z" />
    <glyph glyph-name="cedilla" unicode="&#xb8;" horiz-adv-x="819" 
d="M221 -266h111q7 -32 29.5 -53t58.5 -21q38 0 60 20.5t22 53.5q0 32 -20.5 50.5t-53.5 18.5q-30 0 -57 -16l-66 57l86 156h109l-60 -109q77 10 135 -33.5t58 -131.5q0 -79 -59 -121.5t-148 -42.5q-88 0 -143.5 47.5t-61.5 124.5z" />
    <glyph glyph-name="onesuperior" unicode="&#xb9;" horiz-adv-x="473" 
d="M49 1219v120l182 125h123v-700h-139v565z" />
    <glyph glyph-name="ordmasculine" unicode="&#xba;" horiz-adv-x="1009" 
d="M76 1030v12q0 195 121.5 318t308.5 123q186 0 307 -121.5t121 -314.5v-13q0 -196 -121 -318t-309 -122q-186 0 -307 123t-121 313zM244 1032q0 -141 70 -224t192 -83q120 0 190 84t70 223v12q0 140 -70.5 224t-189.5 84q-121 0 -191.5 -84t-70.5 -224v-12z" />
    <glyph glyph-name="guillemotright" unicode="&#xbb;" horiz-adv-x="1024" 
d="M104 170l256 365l-256 364h168l267 -364l-267 -365h-168zM469 170l256 365l-256 364h168l266 -364l-266 -365h-168z" />
    <glyph glyph-name="onequarter" unicode="&#xbc;" horiz-adv-x="1388" 
d="M55 1219v120l183 125h122v-700h-139v565zM100 0l1039 1464h135l-1038 -1464h-136zM766 141v49l313 510h170v-458h92v-101h-92v-141h-131v141h-352zM913 242h207v354z" />
    <glyph glyph-name="onehalf" unicode="&#xbd;" horiz-adv-x="1386" 
d="M55 1219v120l183 125h122v-700h-139v565zM74 0l1038 1464h135l-1038 -1464h-135zM809 0v23l262 278q111 114 111 199q0 48 -27 75t-76 27q-106 0 -123 -135h-125q6 115 72.5 178.5t179.5 63.5q109 0 171.5 -56t62.5 -151q0 -118 -135 -250l-150 -148h291v-104h-514z" />
    <glyph glyph-name="threequarters" unicode="&#xbe;" horiz-adv-x="1394" 
d="M49 981h125q14 -125 139 -125q64 0 96.5 29.5t32.5 81.5q0 110 -123 110h-53v97h51q115 0 115 100q0 43 -27 69.5t-79 26.5q-54 0 -87.5 -30t-39.5 -83h-125q6 96 74 156t180 60q109 0 172 -53.5t63 -135.5q0 -109 -117 -151q63 -14 100.5 -57.5t37.5 -110.5
q0 -98 -72 -154.5t-195 -56.5q-125 0 -195 61t-73 166zM174 0l1038 1464h136l-1039 -1464h-135zM766 141v49l313 510h170v-458h92v-101h-92v-141h-131v141h-352zM913 242h207v354z" />
    <glyph glyph-name="questiondown" unicode="&#xbf;" horiz-adv-x="1001" 
d="M102 82q0 44 13 86t28 71.5t48 68.5t52 57.5t60 58.5q45 43 69 68.5t54 65.5t43.5 80t13.5 85v88h152v-102q0 -40 -7.5 -76.5t-26 -72t-32.5 -59.5t-46 -59t-47 -50l-52 -52q-37 -37 -58.5 -61t-45.5 -57t-35 -66t-11 -68q0 -95 55 -150t165 -55q115 0 188 72.5t84 194.5
h160q-11 -182 -129.5 -295t-304.5 -113q-101 0 -178 28.5t-122 77.5t-67.5 108t-22.5 126zM432 1104q0 55 38.5 93t92.5 38t92.5 -38t38.5 -93t-38.5 -93t-92.5 -38t-92.5 38t-38.5 93z" />
    <glyph glyph-name="Agrave" unicode="&#xc0;" horiz-adv-x="1380" 
d="M74 0l504 1464h233l496 -1464h-177l-143 422h-604l-141 -422h-168zM432 563h508l-254 754zM438 1839h213l115 -260h-127z" />
    <glyph glyph-name="Aacute" unicode="&#xc1;" horiz-adv-x="1380" 
d="M74 0l504 1464h233l496 -1464h-177l-143 422h-604l-141 -422h-168zM432 563h508l-254 754zM614 1579l115 260h213l-201 -260h-127z" />
    <glyph glyph-name="Acircumflex" unicode="&#xc2;" horiz-adv-x="1380" 
d="M74 0l504 1464h233l496 -1464h-177l-143 422h-604l-141 -422h-168zM393 1579l221 260h154l219 -260h-125l-174 119l-174 -119h-121zM432 563h508l-254 754z" />
    <glyph glyph-name="Atilde" unicode="&#xc3;" horiz-adv-x="1380" 
d="M74 0l504 1464h233l496 -1464h-177l-143 422h-604l-141 -422h-168zM375 1581q12 108 69.5 173t137.5 65q37 0 79 -22t79 -44t61 -22q29 0 51.5 26t30.5 66h123q-12 -108 -69 -173t-136 -65q-37 0 -80 22t-80 44t-61 22q-29 0 -51.5 -26t-30.5 -66h-123zM432 563h508
l-254 754z" />
    <glyph glyph-name="Adieresis" unicode="&#xc4;" horiz-adv-x="1380" 
d="M74 0l504 1464h233l496 -1464h-177l-143 422h-604l-141 -422h-168zM373 1724q0 44 32 76.5t76 32.5t76.5 -32.5t32.5 -76.5t-32.5 -76t-76.5 -32t-76 32t-32 76zM432 563h508l-254 754zM788 1724q0 44 32.5 76.5t76.5 32.5t76.5 -32.5t32.5 -76.5t-32.5 -76t-76.5 -32
t-76.5 32t-32.5 76z" />
    <glyph glyph-name="Aring" unicode="&#xc5;" horiz-adv-x="1380" 
d="M74 0l504 1464h233l496 -1464h-177l-143 422h-604l-141 -422h-168zM432 563h508l-254 754zM471 1767q0 88 64 150.5t155 62.5t155 -62.5t64 -150.5t-64 -150.5t-155 -62.5t-155 62.5t-64 150.5zM582 1767q0 -51 30.5 -84.5t77.5 -33.5t78 33.5t31 84.5t-31 85t-78 34
t-77.5 -34t-30.5 -85z" />
    <glyph glyph-name="AE" unicode="&#xc6;" horiz-adv-x="1945" 
d="M59 0l758 1464h1008v-145h-676v-498h545v-145h-545v-531h713v-145h-891v424h-516l-215 -424h-181zM524 563h447v756h-64z" />
    <glyph glyph-name="Ccedilla" unicode="&#xc7;" horiz-adv-x="1495" 
d="M113 723v16q0 214 88.5 385t246 267t353.5 96q156 0 282.5 -52.5t211.5 -162.5t100 -264h-176q-28 170 -129.5 254t-286.5 84q-228 0 -367 -164.5t-139 -440.5v-16q0 -280 134 -439t370 -159q183 0 299 91t143 267h166q-36 -237 -184 -363.5t-381 -137.5l-49 -93
q77 10 134.5 -33.5t57.5 -131.5q0 -79 -59 -121.5t-148 -42.5q-88 0 -143.5 47.5t-61.5 124.5h111q7 -32 29.5 -53t58.5 -21q38 0 60 20.5t22 53.5q0 32 -20.5 50.5t-53.5 18.5q-30 0 -57 -16l-66 57l76 140q-290 20 -456 218t-166 521z" />
    <glyph glyph-name="Egrave" unicode="&#xc8;" horiz-adv-x="1159" 
d="M184 0v1464h854v-145h-676v-498h545v-145h-545v-531h713v-145h-891zM375 1839h213l114 -260h-127z" />
    <glyph glyph-name="Eacute" unicode="&#xc9;" horiz-adv-x="1159" 
d="M184 0v1464h854v-145h-676v-498h545v-145h-545v-531h713v-145h-891zM551 1579l115 260h213l-201 -260h-127z" />
    <glyph glyph-name="Ecircumflex" unicode="&#xca;" horiz-adv-x="1159" 
d="M184 0v1464h854v-145h-676v-498h545v-145h-545v-531h713v-145h-891zM330 1579l221 260h154l219 -260h-125l-174 119l-174 -119h-121z" />
    <glyph glyph-name="Edieresis" unicode="&#xcb;" horiz-adv-x="1159" 
d="M184 0v1464h854v-145h-676v-498h545v-145h-545v-531h713v-145h-891zM309 1724q0 44 32.5 76.5t76.5 32.5t76 -32.5t32 -76.5t-32 -76t-76 -32t-76.5 32t-32.5 76zM725 1724q0 44 32.5 76.5t76.5 32.5t76 -32.5t32 -76.5t-32 -76t-76 -32t-76.5 32t-32.5 76z" />
    <glyph glyph-name="Igrave" unicode="&#xcc;" horiz-adv-x="567" 
d="M31 1839h213l114 -260h-127zM195 0v1464h178v-1464h-178z" />
    <glyph glyph-name="Iacute" unicode="&#xcd;" horiz-adv-x="567" 
d="M195 0v1464h178v-1464h-178zM207 1579l115 260h213l-201 -260h-127z" />
    <glyph glyph-name="Icircumflex" unicode="&#xce;" horiz-adv-x="567" 
d="M-14 1579l221 260h153l220 -260h-125l-174 119l-175 -119h-120zM195 0v1464h178v-1464h-178z" />
    <glyph glyph-name="Idieresis" unicode="&#xcf;" horiz-adv-x="567" 
d="M-35 1724q0 44 32.5 76.5t76.5 32.5t76 -32.5t32 -76.5t-32 -76t-76 -32t-76.5 32t-32.5 76zM195 0v1464h178v-1464h-178zM381 1724q0 44 32 76.5t76 32.5t76.5 -32.5t32.5 -76.5t-32.5 -76t-76.5 -32t-76 32t-32 76z" />
    <glyph glyph-name="Eth" unicode="&#xd0;" horiz-adv-x="1466" 
d="M70 666v137h155v661h387q184 0 327.5 -54.5t233 -152.5t135.5 -227.5t46 -284.5v-18q0 -123 -28 -231.5t-87.5 -200t-146.5 -157t-210.5 -102t-273.5 -36.5h-383v666h-155zM403 145h201q277 0 421 155t144 429v16q0 130 -32.5 233t-99.5 181t-177 120t-258 42h-199v-518
h424v-137h-424v-521z" />
    <glyph glyph-name="Ntilde" unicode="&#xd1;" horiz-adv-x="1482" 
d="M184 0v1464h232l712 -1210v1210h170v-1464h-204l-740 1255v-1255h-170zM446 1581q12 108 69.5 173t137.5 65q37 0 79 -22t79 -44t61 -22q29 0 51.5 26t30.5 66h123q-12 -108 -69 -173t-136 -65q-37 0 -80 22t-80 44t-61 22q-29 0 -51.5 -26t-30.5 -66h-123z" />
    <glyph glyph-name="Ograve" unicode="&#xd2;" horiz-adv-x="1660" 
d="M113 723v16q0 155 52.5 291.5t146 236.5t229 158t293.5 58t292.5 -58t226.5 -157.5t143.5 -235t51.5 -289.5v-16q0 -154 -51.5 -291t-143 -237t-225.5 -158.5t-290 -58.5q-159 0 -295 58.5t-230 158t-147 235.5t-53 289zM297 725q0 -262 154.5 -429t386.5 -167
q242 0 384 165.5t142 434.5v16q0 166 -61 299.5t-183 214t-286 80.5q-167 0 -289.5 -77t-185 -211.5t-62.5 -309.5v-16zM578 1839h213l114 -260h-127z" />
    <glyph glyph-name="Oacute" unicode="&#xd3;" horiz-adv-x="1660" 
d="M113 723v16q0 155 52.5 291.5t146 236.5t229 158t293.5 58t292.5 -58t226.5 -157.5t143.5 -235t51.5 -289.5v-16q0 -154 -51.5 -291t-143 -237t-225.5 -158.5t-290 -58.5q-159 0 -295 58.5t-230 158t-147 235.5t-53 289zM297 725q0 -262 154.5 -429t386.5 -167
q242 0 384 165.5t142 434.5v16q0 166 -61 299.5t-183 214t-286 80.5q-167 0 -289.5 -77t-185 -211.5t-62.5 -309.5v-16zM754 1579l114 260h213l-200 -260h-127z" />
    <glyph glyph-name="Ocircumflex" unicode="&#xd4;" horiz-adv-x="1660" 
d="M113 723v16q0 155 52.5 291.5t146 236.5t229 158t293.5 58t292.5 -58t226.5 -157.5t143.5 -235t51.5 -289.5v-16q0 -154 -51.5 -291t-143 -237t-225.5 -158.5t-290 -58.5q-159 0 -295 58.5t-230 158t-147 235.5t-53 289zM297 725q0 -262 154.5 -429t386.5 -167
q242 0 384 165.5t142 434.5v16q0 166 -61 299.5t-183 214t-286 80.5q-167 0 -289.5 -77t-185 -211.5t-62.5 -309.5v-16zM532 1579l222 260h153l219 -260h-125l-174 119l-174 -119h-121z" />
    <glyph glyph-name="Otilde" unicode="&#xd5;" horiz-adv-x="1660" 
d="M113 723v16q0 155 52.5 291.5t146 236.5t229 158t293.5 58t292.5 -58t226.5 -157.5t143.5 -235t51.5 -289.5v-16q0 -154 -51.5 -291t-143 -237t-225.5 -158.5t-290 -58.5q-159 0 -295 58.5t-230 158t-147 235.5t-53 289zM297 725q0 -262 154.5 -429t386.5 -167
q242 0 384 165.5t142 434.5v16q0 166 -61 299.5t-183 214t-286 80.5q-167 0 -289.5 -77t-185 -211.5t-62.5 -309.5v-16zM514 1581q12 108 69.5 173t137.5 65q37 0 79 -22t79 -44t61 -22q29 0 51.5 26t30.5 66h123q-12 -108 -69 -173t-136 -65q-37 0 -80 22t-80 44t-61 22
q-29 0 -51.5 -26t-30.5 -66h-123z" />
    <glyph glyph-name="Odieresis" unicode="&#xd6;" horiz-adv-x="1660" 
d="M113 723v16q0 155 52.5 291.5t146 236.5t229 158t293.5 58t292.5 -58t226.5 -157.5t143.5 -235t51.5 -289.5v-16q0 -154 -51.5 -291t-143 -237t-225.5 -158.5t-290 -58.5q-159 0 -295 58.5t-230 158t-147 235.5t-53 289zM297 725q0 -262 154.5 -429t386.5 -167
q242 0 384 165.5t142 434.5v16q0 166 -61 299.5t-183 214t-286 80.5q-167 0 -289.5 -77t-185 -211.5t-62.5 -309.5v-16zM512 1724q0 44 32.5 76.5t76.5 32.5t76 -32.5t32 -76.5t-32 -76t-76 -32t-76.5 32t-32.5 76zM928 1724q0 44 32 76.5t76 32.5t76.5 -32.5t32.5 -76.5
t-32.5 -76t-76.5 -32t-76 32t-32 76z" />
    <glyph glyph-name="multiply" unicode="&#xd7;" horiz-adv-x="960" 
d="M68 367l315 315l-315 315l96 99l315 -318l316 318l98 -99l-315 -315l315 -315l-98 -99l-316 318l-315 -318z" />
    <glyph glyph-name="Oslash" unicode="&#xd8;" horiz-adv-x="1660" 
d="M72 25l200 219q-159 201 -159 479v16q0 155 52.5 291.5t146 236.5t229 158t293.5 58q251 0 438 -144l166 181l92 -93l-162 -178q87 -99 133.5 -229t46.5 -277v-16q0 -154 -51.5 -291t-143 -237t-225.5 -158.5t-290 -58.5q-277 0 -476 168l-198 -218zM297 725
q0 -206 90 -354l782 856q-134 112 -335 112q-167 0 -289.5 -77t-185 -211.5t-62.5 -309.5v-16zM471 268q142 -139 367 -139q242 0 384 165.5t142 434.5v16q0 229 -107 385z" />
    <glyph glyph-name="Ugrave" unicode="&#xd9;" horiz-adv-x="1425" 
d="M172 535v929h178v-909q0 -228 83.5 -327t268.5 -99q92 0 157.5 21t115.5 71t75 139.5t25 221.5v882h178v-907q0 -274 -139 -424.5t-416 -150.5q-252 0 -389 143.5t-137 409.5zM461 1839h213l114 -260h-126z" />
    <glyph glyph-name="Uacute" unicode="&#xda;" horiz-adv-x="1425" 
d="M172 535v929h178v-909q0 -228 83.5 -327t268.5 -99q92 0 157.5 21t115.5 71t75 139.5t25 221.5v882h178v-907q0 -274 -139 -424.5t-416 -150.5q-252 0 -389 143.5t-137 409.5zM637 1579l115 260h213l-201 -260h-127z" />
    <glyph glyph-name="Ucircumflex" unicode="&#xdb;" horiz-adv-x="1425" 
d="M172 535v929h178v-909q0 -228 83.5 -327t268.5 -99q92 0 157.5 21t115.5 71t75 139.5t25 221.5v882h178v-907q0 -274 -139 -424.5t-416 -150.5q-252 0 -389 143.5t-137 409.5zM416 1579l221 260h154l219 -260h-125l-174 119l-174 -119h-121z" />
    <glyph glyph-name="Udieresis" unicode="&#xdc;" horiz-adv-x="1425" 
d="M172 535v929h178v-909q0 -228 83.5 -327t268.5 -99q92 0 157.5 21t115.5 71t75 139.5t25 221.5v882h178v-907q0 -274 -139 -424.5t-416 -150.5q-252 0 -389 143.5t-137 409.5zM395 1724q0 44 32.5 76.5t76.5 32.5t76 -32.5t32 -76.5t-32 -76t-76 -32t-76.5 32t-32.5 76z
M811 1724q0 44 32.5 76.5t76.5 32.5t76 -32.5t32 -76.5t-32 -76t-76 -32t-76.5 32t-32.5 76z" />
    <glyph glyph-name="Yacute" unicode="&#xdd;" horiz-adv-x="1224" 
d="M47 1464h201l383 -680l368 680h179l-463 -827v-637h-178v639zM537 1579l114 260h213l-200 -260h-127z" />
    <glyph glyph-name="Thorn" unicode="&#xde;" horiz-adv-x="1189" 
d="M184 0v1464h178v-274h238q109 0 199 -23.5t161.5 -71.5t111.5 -131t40 -194v-8q0 -91 -26.5 -163.5t-73 -120.5t-112 -80t-140 -46t-160.5 -14h-238v-338h-178zM362 479h250q158 0 240 71.5t82 211.5v8q0 149 -82 213t-240 64h-250v-568z" />
    <glyph glyph-name="germandbls" unicode="&#xdf;" horiz-adv-x="1208" 
d="M172 0v1159q0 191 125.5 310.5t302.5 119.5q183 0 296.5 -101t113.5 -265v-9q0 -103 -65 -197t-179 -132q159 -40 256.5 -160t97.5 -279v-12q0 -101 -24 -180t-64.5 -129t-97.5 -83t-118 -46.5t-130 -13.5q-105 0 -188 32v146q80 -37 180 -37q266 0 266 307v14
q0 167 -109 265t-292 92v145q83 -2 144.5 21.5t95 64t49.5 86.5t16 96v9q0 109 -64.5 168t-185.5 59q-117 0 -186.5 -77t-69.5 -206v-1167h-170z" />
    <glyph glyph-name="agrave" unicode="&#xe0;" horiz-adv-x="1105" 
d="M84 297q0 89 44.5 155.5t122 104t170 55t200.5 17.5h153v78q0 128 -53 184.5t-176 56.5q-223 0 -246 -192h-170q8 88 46 154.5t97.5 104.5t129.5 56.5t151 18.5q65 0 120 -11t106 -38t86.5 -69.5t57 -110t21.5 -154.5v-707h-170v135q-62 -78 -140.5 -115.5t-193.5 -37.5
q-103 0 -181 32t-126.5 104.5t-48.5 178.5zM254 297q0 -88 47.5 -134t155.5 -46q139 0 228 68.5t89 189.5v133h-147q-373 0 -373 -211zM291 1556h213l127 -301h-127z" />
    <glyph glyph-name="aacute" unicode="&#xe1;" horiz-adv-x="1105" 
d="M84 297q0 89 44.5 155.5t122 104t170 55t200.5 17.5h153v78q0 128 -53 184.5t-176 56.5q-223 0 -246 -192h-170q8 88 46 154.5t97.5 104.5t129.5 56.5t151 18.5q65 0 120 -11t106 -38t86.5 -69.5t57 -110t21.5 -154.5v-707h-170v135q-62 -78 -140.5 -115.5t-193.5 -37.5
q-103 0 -181 32t-126.5 104.5t-48.5 178.5zM254 297q0 -88 47.5 -134t155.5 -46q139 0 228 68.5t89 189.5v133h-147q-373 0 -373 -211zM479 1255l127 301h213l-213 -301h-127z" />
    <glyph glyph-name="acircumflex" unicode="&#xe2;" horiz-adv-x="1105" 
d="M84 297q0 89 44.5 155.5t122 104t170 55t200.5 17.5h153v78q0 128 -53 184.5t-176 56.5q-223 0 -246 -192h-170q8 88 46 154.5t97.5 104.5t129.5 56.5t151 18.5q65 0 120 -11t106 -38t86.5 -69.5t57 -110t21.5 -154.5v-707h-170v135q-62 -78 -140.5 -115.5t-193.5 -37.5
q-103 0 -181 32t-126.5 104.5t-48.5 178.5zM236 1255l221 295h153l219 -295h-124l-175 154l-174 -154h-120zM254 297q0 -88 47.5 -134t155.5 -46q139 0 228 68.5t89 189.5v133h-147q-373 0 -373 -211z" />
    <glyph glyph-name="atilde" unicode="&#xe3;" horiz-adv-x="1105" 
d="M84 297q0 89 44.5 155.5t122 104t170 55t200.5 17.5h153v78q0 128 -53 184.5t-176 56.5q-223 0 -246 -192h-170q8 88 46 154.5t97.5 104.5t129.5 56.5t151 18.5q65 0 120 -11t106 -38t86.5 -69.5t57 -110t21.5 -154.5v-707h-170v135q-62 -78 -140.5 -115.5t-193.5 -37.5
q-103 0 -181 32t-126.5 104.5t-48.5 178.5zM240 1264q12 108 69 172.5t137 64.5q37 0 79.5 -22t79.5 -44t61 -22q29 0 51.5 26t30.5 66h122q-12 -108 -68.5 -172.5t-135.5 -64.5q-37 0 -80 22t-80.5 44t-61.5 22q-29 0 -51.5 -26t-30.5 -66h-122zM254 297q0 -88 47.5 -134
t155.5 -46q139 0 228 68.5t89 189.5v133h-147q-373 0 -373 -211z" />
    <glyph glyph-name="adieresis" unicode="&#xe4;" horiz-adv-x="1105" 
d="M84 297q0 89 44.5 155.5t122 104t170 55t200.5 17.5h153v78q0 128 -53 184.5t-176 56.5q-223 0 -246 -192h-170q8 88 46 154.5t97.5 104.5t129.5 56.5t151 18.5q65 0 120 -11t106 -38t86.5 -69.5t57 -110t21.5 -154.5v-707h-170v135q-62 -78 -140.5 -115.5t-193.5 -37.5
q-103 0 -181 32t-126.5 104.5t-48.5 178.5zM254 297q0 -88 47.5 -134t155.5 -46q139 0 228 68.5t89 189.5v133h-147q-373 0 -373 -211zM254 1407q0 44 32 76.5t76 32.5t76.5 -32.5t32.5 -76.5t-32.5 -76.5t-76.5 -32.5t-76 32.5t-32 76.5zM639 1407q0 44 32.5 76.5
t76.5 32.5t76 -32.5t32 -76.5t-32 -76.5t-76 -32.5t-76.5 32.5t-32.5 76.5z" />
    <glyph glyph-name="aring" unicode="&#xe5;" horiz-adv-x="1105" 
d="M84 297q0 89 44.5 155.5t122 104t170 55t200.5 17.5h153v78q0 128 -53 184.5t-176 56.5q-223 0 -246 -192h-170q8 88 46 154.5t97.5 104.5t129.5 56.5t151 18.5q65 0 120 -11t106 -38t86.5 -69.5t57 -110t21.5 -154.5v-707h-170v135q-62 -78 -140.5 -115.5t-193.5 -37.5
q-103 0 -181 32t-126.5 104.5t-48.5 178.5zM254 297q0 -88 47.5 -134t155.5 -46q139 0 228 68.5t89 189.5v133h-147q-373 0 -373 -211zM336 1438q0 88 64 150.5t155 62.5t155 -62.5t64 -150.5t-64 -150.5t-155 -62.5t-155 62.5t-64 150.5zM446 1438q0 -51 31 -85t78 -34
t78 34t31 85t-31 84.5t-78 33.5t-78 -33.5t-31 -84.5z" />
    <glyph glyph-name="ae" unicode="&#xe6;" horiz-adv-x="1802" 
d="M84 297q0 90 43.5 157.5t119.5 106t167.5 56.5t199.5 18h160v70q0 127 -55 185t-174 58q-223 0 -246 -192h-170q8 88 46 154.5t97.5 104.5t129.5 56.5t151 18.5q255 0 336 -183q130 183 360 183q74 0 140 -18t126 -58.5t104 -101t69.5 -151.5t25.5 -204v-51h-776
q6 -186 88 -284.5t238 -98.5q238 0 272 186h170q-27 -158 -146.5 -242.5t-297.5 -84.5q-134 0 -238 58t-166 163q-74 -116 -172.5 -168.5t-245.5 -52.5q-103 0 -181 32t-126.5 104.5t-48.5 178.5zM254 297q0 -88 47.5 -134t155.5 -46q139 0 228 68.5t89 189.5v131h-153
q-367 0 -367 -209zM944 635h596q-12 164 -85.5 238.5t-205.5 74.5q-124 0 -204.5 -83.5t-100.5 -229.5z" />
    <glyph glyph-name="ccedilla" unicode="&#xe7;" horiz-adv-x="1167" 
d="M92 524v17q0 120 41 223.5t111 174.5t165.5 111t202.5 40q87 0 163 -21t140.5 -64t107 -117t54.5 -173h-168q-19 121 -98.5 177t-198.5 56q-150 0 -247 -111t-97 -296v-17q0 -192 95.5 -296.5t254.5 -104.5q120 0 207.5 68.5t100.5 193.5h157q-17 -168 -136 -279.5
t-298 -121.5l-49 -93q77 10 135 -33.5t58 -131.5q0 -79 -59 -121.5t-148 -42.5q-88 0 -143.5 47.5t-61.5 124.5h111q7 -32 29.5 -53t58.5 -21q38 0 60 20.5t22 53.5q0 32 -20.5 50.5t-53.5 18.5q-31 0 -58 -16l-65 57l78 142q-200 24 -325.5 168.5t-125.5 369.5z" />
    <glyph glyph-name="egrave" unicode="&#xe8;" horiz-adv-x="1163" 
d="M92 524v17q0 243 140.5 396t361.5 153q76 0 145 -18.5t131 -59.5t107 -101.5t71.5 -151t26.5 -202.5v-55h-807q6 -184 93.5 -281.5t250.5 -97.5q251 0 285 186h170q-27 -158 -149.5 -242.5t-307.5 -84.5q-229 0 -373.5 148.5t-144.5 393.5zM274 639h627q-22 309 -307 309
q-129 0 -213.5 -82.5t-106.5 -226.5zM330 1556h213l127 -301h-127z" />
    <glyph glyph-name="eacute" unicode="&#xe9;" horiz-adv-x="1163" 
d="M92 524v17q0 243 140.5 396t361.5 153q76 0 145 -18.5t131 -59.5t107 -101.5t71.5 -151t26.5 -202.5v-55h-807q6 -184 93.5 -281.5t250.5 -97.5q251 0 285 186h170q-27 -158 -149.5 -242.5t-307.5 -84.5q-229 0 -373.5 148.5t-144.5 393.5zM274 639h627q-22 309 -307 309
q-129 0 -213.5 -82.5t-106.5 -226.5zM518 1255l127 301h213l-213 -301h-127z" />
    <glyph glyph-name="ecircumflex" unicode="&#xea;" horiz-adv-x="1163" 
d="M92 524v17q0 243 140.5 396t361.5 153q76 0 145 -18.5t131 -59.5t107 -101.5t71.5 -151t26.5 -202.5v-55h-807q6 -184 93.5 -281.5t250.5 -97.5q251 0 285 186h170q-27 -158 -149.5 -242.5t-307.5 -84.5q-229 0 -373.5 148.5t-144.5 393.5zM274 639h627q-22 309 -307 309
q-129 0 -213.5 -82.5t-106.5 -226.5zM297 1255l221 295h154l219 -295h-125l-174 154l-174 -154h-121z" />
    <glyph glyph-name="edieresis" unicode="&#xeb;" horiz-adv-x="1163" 
d="M92 524v17q0 243 140.5 396t361.5 153q76 0 145 -18.5t131 -59.5t107 -101.5t71.5 -151t26.5 -202.5v-55h-807q6 -184 93.5 -281.5t250.5 -97.5q251 0 285 186h170q-27 -158 -149.5 -242.5t-307.5 -84.5q-229 0 -373.5 148.5t-144.5 393.5zM274 639h627q-22 309 -307 309
q-129 0 -213.5 -82.5t-106.5 -226.5zM293 1407q0 44 32 76.5t76 32.5t76.5 -32.5t32.5 -76.5t-32.5 -76.5t-76.5 -32.5t-76 32.5t-32 76.5zM678 1407q0 44 32 76.5t76 32.5t76.5 -32.5t32.5 -76.5t-32.5 -76.5t-76.5 -32.5t-76 32.5t-32 76.5z" />
    <glyph glyph-name="igrave" unicode="&#xec;" horiz-adv-x="522" 
d="M-4 1556h213l127 -301h-127zM176 0v1071h170v-1071h-170z" />
    <glyph glyph-name="iacute" unicode="&#xed;" horiz-adv-x="522" 
d="M176 0v1071h170v-1071h-170zM184 1255l127 301h213l-213 -301h-127z" />
    <glyph glyph-name="icircumflex" unicode="&#xee;" horiz-adv-x="522" 
d="M-37 1255l221 295h154l219 -295h-125l-174 154l-174 -154h-121zM176 0v1071h170v-1071h-170z" />
    <glyph glyph-name="idieresis" unicode="&#xef;" horiz-adv-x="522" 
d="M-33 1407q0 44 32.5 76.5t76.5 32.5t76 -32.5t32 -76.5t-32 -76.5t-76 -32.5t-76.5 32.5t-32.5 76.5zM176 0v1071h170v-1071h-170zM336 1407q0 44 32 76.5t76 32.5t76.5 -32.5t32.5 -76.5t-32.5 -76.5t-76.5 -32.5t-76 32.5t-32 76.5z" />
    <glyph glyph-name="eth" unicode="&#xf0;" horiz-adv-x="1236" 
d="M92 526v17q0 118 39.5 221t106 174t155.5 111.5t187 40.5q189 0 309 -148q-94 186 -281 367l-229 -135l-60 98l199 117q-108 95 -254 194h219q97 -55 172 -113l170 101l60 -101l-137 -79q81 -75 148.5 -160t125.5 -187.5t90.5 -221.5t32.5 -240v-45q0 -242 -150 -398.5
t-379 -156.5q-228 0 -376 154.5t-148 389.5zM268 526q0 -184 94 -293.5t256 -109.5q160 0 255.5 110.5t95.5 292.5v15q0 186 -94 296.5t-254 110.5q-161 0 -257 -110t-96 -295v-17z" />
    <glyph glyph-name="ntilde" unicode="&#xf1;" horiz-adv-x="1224" 
d="M172 0v1071h170v-170q40 81 129.5 135t214.5 54q175 0 276 -105t101 -328v-657h-170v670q0 141 -61.5 206.5t-190.5 65.5q-126 0 -212.5 -77.5t-86.5 -215.5v-649h-170zM295 1264q12 108 69.5 172.5t137.5 64.5q37 0 79 -22t79 -44t61 -22q29 0 51.5 26t30.5 66h123
q-12 -107 -69 -172t-136 -65q-37 0 -80 22t-80 44t-61 22q-29 0 -51.5 -26t-30.5 -66h-123z" />
    <glyph glyph-name="ograve" unicode="&#xf2;" horiz-adv-x="1236" 
d="M92 526v17q0 240 149 393.5t377 153.5q229 0 378 -152.5t149 -392.5v-17q0 -241 -149.5 -393.5t-379.5 -152.5q-228 0 -376 154.5t-148 389.5zM268 526q0 -184 94 -293.5t256 -109.5q160 0 255.5 110.5t95.5 292.5v15q0 186 -95.5 296.5t-255.5 110.5q-161 0 -255.5 -110
t-94.5 -295v-17zM354 1556h213l127 -301h-127z" />
    <glyph glyph-name="oacute" unicode="&#xf3;" horiz-adv-x="1236" 
d="M92 526v17q0 240 149 393.5t377 153.5q229 0 378 -152.5t149 -392.5v-17q0 -241 -149.5 -393.5t-379.5 -152.5q-228 0 -376 154.5t-148 389.5zM268 526q0 -184 94 -293.5t256 -109.5q160 0 255.5 110.5t95.5 292.5v15q0 186 -95.5 296.5t-255.5 110.5q-161 0 -255.5 -110
t-94.5 -295v-17zM543 1255l127 301h213l-213 -301h-127z" />
    <glyph glyph-name="ocircumflex" unicode="&#xf4;" horiz-adv-x="1236" 
d="M92 526v17q0 240 149 393.5t377 153.5q229 0 378 -152.5t149 -392.5v-17q0 -241 -149.5 -393.5t-379.5 -152.5q-228 0 -376 154.5t-148 389.5zM268 526q0 -184 94 -293.5t256 -109.5q160 0 255.5 110.5t95.5 292.5v15q0 186 -95.5 296.5t-255.5 110.5q-161 0 -255.5 -110
t-94.5 -295v-17zM322 1255l221 295h153l219 -295h-124l-175 154l-174 -154h-120z" />
    <glyph glyph-name="otilde" unicode="&#xf5;" horiz-adv-x="1236" 
d="M92 526v17q0 240 149 393.5t377 153.5q229 0 378 -152.5t149 -392.5v-17q0 -241 -149.5 -393.5t-379.5 -152.5q-228 0 -376 154.5t-148 389.5zM268 526q0 -184 94 -293.5t256 -109.5q160 0 255.5 110.5t95.5 292.5v15q0 186 -95.5 296.5t-255.5 110.5q-161 0 -255.5 -110
t-94.5 -295v-17zM303 1264q12 108 69.5 172.5t137.5 64.5q37 0 79 -22t79 -44t61 -22q29 0 51.5 26t30.5 66h123q-12 -107 -69 -172t-136 -65q-37 0 -80 22t-80 44t-61 22q-29 0 -51.5 -26t-30.5 -66h-123z" />
    <glyph glyph-name="odieresis" unicode="&#xf6;" horiz-adv-x="1236" 
d="M92 526v17q0 240 149 393.5t377 153.5q229 0 378 -152.5t149 -392.5v-17q0 -241 -149.5 -393.5t-379.5 -152.5q-228 0 -376 154.5t-148 389.5zM268 526q0 -184 94 -293.5t256 -109.5q160 0 255.5 110.5t95.5 292.5v15q0 186 -95.5 296.5t-255.5 110.5q-161 0 -255.5 -110
t-94.5 -295v-17zM317 1407q0 44 32.5 76.5t76.5 32.5t76.5 -32.5t32.5 -76.5t-32.5 -76.5t-76.5 -32.5t-76.5 32.5t-32.5 76.5zM702 1407q0 44 32.5 76.5t76.5 32.5t76.5 -32.5t32.5 -76.5t-32.5 -76.5t-76.5 -32.5t-76.5 32.5t-32.5 76.5z" />
    <glyph glyph-name="divide" unicode="&#xf7;" horiz-adv-x="1062" 
d="M74 629v143h915v-143h-915zM399 313q0 55 38.5 93t92.5 38t93 -38t39 -93t-39 -93t-93 -38t-92.5 38t-38.5 93zM399 1087q0 55 38.5 93.5t92.5 38.5t93 -38.5t39 -93.5t-39 -93t-93 -38t-92.5 38t-38.5 93z" />
    <glyph glyph-name="oslash" unicode="&#xf8;" horiz-adv-x="1236" 
d="M47 2l158 174q-113 144 -113 350v17q0 240 149 393.5t377 153.5q186 0 320 -103l139 152l90 -78l-143 -158q121 -150 121 -358v-17q0 -241 -149.5 -393.5t-379.5 -152.5q-189 0 -327 110l-152 -168zM268 526q0 -133 49 -227l519 573q-88 76 -218 76q-161 0 -255.5 -110
t-94.5 -295v-17zM389 205q91 -82 229 -82q160 0 255.5 110.5t95.5 292.5v15q0 133 -56 239z" />
    <glyph glyph-name="ugrave" unicode="&#xf9;" horiz-adv-x="1216" 
d="M162 393v678h170v-670q0 -140 60.5 -206t187.5 -66q122 0 208 77.5t86 215.5v649h170v-1071h-170v170q-40 -81 -128.5 -134.5t-210.5 -53.5q-170 0 -271.5 100t-101.5 311zM344 1556h213l127 -301h-127z" />
    <glyph glyph-name="uacute" unicode="&#xfa;" horiz-adv-x="1216" 
d="M162 393v678h170v-670q0 -140 60.5 -206t187.5 -66q122 0 208 77.5t86 215.5v649h170v-1071h-170v170q-40 -81 -128.5 -134.5t-210.5 -53.5q-170 0 -271.5 100t-101.5 311zM532 1255l127 301h213l-213 -301h-127z" />
    <glyph glyph-name="ucircumflex" unicode="&#xfb;" horiz-adv-x="1216" 
d="M162 393v678h170v-670q0 -140 60.5 -206t187.5 -66q122 0 208 77.5t86 215.5v649h170v-1071h-170v170q-40 -81 -128.5 -134.5t-210.5 -53.5q-170 0 -271.5 100t-101.5 311zM311 1255l221 295h154l219 -295h-125l-174 154l-174 -154h-121z" />
    <glyph glyph-name="udieresis" unicode="&#xfc;" horiz-adv-x="1216" 
d="M162 393v678h170v-670q0 -140 60.5 -206t187.5 -66q122 0 208 77.5t86 215.5v649h170v-1071h-170v170q-40 -81 -128.5 -134.5t-210.5 -53.5q-170 0 -271.5 100t-101.5 311zM307 1407q0 44 32.5 76.5t76.5 32.5t76 -32.5t32 -76.5t-32 -76.5t-76 -32.5t-76.5 32.5
t-32.5 76.5zM692 1407q0 44 32.5 76.5t76.5 32.5t76 -32.5t32 -76.5t-32 -76.5t-76 -32.5t-76.5 32.5t-32.5 76.5z" />
    <glyph glyph-name="yacute" unicode="&#xfd;" horiz-adv-x="1083" 
d="M51 1071h182l328 -768l297 768h174l-592 -1444h-172l203 484zM481 1255l127 301h213l-213 -301h-127z" />
    <glyph glyph-name="thorn" unicode="&#xfe;" horiz-adv-x="1284" 
d="M172 -373v1956h170v-692q48 82 149.5 140.5t213.5 58.5q215 0 351 -146.5t136 -392.5v-16q0 -247 -133.5 -400t-353.5 -153q-125 0 -219.5 54.5t-143.5 139.5v-549h-170zM336 526q0 -199 95 -301t257 -102q159 0 243.5 104t84.5 299v17q0 194 -94 299.5t-236 105.5
q-156 0 -253 -103.5t-97 -301.5v-17z" />
    <glyph glyph-name="ydieresis" unicode="&#xff;" horiz-adv-x="1083" 
d="M51 1071h182l328 -768l297 768h174l-592 -1444h-172l203 484zM256 1407q0 44 32.5 76.5t76.5 32.5t76 -32.5t32 -76.5t-32 -76.5t-76 -32.5t-76.5 32.5t-32.5 76.5zM641 1407q0 44 32.5 76.5t76.5 32.5t76 -32.5t32 -76.5t-32 -76.5t-76 -32.5t-76.5 32.5t-32.5 76.5z
" />
    <glyph glyph-name="Amacron" unicode="&#x100;" horiz-adv-x="1380" 
d="M74 0l504 1464h233l496 -1464h-177l-143 422h-604l-141 -422h-168zM418 1610v131h545v-131h-545zM432 563h508l-254 754z" />
    <glyph glyph-name="amacron" unicode="&#x101;" horiz-adv-x="1105" 
d="M84 297q0 89 44.5 155.5t122 104t170 55t200.5 17.5h153v78q0 128 -53 184.5t-176 56.5q-223 0 -246 -192h-170q8 88 46 154.5t97.5 104.5t129.5 56.5t151 18.5q65 0 120 -11t106 -38t86.5 -69.5t57 -110t21.5 -154.5v-707h-170v135q-62 -78 -140.5 -115.5t-193.5 -37.5
q-103 0 -181 32t-126.5 104.5t-48.5 178.5zM254 297q0 -88 47.5 -134t155.5 -46q139 0 228 68.5t89 189.5v133h-147q-373 0 -373 -211zM287 1327v131h536v-131h-536z" />
    <glyph glyph-name="Abreve" unicode="&#x102;" horiz-adv-x="1380" 
d="M74 0l504 1464h233l496 -1464h-177l-143 422h-604l-141 -422h-168zM416 1841h135q23 -131 135 -131q122 0 148 131h131q-6 -116 -87 -193t-192 -77q-110 0 -187 76.5t-83 193.5zM432 563h508l-254 754z" />
    <glyph glyph-name="abreve" unicode="&#x103;" horiz-adv-x="1105" 
d="M84 297q0 89 44.5 155.5t122 104t170 55t200.5 17.5h153v78q0 128 -53 184.5t-176 56.5q-223 0 -246 -192h-170q8 88 46 154.5t97.5 104.5t129.5 56.5t151 18.5q65 0 120 -11t106 -38t86.5 -69.5t57 -110t21.5 -154.5v-707h-170v135q-62 -78 -140.5 -115.5t-193.5 -37.5
q-103 0 -181 32t-126.5 104.5t-48.5 178.5zM254 297q0 -88 47.5 -134t155.5 -46q139 0 228 68.5t89 189.5v133h-147q-373 0 -373 -211zM281 1538h135q23 -131 135 -131q121 0 147 131h131q-6 -116 -86.5 -193t-191.5 -77q-110 0 -187 76.5t-83 193.5z" />
    <glyph glyph-name="Aogonek" unicode="&#x104;" horiz-adv-x="1380" 
d="M74 0l504 1464h233l494 -1458q-84 -49 -121 -92t-37 -90q0 -74 78 -74q61 0 106 23v-121q-63 -25 -133 -25q-96 0 -154.5 44t-58.5 120q0 60 41.5 114.5t106.5 88.5l-146 428h-604l-141 -422h-168zM432 563h508l-254 754z" />
    <glyph glyph-name="aogonek" unicode="&#x105;" horiz-adv-x="1105" 
d="M84 297q0 89 44.5 155.5t122 104t170 55t200.5 17.5h153v78q0 128 -53 184.5t-176 56.5q-223 0 -246 -192h-170q8 88 46 154.5t97.5 104.5t129.5 56.5t151 18.5q65 0 120 -11t106 -38t86.5 -69.5t57 -110t21.5 -154.5v-699q-162 -92 -162 -184q0 -74 78 -74q62 0 107 23
v-121q-63 -25 -133 -25q-96 0 -154.5 44t-58.5 120q0 62 42.5 117t110.5 90v137q-62 -78 -140.5 -115.5t-193.5 -37.5q-103 0 -181 32t-126.5 104.5t-48.5 178.5zM254 297q0 -88 47.5 -134t155.5 -46q139 0 228 68.5t89 189.5v133h-147q-373 0 -373 -211z" />
    <glyph glyph-name="Cacute" unicode="&#x106;" horiz-adv-x="1495" 
d="M113 723v16q0 214 88.5 385t246 267t353.5 96q156 0 282.5 -52.5t211.5 -162.5t100 -264h-176q-28 170 -129.5 254t-286.5 84q-228 0 -367 -164.5t-139 -440.5v-16q0 -280 134 -439t370 -159q183 0 299 91t143 267h166q-37 -248 -198.5 -375.5t-413.5 -127.5
q-317 0 -500.5 200.5t-183.5 540.5zM729 1579l115 260h213l-201 -260h-127z" />
    <glyph glyph-name="cacute" unicode="&#x107;" horiz-adv-x="1167" 
d="M92 524v17q0 120 41 223.5t111 174.5t165.5 111t202.5 40q87 0 163 -21t140.5 -64t107 -117t54.5 -173h-168q-19 121 -98.5 177t-198.5 56q-150 0 -247 -111t-97 -296v-17q0 -192 95.5 -296.5t254.5 -104.5q120 0 207.5 68.5t100.5 193.5h157q-17 -176 -146.5 -289.5
t-320.5 -113.5q-228 0 -376 148.5t-148 393.5zM535 1255l127 301h212l-212 -301h-127z" />
    <glyph glyph-name="Ccircumflex" unicode="&#x108;" horiz-adv-x="1495" 
d="M113 723v16q0 214 88.5 385t246 267t353.5 96q156 0 282.5 -52.5t211.5 -162.5t100 -264h-176q-28 170 -129.5 254t-286.5 84q-228 0 -367 -164.5t-139 -440.5v-16q0 -280 134 -439t370 -159q183 0 299 91t143 267h166q-37 -248 -198.5 -375.5t-413.5 -127.5
q-317 0 -500.5 200.5t-183.5 540.5zM508 1579l221 260h154l219 -260h-125l-174 119l-174 -119h-121z" />
    <glyph glyph-name="ccircumflex" unicode="&#x109;" horiz-adv-x="1167" 
d="M92 524v17q0 120 41 223.5t111 174.5t165.5 111t202.5 40q87 0 163 -21t140.5 -64t107 -117t54.5 -173h-168q-19 121 -98.5 177t-198.5 56q-150 0 -247 -111t-97 -296v-17q0 -192 95.5 -296.5t254.5 -104.5q120 0 207.5 68.5t100.5 193.5h157q-17 -176 -146.5 -289.5
t-320.5 -113.5q-228 0 -376 148.5t-148 393.5zM313 1255l222 295h153l219 -295h-125l-174 154l-174 -154h-121z" />
    <glyph glyph-name="Cdotaccent" unicode="&#x10a;" horiz-adv-x="1495" 
d="M113 723v16q0 214 88.5 385t246 267t353.5 96q156 0 282.5 -52.5t211.5 -162.5t100 -264h-176q-28 170 -129.5 254t-286.5 84q-228 0 -367 -164.5t-139 -440.5v-16q0 -280 134 -439t370 -159q183 0 299 91t143 267h166q-37 -248 -198.5 -375.5t-413.5 -127.5
q-317 0 -500.5 200.5t-183.5 540.5zM684 1724q0 46 33.5 79.5t79.5 33.5t79 -33.5t33 -79.5t-33 -79t-79 -33t-79.5 33t-33.5 79z" />
    <glyph glyph-name="cdotaccent" unicode="&#x10b;" horiz-adv-x="1167" 
d="M92 524v17q0 120 41 223.5t111 174.5t165.5 111t202.5 40q87 0 163 -21t140.5 -64t107 -117t54.5 -173h-168q-19 121 -98.5 177t-198.5 56q-150 0 -247 -111t-97 -296v-17q0 -192 95.5 -296.5t254.5 -104.5q120 0 207.5 68.5t100.5 193.5h157q-17 -176 -146.5 -289.5
t-320.5 -113.5q-228 0 -376 148.5t-148 393.5zM498 1407q0 46 33 79.5t79 33.5t79.5 -33.5t33.5 -79.5t-33.5 -79.5t-79.5 -33.5t-79 33.5t-33 79.5z" />
    <glyph glyph-name="Ccaron" unicode="&#x10c;" horiz-adv-x="1495" 
d="M113 723v16q0 214 88.5 385t246 267t353.5 96q156 0 282.5 -52.5t211.5 -162.5t100 -264h-176q-28 170 -129.5 254t-286.5 84q-228 0 -367 -164.5t-139 -440.5v-16q0 -280 134 -439t370 -159q183 0 299 91t143 267h166q-37 -248 -198.5 -375.5t-413.5 -127.5
q-317 0 -500.5 200.5t-183.5 540.5zM508 1839h125l174 -119l174 119h121l-221 -260h-154z" />
    <glyph glyph-name="ccaron" unicode="&#x10d;" horiz-adv-x="1167" 
d="M92 524v17q0 120 41 223.5t111 174.5t165.5 111t202.5 40q87 0 163 -21t140.5 -64t107 -117t54.5 -173h-168q-19 121 -98.5 177t-198.5 56q-150 0 -247 -111t-97 -296v-17q0 -192 95.5 -296.5t254.5 -104.5q120 0 207.5 68.5t100.5 193.5h157q-17 -176 -146.5 -289.5
t-320.5 -113.5q-228 0 -376 148.5t-148 393.5zM313 1550h125l174 -153l174 153h121l-221 -295h-154z" />
    <glyph glyph-name="Dcaron" unicode="&#x10e;" horiz-adv-x="1425" 
d="M184 0v1464h387q184 0 327.5 -54.5t233 -152.5t135.5 -227.5t46 -284.5v-18q0 -123 -28 -231.5t-87.5 -200t-146.5 -157t-210.5 -102t-273.5 -36.5h-383zM350 1839h125l174 -119l174 119h121l-221 -260h-154zM362 145h201q277 0 421 155t144 429v16q0 130 -32.5 233
t-99.5 181t-177 120t-258 42h-199v-1176z" />
    <glyph glyph-name="dcaron" unicode="&#x10f;" horiz-adv-x="1284" 
d="M92 514v16q0 246 139.5 403t360.5 157q125 0 212.5 -52.5t137.5 -138.5v684h170v-1583h-170v184q-48 -82 -151.5 -142t-215.5 -60q-215 0 -349 143t-134 389zM268 522q0 -194 91.5 -296.5t234.5 -102.5q157 0 255.5 104t98.5 301v17q0 201 -89.5 302t-250.5 101
q-160 0 -250 -107.5t-90 -301.5v-17zM1210 1225l25 358h192l-98 -358h-119z" />
    <glyph glyph-name="Dcroat" unicode="&#x110;" horiz-adv-x="1466" 
d="M70 666v137h155v661h387q184 0 327.5 -54.5t233 -152.5t135.5 -227.5t46 -284.5v-18q0 -123 -28 -231.5t-87.5 -200t-146.5 -157t-210.5 -102t-273.5 -36.5h-383v666h-155zM403 145h201q277 0 421 155t144 429v16q0 130 -32.5 233t-99.5 181t-177 120t-258 42h-199v-518
h424v-137h-424v-521z" />
    <glyph glyph-name="dcroat" unicode="&#x111;" horiz-adv-x="1284" 
d="M92 514v16q0 246 139.5 403t360.5 157q125 0 212.5 -52.5t137.5 -138.5v361h-364v124h364v199h170v-199h154v-124h-154v-1260h-170v184q-48 -82 -151.5 -142t-215.5 -60q-215 0 -349 143t-134 389zM268 522q0 -194 91.5 -296.5t234.5 -102.5q157 0 255.5 104t98.5 301v17
q0 201 -89.5 302t-250.5 101q-160 0 -250 -107.5t-90 -301.5v-17z" />
    <glyph glyph-name="Emacron" unicode="&#x112;" horiz-adv-x="1159" 
d="M184 0v1464h854v-145h-676v-498h545v-145h-545v-531h713v-145h-891zM354 1610v131h545v-131h-545z" />
    <glyph glyph-name="emacron" unicode="&#x113;" horiz-adv-x="1163" 
d="M92 524v17q0 243 140.5 396t361.5 153q76 0 145 -18.5t131 -59.5t107 -101.5t71.5 -151t26.5 -202.5v-55h-807q6 -184 93.5 -281.5t250.5 -97.5q251 0 285 186h170q-27 -158 -149.5 -242.5t-307.5 -84.5q-229 0 -373.5 148.5t-144.5 393.5zM274 639h627q-22 309 -307 309
q-129 0 -213.5 -82.5t-106.5 -226.5zM326 1327v131h536v-131h-536z" />
    <glyph glyph-name="Ebreve" unicode="&#x114;" horiz-adv-x="1159" 
d="M184 0v1464h854v-145h-676v-498h545v-145h-545v-531h713v-145h-891zM367 1841h135q23 -131 135 -131q121 0 147 131h131q-6 -116 -86.5 -193t-191.5 -77q-110 0 -187 76.5t-83 193.5z" />
    <glyph glyph-name="ebreve" unicode="&#x115;" horiz-adv-x="1163" 
d="M92 524v17q0 243 140.5 396t361.5 153q76 0 145 -18.5t131 -59.5t107 -101.5t71.5 -151t26.5 -202.5v-55h-807q6 -184 93.5 -281.5t250.5 -97.5q251 0 285 186h170q-27 -158 -149.5 -242.5t-307.5 -84.5q-229 0 -373.5 148.5t-144.5 393.5zM274 639h627q-22 309 -307 309
q-129 0 -213.5 -82.5t-106.5 -226.5zM303 1538h135q23 -131 135 -131q122 0 148 131h131q-6 -116 -87 -193t-192 -77q-110 0 -187 76.5t-83 193.5z" />
    <glyph glyph-name="Edotaccent" unicode="&#x116;" horiz-adv-x="1159" 
d="M184 0v1464h854v-145h-676v-498h545v-145h-545v-531h713v-145h-891zM514 1724q0 46 33.5 79.5t79.5 33.5t79 -33.5t33 -79.5t-33 -79t-79 -33t-79.5 33t-33.5 79z" />
    <glyph glyph-name="edotaccent" unicode="&#x117;" horiz-adv-x="1163" 
d="M92 524v17q0 243 140.5 396t361.5 153q76 0 145 -18.5t131 -59.5t107 -101.5t71.5 -151t26.5 -202.5v-55h-807q6 -184 93.5 -281.5t250.5 -97.5q251 0 285 186h170q-27 -158 -149.5 -242.5t-307.5 -84.5q-229 0 -373.5 148.5t-144.5 393.5zM274 639h627q-22 309 -307 309
q-129 0 -213.5 -82.5t-106.5 -226.5zM481 1407q0 46 33.5 79.5t79.5 33.5t79.5 -33.5t33.5 -79.5t-33.5 -79.5t-79.5 -33.5t-79.5 33.5t-33.5 79.5z" />
    <glyph glyph-name="Eogonek" unicode="&#x118;" horiz-adv-x="1159" 
d="M184 0v1464h854v-145h-676v-498h545v-145h-545v-531h713v-145h-57q-71 -47 -105 -88.5t-34 -87.5q0 -74 77 -74q62 0 107 23v-121q-62 -25 -133 -25q-96 0 -154.5 44t-58.5 120q0 63 45 119t115 90h-693z" />
    <glyph glyph-name="eogonek" unicode="&#x119;" horiz-adv-x="1163" 
d="M92 524v17q0 243 140.5 396t361.5 153q76 0 145 -18.5t131 -59.5t107 -101.5t71.5 -151t26.5 -202.5v-55h-807q6 -184 93.5 -281.5t250.5 -97.5q251 0 285 186h170q-5 -27 -12 -51.5t-17.5 -46.5t-19 -39t-24 -36t-23 -29.5t-25.5 -27t-23 -21t-23 -19.5t-19 -16
q-138 -117 -138 -199q0 -74 78 -74q62 0 107 23v-121q-62 -25 -133 -25q-96 0 -154.5 44t-58.5 120q0 59 39 112t102 87q-49 -8 -113 -8q-229 0 -373.5 148.5t-144.5 393.5zM274 639h627q-22 309 -307 309q-129 0 -213.5 -82.5t-106.5 -226.5z" />
    <glyph glyph-name="Ecaron" unicode="&#x11a;" horiz-adv-x="1159" 
d="M184 0v1464h854v-145h-676v-498h545v-145h-545v-531h713v-145h-891zM338 1839h125l174 -119l174 119h121l-221 -260h-154z" />
    <glyph glyph-name="ecaron" unicode="&#x11b;" horiz-adv-x="1163" 
d="M92 524v17q0 243 140.5 396t361.5 153q76 0 145 -18.5t131 -59.5t107 -101.5t71.5 -151t26.5 -202.5v-55h-807q6 -184 93.5 -281.5t250.5 -97.5q251 0 285 186h170q-27 -158 -149.5 -242.5t-307.5 -84.5q-229 0 -373.5 148.5t-144.5 393.5zM274 639h627q-22 309 -307 309
q-129 0 -213.5 -82.5t-106.5 -226.5zM297 1550h125l174 -153l174 153h121l-221 -295h-154z" />
    <glyph glyph-name="Gcircumflex" unicode="&#x11c;" horiz-adv-x="1570" 
d="M113 723v16q0 212 88.5 382.5t251 268t368.5 97.5q112 0 210 -27t179.5 -81.5t136 -145.5t70.5 -211h-178q-30 168 -138 246t-276 78q-248 0 -388 -166t-140 -439v-16q0 -277 135.5 -438.5t388.5 -161.5q116 0 204.5 36t143 100.5t83 147.5t30.5 183h-428v147h602v-108
q0 -208 -81 -355.5t-223 -220.5t-331 -73q-220 0 -382 96.5t-244 263t-82 381.5zM512 1579l221 260h154l219 -260h-125l-174 119l-174 -119h-121z" />
    <glyph glyph-name="gcircumflex" unicode="&#x11d;" horiz-adv-x="1284" 
d="M92 543v14q0 145 62.5 266.5t178 194t259.5 72.5q125 0 212.5 -52.5t137.5 -138.5v172h170v-999q-1 -226 -140.5 -344.5t-371.5 -118.5q-224 0 -342.5 91.5t-142.5 238.5h174q38 -187 309 -187q164 0 254 81.5t90 248.5v156q-49 -83 -149.5 -143t-212.5 -60
q-211 0 -349.5 143.5t-138.5 364.5zM268 549q0 -170 95 -271.5t235 -101.5q153 0 251.5 101.5t98.5 277.5v14q0 179 -91 279t-249 100q-157 0 -248.5 -106t-91.5 -277v-16zM305 1255l221 295h154l219 -295h-125l-174 154l-174 -154h-121z" />
    <glyph glyph-name="Gbreve" unicode="&#x11e;" horiz-adv-x="1570" 
d="M113 723v16q0 212 88.5 382.5t251 268t368.5 97.5q112 0 210 -27t179.5 -81.5t136 -145.5t70.5 -211h-178q-30 168 -138 246t-276 78q-248 0 -388 -166t-140 -439v-16q0 -277 135.5 -438.5t388.5 -161.5q116 0 204.5 36t143 100.5t83 147.5t30.5 183h-428v147h602v-108
q0 -208 -81 -355.5t-223 -220.5t-331 -73q-220 0 -382 96.5t-244 263t-82 381.5zM535 1841h135q23 -131 135 -131q121 0 147 131h131q-6 -116 -86.5 -193t-191.5 -77q-110 0 -187 76.5t-83 193.5z" />
    <glyph glyph-name="gbreve" unicode="&#x11f;" horiz-adv-x="1284" 
d="M92 543v14q0 145 62.5 266.5t178 194t259.5 72.5q125 0 212.5 -52.5t137.5 -138.5v172h170v-999q-1 -226 -140.5 -344.5t-371.5 -118.5q-224 0 -342.5 91.5t-142.5 238.5h174q38 -187 309 -187q164 0 254 81.5t90 248.5v156q-49 -83 -149.5 -143t-212.5 -60
q-211 0 -349.5 143.5t-138.5 364.5zM268 549q0 -170 95 -271.5t235 -101.5q153 0 251.5 101.5t98.5 277.5v14q0 179 -91 279t-249 100q-157 0 -248.5 -106t-91.5 -277v-16zM328 1538h135q23 -131 135 -131q121 0 147 131h132q-6 -116 -87 -193t-192 -77q-110 0 -187 76.5
t-83 193.5z" />
    <glyph glyph-name="Gdotaccent" unicode="&#x120;" horiz-adv-x="1570" 
d="M113 723v16q0 212 88.5 382.5t251 268t368.5 97.5q112 0 210 -27t179.5 -81.5t136 -145.5t70.5 -211h-178q-30 168 -138 246t-276 78q-248 0 -388 -166t-140 -439v-16q0 -277 135.5 -438.5t388.5 -161.5q116 0 204.5 36t143 100.5t83 147.5t30.5 183h-428v147h602v-108
q0 -208 -81 -355.5t-223 -220.5t-331 -73q-220 0 -382 96.5t-244 263t-82 381.5zM696 1724q0 46 33.5 79.5t79.5 33.5t79.5 -33.5t33.5 -79.5t-33.5 -79t-79.5 -33t-79.5 33t-33.5 79z" />
    <glyph glyph-name="gdotaccent" unicode="&#x121;" horiz-adv-x="1284" 
d="M92 543v14q0 145 62.5 266.5t178 194t259.5 72.5q125 0 212.5 -52.5t137.5 -138.5v172h170v-999q-1 -226 -140.5 -344.5t-371.5 -118.5q-224 0 -342.5 91.5t-142.5 238.5h174q38 -187 309 -187q164 0 254 81.5t90 248.5v156q-49 -83 -149.5 -143t-212.5 -60
q-211 0 -349.5 143.5t-138.5 364.5zM268 549q0 -170 95 -271.5t235 -101.5q153 0 251.5 101.5t98.5 277.5v14q0 179 -91 279t-249 100q-157 0 -248.5 -106t-91.5 -277v-16zM489 1407q0 46 33.5 79.5t79.5 33.5t79.5 -33.5t33.5 -79.5t-33.5 -79.5t-79.5 -33.5t-79.5 33.5
t-33.5 79.5z" />
    <glyph glyph-name="Gcommaaccent" unicode="&#x122;" horiz-adv-x="1570" 
d="M113 723v16q0 212 88.5 382.5t251 268t368.5 97.5q112 0 210 -27t179.5 -81.5t136 -145.5t70.5 -211h-178q-30 168 -138 246t-276 78q-248 0 -388 -166t-140 -439v-16q0 -277 135.5 -438.5t388.5 -161.5q116 0 204.5 36t143 100.5t83 147.5t30.5 183h-428v147h602v-108
q0 -208 -81 -355.5t-223 -220.5t-331 -73q-220 0 -382 96.5t-244 263t-82 381.5zM637 -397l119 321l164 -49l-179 -326z" />
    <glyph glyph-name="gcommaaccent" unicode="&#x123;" horiz-adv-x="1284" 
d="M92 543v14q0 145 62.5 266.5t178 194t259.5 72.5q125 0 212.5 -52.5t137.5 -138.5v172h170v-999q-1 -226 -140.5 -344.5t-371.5 -118.5q-224 0 -342.5 91.5t-142.5 238.5h174q38 -187 309 -187q164 0 254 81.5t90 248.5v156q-49 -83 -149.5 -143t-212.5 -60
q-211 0 -349.5 143.5t-138.5 364.5zM268 549q0 -170 95 -271.5t235 -101.5q153 0 251.5 101.5t98.5 277.5v14q0 179 -91 279t-249 100q-157 0 -248.5 -106t-91.5 -277v-16zM520 1282l178 326l105 -54l-119 -321z" />
    <glyph glyph-name="Hcircumflex" unicode="&#x124;" horiz-adv-x="1495" 
d="M184 0v1464h178v-663h771v663h178v-1464h-178v651h-771v-651h-178zM451 1579l221 260h153l219 -260h-124l-175 119l-174 -119h-120z" />
    <glyph glyph-name="hcircumflex" unicode="&#x125;" horiz-adv-x="1224" 
d="M172 0v1583h170v-682q40 81 129.5 135t214.5 54q175 0 276 -105t101 -328v-657h-170v670q0 141 -61.5 206.5t-190.5 65.5q-126 0 -212.5 -77.5t-86.5 -215.5v-649h-170zM344 1681l221 261h154l219 -261h-125l-174 119l-174 -119h-121z" />
    <glyph glyph-name="Hbar" unicode="&#x126;" horiz-adv-x="1495" 
d="M41 1010v137h143v317h178v-317h771v317h178v-317h143v-137h-143v-1010h-178v651h-771v-651h-178v1010h-143zM362 801h771v209h-771v-209z" />
    <glyph glyph-name="hbar" unicode="&#x127;" horiz-adv-x="1224" 
d="M18 1260v124h154v199h170v-199h365v-124h-365v-359q40 81 129.5 135t214.5 54q175 0 276 -105t101 -328v-657h-170v670q0 141 -61.5 206.5t-190.5 65.5q-126 0 -212.5 -77.5t-86.5 -215.5v-649h-170v1260h-154z" />
    <glyph glyph-name="Itilde" unicode="&#x128;" horiz-adv-x="567" 
d="M-29 1581q12 108 69.5 173t137.5 65q37 0 79 -22t79 -44t61 -22q29 0 51.5 26t30.5 66h123q-12 -108 -69 -173t-136 -65q-37 0 -80 22t-80 44t-61 22q-29 0 -51.5 -26t-30.5 -66h-123zM195 0v1464h178v-1464h-178z" />
    <glyph glyph-name="itilde" unicode="&#x129;" horiz-adv-x="522" 
d="M-53 1264q12 108 69.5 172.5t137.5 64.5q37 0 79 -22t79 -44t61 -22q29 0 51.5 26t30.5 66h123q-12 -107 -69 -172t-136 -65q-37 0 -80 22t-80 44t-61 22q-29 0 -51.5 -26t-30.5 -66h-123zM176 0v1071h170v-1071h-170z" />
    <glyph glyph-name="Imacron" unicode="&#x12a;" horiz-adv-x="567" 
d="M10 1610v131h545v-131h-545zM195 0v1464h178v-1464h-178z" />
    <glyph glyph-name="imacron" unicode="&#x12b;" horiz-adv-x="522" 
d="M61 1327v131h398v-131h-398zM176 0v1071h170v-1071h-170z" />
    <glyph glyph-name="Ibreve" unicode="&#x12c;" horiz-adv-x="567" 
d="M12 1841h135q23 -131 136 -131q121 0 147 131h131q-6 -116 -86.5 -193t-191.5 -77t-188 76.5t-83 193.5zM195 0v1464h178v-1464h-178z" />
    <glyph glyph-name="ibreve" unicode="&#x12d;" horiz-adv-x="522" 
d="M-12 1538h135q23 -131 135 -131q122 0 148 131h131q-6 -116 -87 -193t-192 -77q-110 0 -187 76.5t-83 193.5zM176 0v1071h170v-1071h-170z" />
    <glyph glyph-name="Iogonek" unicode="&#x12e;" horiz-adv-x="567" 
d="M53 -209q0 59 39.5 112.5t102.5 88.5v1472h178v-1456q-158 -90 -158 -184q0 -74 78 -74q61 0 106 23v-121q-62 -25 -133 -25q-96 0 -154.5 44t-58.5 120z" />
    <glyph glyph-name="iogonek" unicode="&#x12f;" horiz-adv-x="522" 
d="M33 -209q0 61 39.5 114t103.5 87v1079h170v-1065q-151 -91 -151 -182q0 -74 77 -74q62 0 107 23v-121q-62 -25 -133 -25q-96 0 -154.5 44t-58.5 120zM145 1407q0 46 33.5 79.5t79.5 33.5t79.5 -33.5t33.5 -79.5t-33.5 -79.5t-79.5 -33.5t-79.5 33.5t-33.5 79.5z" />
    <glyph glyph-name="Idotaccent" unicode="&#x130;" horiz-adv-x="567" 
d="M170 1724q0 46 33.5 79.5t79.5 33.5t79 -33.5t33 -79.5t-33 -79t-79 -33t-79.5 33t-33.5 79zM195 0v1464h178v-1464h-178z" />
    <glyph glyph-name="dotlessi" unicode="&#x131;" horiz-adv-x="522" 
d="M176 0v1071h170v-1071h-170z" />
    <glyph glyph-name="IJ" unicode="&#x132;" horiz-adv-x="1345" 
d="M195 0v1464h178v-1464h-178zM563 20v148q94 -41 195 -41q237 0 237 279v1058h179v-1067q0 -107 -31.5 -188t-88 -130t-128.5 -73t-158 -24q-131 0 -205 38z" />
    <glyph glyph-name="ij" unicode="&#x133;" horiz-adv-x="522" 
d="M145 1407q0 46 33.5 79.5t79.5 33.5t79.5 -33.5t33.5 -79.5t-33.5 -79.5t-79.5 -33.5t-79.5 33.5t-33.5 79.5zM176 0v1071h170v-1071h-170zM541 -248q86 7 121.5 49t35.5 117v1153h170v-1139q0 -158 -76.5 -237.5t-250.5 -85.5v143zM668 1407q0 46 33 79.5t79 33.5
t79.5 -33.5t33.5 -79.5t-33.5 -79.5t-79.5 -33.5t-79 33.5t-33 79.5z" />
    <glyph glyph-name="Jcircumflex" unicode="&#x134;" horiz-adv-x="860" 
d="M78 20v148q94 -41 194 -41q113 0 175.5 68t62.5 211v1058h178v-1067q0 -107 -31.5 -188t-87.5 -130t-128 -73t-158 -24q-131 0 -205 38zM297 1579l221 260h154l219 -260h-125l-174 119l-174 -119h-121z" />
    <glyph glyph-name="jcircumflex" unicode="&#x135;" horiz-adv-x="522" 
d="M-39 1255l221 295h154l219 -295h-125l-174 154l-174 -154h-121zM18 -248q86 7 122 49t36 117v1153h170v-1139q0 -158 -77 -237.5t-251 -85.5v143z" />
    <glyph glyph-name="Kcommaaccent" unicode="&#x136;" horiz-adv-x="1261" 
d="M184 0v1464h178v-704l637 706h199l-651 -712l684 -754h-215l-654 715v-715h-178zM487 -397l119 321l164 -49l-178 -326z" />
    <glyph glyph-name="kcommaaccent" unicode="&#x137;" horiz-adv-x="1056" 
d="M172 0v1583h170v-1005l444 493h199l-459 -498l498 -573h-207l-475 555v-555h-170zM381 -397l119 321l164 -49l-179 -326z" />
    <glyph glyph-name="Lacute" unicode="&#x139;" horiz-adv-x="1095" 
d="M184 0v1464h178v-1319h670v-145h-848zM201 1579l114 260h213l-200 -260h-127z" />
    <glyph glyph-name="lacute" unicode="&#x13a;" horiz-adv-x="524" 
d="M176 0v1583h172v-1583h-172zM188 1681l115 261h213l-201 -261h-127z" />
    <glyph glyph-name="Lcommaaccent" unicode="&#x13b;" horiz-adv-x="1095" 
d="M184 0v1464h178v-1319h670v-145h-848zM438 -397l119 321l164 -49l-178 -326z" />
    <glyph glyph-name="lcommaaccent" unicode="&#x13c;" horiz-adv-x="524" 
d="M90 -397l119 321l164 -49l-178 -326zM176 0v1583h172v-1583h-172z" />
    <glyph glyph-name="Lcaron" unicode="&#x13d;" horiz-adv-x="1095" 
d="M184 0v1464h178v-1319h670v-145h-848zM600 1143l45 321h193l-119 -321h-119z" />
    <glyph glyph-name="lcaron" unicode="&#x13e;" horiz-adv-x="524" 
d="M176 0v1583h172v-1583h-172zM446 1225l25 358h193l-99 -358h-119z" />
    <glyph glyph-name="Ldot" unicode="&#x13f;" horiz-adv-x="1095" 
d="M184 0v1464h178v-1319h670v-145h-848zM688 786q0 55 38.5 93.5t92.5 38.5t92.5 -38.5t38.5 -93.5t-38.5 -93t-92.5 -38t-92.5 38t-38.5 93z" />
    <glyph glyph-name="ldot" unicode="&#x140;" horiz-adv-x="671" 
d="M176 0v1583h172v-1583h-172zM463 752q0 55 38.5 93t92.5 38t92.5 -38t38.5 -93t-38.5 -93t-92.5 -38t-92.5 38t-38.5 93z" />
    <glyph glyph-name="Lslash" unicode="&#x141;" horiz-adv-x="1136" 
d="M86 514v139l139 52v759h178v-694l408 150v-140l-408 -149v-486h670v-145h-848v565z" />
    <glyph glyph-name="lslash" unicode="&#x142;" horiz-adv-x="565" 
d="M41 637v143l156 88v715h172v-616l163 94v-143l-163 -95v-823h-172v725z" />
    <glyph glyph-name="Nacute" unicode="&#x143;" horiz-adv-x="1482" 
d="M184 0v1464h232l712 -1210v1210h170v-1464h-204l-740 1255v-1255h-170zM686 1579l115 260h213l-201 -260h-127z" />
    <glyph glyph-name="nacute" unicode="&#x144;" horiz-adv-x="1224" 
d="M172 0v1071h170v-170q40 81 129.5 135t214.5 54q175 0 276 -105t101 -328v-657h-170v670q0 141 -61.5 206.5t-190.5 65.5q-126 0 -212.5 -77.5t-86.5 -215.5v-649h-170zM535 1255l127 301h212l-212 -301h-127z" />
    <glyph glyph-name="Ncommaaccent" unicode="&#x145;" horiz-adv-x="1482" 
d="M184 0v1464h232l712 -1210v1210h170v-1464h-204l-740 1255v-1255h-170zM545 -397l119 321l163 -49l-178 -326z" />
    <glyph glyph-name="ncommaaccent" unicode="&#x146;" horiz-adv-x="1224" 
d="M172 0v1071h170v-170q40 81 129.5 135t214.5 54q175 0 276 -105t101 -328v-657h-170v670q0 141 -61.5 206.5t-190.5 65.5q-126 0 -212.5 -77.5t-86.5 -215.5v-649h-170zM438 -397l119 321l164 -49l-178 -326z" />
    <glyph glyph-name="Ncaron" unicode="&#x147;" horiz-adv-x="1482" 
d="M184 0v1464h232l712 -1210v1210h170v-1464h-204l-740 1255v-1255h-170zM465 1839h125l174 -119l174 119h121l-221 -260h-154z" />
    <glyph glyph-name="ncaron" unicode="&#x148;" horiz-adv-x="1224" 
d="M172 0v1071h170v-170q40 81 129.5 135t214.5 54q175 0 276 -105t101 -328v-657h-170v670q0 141 -61.5 206.5t-190.5 65.5q-126 0 -212.5 -77.5t-86.5 -215.5v-649h-170zM313 1550h125l174 -153l174 153h121l-221 -295h-154z" />
    <glyph glyph-name="napostrophe" unicode="&#x149;" horiz-adv-x="1224" 
d="M-90 1053l182 434l162 -74l-240 -414zM172 0v1071h170v-170q40 81 129.5 135t214.5 54q175 0 276 -105t101 -328v-657h-170v670q0 141 -61.5 206.5t-190.5 65.5q-126 0 -212.5 -77.5t-86.5 -215.5v-649h-170z" />
    <glyph glyph-name="Eng" unicode="&#x14a;" horiz-adv-x="1482" 
d="M184 0v1464h232l712 -1163v1163h170v-1444q0 -107 -31.5 -188t-87.5 -130t-128 -73t-158 -24q-129 0 -205 39v147q94 -41 195 -41q110 0 174 62.5t67 185.5l-770 1257v-1255h-170z" />
    <glyph glyph-name="eng" unicode="&#x14b;" horiz-adv-x="1224" 
d="M172 0v1071h170v-170q40 81 129.5 135t214.5 54q175 0 276 -105t101 -328v-725q0 -158 -77 -237.5t-251 -85.5v143q86 7 122 49t36 117v752q0 141 -61.5 206.5t-190.5 65.5q-126 0 -212.5 -77.5t-86.5 -215.5v-649h-170z" />
    <glyph glyph-name="Omacron" unicode="&#x14c;" horiz-adv-x="1660" 
d="M113 723v16q0 155 52.5 291.5t146 236.5t229 158t293.5 58t292.5 -58t226.5 -157.5t143.5 -235t51.5 -289.5v-16q0 -154 -51.5 -291t-143 -237t-225.5 -158.5t-290 -58.5q-159 0 -295 58.5t-230 158t-147 235.5t-53 289zM297 725q0 -262 154.5 -429t386.5 -167
q242 0 384 165.5t142 434.5v16q0 166 -61 299.5t-183 214t-286 80.5q-167 0 -289.5 -77t-185 -211.5t-62.5 -309.5v-16zM557 1610v131h545v-131h-545z" />
    <glyph glyph-name="omacron" unicode="&#x14d;" horiz-adv-x="1236" 
d="M92 526v17q0 240 149 393.5t377 153.5q229 0 378 -152.5t149 -392.5v-17q0 -241 -149.5 -393.5t-379.5 -152.5q-228 0 -376 154.5t-148 389.5zM268 526q0 -184 94 -293.5t256 -109.5q160 0 255.5 110.5t95.5 292.5v15q0 186 -95.5 296.5t-255.5 110.5q-161 0 -255.5 -110
t-94.5 -295v-17zM350 1327v131h537v-131h-537z" />
    <glyph glyph-name="Obreve" unicode="&#x14e;" horiz-adv-x="1660" 
d="M113 723v16q0 155 52.5 291.5t146 236.5t229 158t293.5 58t292.5 -58t226.5 -157.5t143.5 -235t51.5 -289.5v-16q0 -154 -51.5 -291t-143 -237t-225.5 -158.5t-290 -58.5q-159 0 -295 58.5t-230 158t-147 235.5t-53 289zM297 725q0 -262 154.5 -429t386.5 -167
q242 0 384 165.5t142 434.5v16q0 166 -61 299.5t-183 214t-286 80.5q-167 0 -289.5 -77t-185 -211.5t-62.5 -309.5v-16zM555 1841h135q23 -131 135 -131q122 0 148 131h131q-6 -116 -87 -193t-192 -77q-110 0 -187 76.5t-83 193.5z" />
    <glyph glyph-name="obreve" unicode="&#x14f;" horiz-adv-x="1236" 
d="M92 526v17q0 240 149 393.5t377 153.5q229 0 378 -152.5t149 -392.5v-17q0 -241 -149.5 -393.5t-379.5 -152.5q-228 0 -376 154.5t-148 389.5zM268 526q0 -184 94 -293.5t256 -109.5q160 0 255.5 110.5t95.5 292.5v15q0 186 -95.5 296.5t-255.5 110.5q-161 0 -255.5 -110
t-94.5 -295v-17zM344 1538h135q23 -131 135 -131q122 0 148 131h131q-6 -116 -87 -193t-192 -77q-110 0 -187 76.5t-83 193.5z" />
    <glyph glyph-name="Ohungarumlaut" unicode="&#x150;" horiz-adv-x="1660" 
d="M113 723v16q0 155 52.5 291.5t146 236.5t229 158t293.5 58t292.5 -58t226.5 -157.5t143.5 -235t51.5 -289.5v-16q0 -154 -51.5 -291t-143 -237t-225.5 -158.5t-290 -58.5q-159 0 -295 58.5t-230 158t-147 235.5t-53 289zM297 725q0 -262 154.5 -429t386.5 -167
q242 0 384 165.5t142 434.5v16q0 166 -61 299.5t-183 214t-286 80.5q-167 0 -289.5 -77t-185 -211.5t-62.5 -309.5v-16zM600 1579l76 260h194l-147 -260h-123zM915 1579l76 260h195l-148 -260h-123z" />
    <glyph glyph-name="ohungarumlaut" unicode="&#x151;" horiz-adv-x="1236" 
d="M92 526v17q0 240 149 393.5t377 153.5q229 0 378 -152.5t149 -392.5v-17q0 -241 -149.5 -393.5t-379.5 -152.5q-228 0 -376 154.5t-148 389.5zM268 526q0 -184 94 -293.5t256 -109.5q160 0 255.5 110.5t95.5 292.5v15q0 186 -95.5 296.5t-255.5 110.5q-161 0 -255.5 -110
t-94.5 -295v-17zM389 1255l82 301h195l-154 -301h-123zM705 1255l81 301h195l-154 -301h-122z" />
    <glyph glyph-name="OE" unicode="&#x152;" horiz-adv-x="1955" 
d="M113 719v18q0 155 45.5 285.5t134.5 230t233.5 155.5t331.5 56h977v-145h-643v-498h512v-145h-512v-531h680v-145h-1018q-184 0 -327.5 54.5t-233 152.5t-135 227.5t-45.5 284.5zM297 719q0 -130 32.5 -233t99.5 -181t177 -120t258 -42h150v1176h-152q-277 0 -421 -155
t-144 -429v-16z" />
    <glyph glyph-name="oe" unicode="&#x153;" horiz-adv-x="2037" 
d="M92 526v17q0 240 149 393.5t377 153.5q149 0 261.5 -68.5t173.5 -190.5q58 122 164.5 190.5t250.5 68.5q97 0 181 -30.5t152.5 -91.5t108.5 -167t40 -244v-55h-807q6 -184 93.5 -281.5t250.5 -97.5q251 0 285 186h170q-27 -158 -149.5 -242.5t-307.5 -84.5
q-151 0 -262 66.5t-170 189.5q-62 -122 -175 -189t-262 -67q-228 0 -376 154.5t-148 389.5zM268 526q0 -184 94 -293.5t256 -109.5q160 0 255.5 110.5t95.5 292.5v15q0 186 -95.5 296.5t-255.5 110.5q-161 0 -255.5 -110t-94.5 -295v-17zM1149 639h627q-22 309 -308 309
q-129 0 -213 -82.5t-106 -226.5z" />
    <glyph glyph-name="Racute" unicode="&#x154;" horiz-adv-x="1286" 
d="M184 0v1464h441q109 0 199 -23t161.5 -70t111.5 -127t40 -187v-8q0 -171 -99.5 -269.5t-263.5 -130.5l449 -649h-199l-436 637h-226v-637h-178zM362 778h275q158 0 239.5 68.5t81.5 202.5v8q0 143 -81.5 203.5t-239.5 60.5h-275v-543zM559 1579l115 260h213l-201 -260
h-127z" />
    <glyph glyph-name="racute" unicode="&#x155;" horiz-adv-x="770" 
d="M172 0v1071h170v-192q56 100 136 153.5t216 57.5v-160q-86 -4 -146.5 -21t-109 -54.5t-72.5 -103.5t-24 -163v-588h-170zM344 1255l127 301h213l-213 -301h-127z" />
    <glyph glyph-name="Rcommaaccent" unicode="&#x156;" horiz-adv-x="1286" 
d="M184 0v1464h441q109 0 199 -23t161.5 -70t111.5 -127t40 -187v-8q0 -171 -99.5 -269.5t-263.5 -130.5l449 -649h-199l-436 637h-226v-637h-178zM362 778h275q158 0 239.5 68.5t81.5 202.5v8q0 143 -81.5 203.5t-239.5 60.5h-275v-543zM463 -397l119 321l163 -49
l-178 -326z" />
    <glyph glyph-name="rcommaaccent" unicode="&#x157;" horiz-adv-x="770" 
d="M80 -397l119 321l163 -49l-178 -326zM172 0v1071h170v-192q56 100 136 153.5t216 57.5v-160q-86 -4 -146.5 -21t-109 -54.5t-72.5 -103.5t-24 -163v-588h-170z" />
    <glyph glyph-name="Rcaron" unicode="&#x158;" horiz-adv-x="1286" 
d="M184 0v1464h441q109 0 199 -23t161.5 -70t111.5 -127t40 -187v-8q0 -171 -99.5 -269.5t-263.5 -130.5l449 -649h-199l-436 637h-226v-637h-178zM338 1839h125l174 -119l174 119h121l-221 -260h-154zM362 778h275q158 0 239.5 68.5t81.5 202.5v8q0 143 -81.5 203.5
t-239.5 60.5h-275v-543z" />
    <glyph glyph-name="rcaron" unicode="&#x159;" horiz-adv-x="770" 
d="M123 1550h125l174 -153l174 153h121l-221 -295h-154zM172 0v1071h170v-192q56 100 136 153.5t216 57.5v-160q-86 -4 -146.5 -21t-109 -54.5t-72.5 -103.5t-24 -163v-588h-170z" />
    <glyph glyph-name="Sacute" unicode="&#x15a;" horiz-adv-x="1284" 
d="M98 446h172q10 -73 29.5 -125t61 -99.5t116 -72t180.5 -24.5q143 0 238.5 76.5t95.5 199.5q0 127 -74 187.5t-280 93.5q-121 19 -207 47t-152 74t-98.5 116t-32.5 166q0 170 133 284t338 114q220 0 351 -104.5t153 -299.5h-159q-26 137 -109 198.5t-236 61.5
q-146 0 -225.5 -65.5t-79.5 -171.5q0 -58 13.5 -96t51 -71t107.5 -55.5t181 -39.5q259 -40 378 -134t119 -292q0 -185 -144 -308.5t-362 -123.5q-114 0 -205.5 24.5t-153 66.5t-104.5 102t-65.5 126.5t-30.5 144.5zM543 1579l114 260h213l-200 -260h-127z" />
    <glyph glyph-name="sacute" unicode="&#x15b;" horiz-adv-x="983" 
d="M84 330h166q9 -100 68.5 -153.5t183.5 -53.5q121 0 177 41.5t56 128.5q0 80 -58 117.5t-192 62.5q-209 38 -290.5 107t-81.5 208q0 58 21.5 107.5t57.5 85t83 60.5t98 37t102 12q75 0 138 -16.5t116.5 -51.5t87.5 -96.5t45 -145.5h-164q-19 88 -71.5 128t-153.5 40
q-92 0 -147.5 -42t-55.5 -111q0 -73 51.5 -108.5t198.5 -61.5q76 -14 125.5 -27t101.5 -37t82 -56t49 -82t19 -116q0 -150 -101 -237.5t-292 -87.5q-192 0 -302 91.5t-118 256.5zM412 1255l127 301h213l-213 -301h-127z" />
    <glyph glyph-name="Scircumflex" unicode="&#x15c;" horiz-adv-x="1284" 
d="M98 446h172q10 -73 29.5 -125t61 -99.5t116 -72t180.5 -24.5q143 0 238.5 76.5t95.5 199.5q0 127 -74 187.5t-280 93.5q-121 19 -207 47t-152 74t-98.5 116t-32.5 166q0 170 133 284t338 114q220 0 351 -104.5t153 -299.5h-159q-26 137 -109 198.5t-236 61.5
q-146 0 -225.5 -65.5t-79.5 -171.5q0 -58 13.5 -96t51 -71t107.5 -55.5t181 -39.5q259 -40 378 -134t119 -292q0 -185 -144 -308.5t-362 -123.5q-114 0 -205.5 24.5t-153 66.5t-104.5 102t-65.5 126.5t-30.5 144.5zM322 1579l221 260h153l219 -260h-124l-175 119l-174 -119
h-120z" />
    <glyph glyph-name="scircumflex" unicode="&#x15d;" horiz-adv-x="983" 
d="M84 330h166q9 -100 68.5 -153.5t183.5 -53.5q121 0 177 41.5t56 128.5q0 80 -58 117.5t-192 62.5q-209 38 -290.5 107t-81.5 208q0 58 21.5 107.5t57.5 85t83 60.5t98 37t102 12q75 0 138 -16.5t116.5 -51.5t87.5 -96.5t45 -145.5h-164q-19 88 -71.5 128t-153.5 40
q-92 0 -147.5 -42t-55.5 -111q0 -73 51.5 -108.5t198.5 -61.5q76 -14 125.5 -27t101.5 -37t82 -56t49 -82t19 -116q0 -150 -101 -237.5t-292 -87.5q-192 0 -302 91.5t-118 256.5zM190 1255l222 295h153l219 -295h-125l-174 154l-174 -154h-121z" />
    <glyph glyph-name="Scedilla" unicode="&#x15e;" horiz-adv-x="1284" 
d="M98 446h172q10 -73 29.5 -125t61 -99.5t116 -72t180.5 -24.5q143 0 238.5 76.5t95.5 199.5q0 127 -74 187.5t-280 93.5q-121 19 -207 47t-152 74t-98.5 116t-32.5 166q0 170 133 284t338 114q220 0 351 -104.5t153 -299.5h-159q-26 137 -109 198.5t-236 61.5
q-146 0 -225.5 -65.5t-79.5 -171.5q0 -58 13.5 -96t51 -71t107.5 -55.5t181 -39.5q259 -40 378 -134t119 -292q0 -185 -144 -308.5t-362 -123.5l-49 -91q77 10 135 -33.5t58 -131.5q0 -79 -59 -121.5t-148 -42.5q-88 0 -143.5 47.5t-61.5 124.5h111q7 -32 29.5 -53t58.5 -21
q38 0 60 20.5t22 53.5q0 32 -20.5 50.5t-53.5 18.5q-30 0 -57 -16l-66 57l78 144q-113 13 -198 54t-136.5 104t-80 136.5t-38.5 163.5z" />
    <glyph glyph-name="scedilla" unicode="&#x15f;" horiz-adv-x="983" 
d="M84 330h166q9 -100 68.5 -153.5t183.5 -53.5q121 0 177 41.5t56 128.5q0 80 -58 117.5t-192 62.5q-209 38 -290.5 107t-81.5 208q0 58 21.5 107.5t57.5 85t83 60.5t98 37t102 12q75 0 138 -16.5t116.5 -51.5t87.5 -96.5t45 -145.5h-164q-19 88 -71.5 128t-153.5 40
q-92 0 -147.5 -42t-55.5 -111q0 -73 51.5 -108.5t198.5 -61.5q76 -14 125.5 -27t101.5 -37t82 -56t49 -82t19 -116q0 -145 -95 -232t-274 -93l-49 -91q77 10 135 -33.5t58 -131.5q0 -79 -59 -121.5t-148 -42.5q-88 0 -143.5 47.5t-61.5 124.5h111q7 -32 29.5 -53t58.5 -21
q38 0 60 20.5t22 53.5q0 32 -20.5 50.5t-53.5 18.5q-30 0 -57 -16l-66 57l78 144q-155 17 -243.5 106.5t-94.5 235.5z" />
    <glyph glyph-name="Scaron" unicode="&#x160;" horiz-adv-x="1284" 
d="M98 446h172q10 -73 29.5 -125t61 -99.5t116 -72t180.5 -24.5q143 0 238.5 76.5t95.5 199.5q0 127 -74 187.5t-280 93.5q-121 19 -207 47t-152 74t-98.5 116t-32.5 166q0 170 133 284t338 114q220 0 351 -104.5t153 -299.5h-159q-26 137 -109 198.5t-236 61.5
q-146 0 -225.5 -65.5t-79.5 -171.5q0 -58 13.5 -96t51 -71t107.5 -55.5t181 -39.5q259 -40 378 -134t119 -292q0 -185 -144 -308.5t-362 -123.5q-114 0 -205.5 24.5t-153 66.5t-104.5 102t-65.5 126.5t-30.5 144.5zM322 1839h124l175 -119l174 119h120l-221 -260h-153z" />
    <glyph glyph-name="scaron" unicode="&#x161;" horiz-adv-x="983" 
d="M84 330h166q9 -100 68.5 -153.5t183.5 -53.5q121 0 177 41.5t56 128.5q0 80 -58 117.5t-192 62.5q-209 38 -290.5 107t-81.5 208q0 58 21.5 107.5t57.5 85t83 60.5t98 37t102 12q75 0 138 -16.5t116.5 -51.5t87.5 -96.5t45 -145.5h-164q-19 88 -71.5 128t-153.5 40
q-92 0 -147.5 -42t-55.5 -111q0 -73 51.5 -108.5t198.5 -61.5q76 -14 125.5 -27t101.5 -37t82 -56t49 -82t19 -116q0 -150 -101 -237.5t-292 -87.5q-192 0 -302 91.5t-118 256.5zM190 1550h125l174 -153l175 153h120l-221 -295h-153z" />
    <glyph glyph-name="Tcommaaccent" unicode="&#x162;" horiz-adv-x="1148" 
d="M59 1319v145h1031v-145h-426v-1319h-179v1319h-426zM401 -397l119 321l164 -49l-178 -326z" />
    <glyph glyph-name="tcommaaccent" unicode="&#x163;" horiz-adv-x="727" 
d="M55 928v143h154v244h170v-244h250v-143h-250v-643q0 -156 133 -156q70 0 131 23v-144q-64 -22 -145 -22q-142 0 -215.5 76t-73.5 206v660h-154zM219 -397l119 321l164 -49l-178 -326z" />
    <glyph glyph-name="Tcaron" unicode="&#x164;" horiz-adv-x="1148" 
d="M59 1319v145h1031v-145h-426v-1319h-179v1319h-426zM276 1839h125l174 -119l175 119h120l-221 -260h-153z" />
    <glyph glyph-name="tcaron" unicode="&#x165;" horiz-adv-x="727" 
d="M55 928v143h154v244h170v-244h250v-143h-250v-643q0 -156 133 -156q70 0 131 23v-144q-64 -22 -145 -22q-142 0 -215.5 76t-73.5 206v660h-154zM526 1225l25 358h192l-98 -358h-119z" />
    <glyph glyph-name="Tbar" unicode="&#x166;" horiz-adv-x="1148" 
d="M59 1319v145h1031v-145h-426v-492h297v-135h-297v-692h-179v692h-297v135h297v492h-426z" />
    <glyph glyph-name="tbar" unicode="&#x167;" horiz-adv-x="727" 
d="M55 573v121h154v234h-154v143h154v244h170v-244h250v-143h-250v-234h250v-121h-250v-288q0 -156 133 -156q70 0 131 23v-144q-64 -22 -145 -22q-142 0 -215.5 76t-73.5 206v305h-154z" />
    <glyph glyph-name="Utilde" unicode="&#x168;" horiz-adv-x="1425" 
d="M172 535v929h178v-909q0 -228 83.5 -327t268.5 -99q92 0 157.5 21t115.5 71t75 139.5t25 221.5v882h178v-907q0 -274 -139 -424.5t-416 -150.5q-252 0 -389 143.5t-137 409.5zM397 1581q12 108 69.5 173t137.5 65q37 0 79 -22t79 -44t61 -22q29 0 51.5 26t30.5 66h123
q-12 -108 -69 -173t-136 -65q-37 0 -80 22t-80 44t-61 22q-29 0 -51.5 -26t-30.5 -66h-123z" />
    <glyph glyph-name="utilde" unicode="&#x169;" horiz-adv-x="1216" 
d="M162 393v678h170v-670q0 -140 60.5 -206t187.5 -66q122 0 208 77.5t86 215.5v649h170v-1071h-170v170q-40 -81 -128.5 -134.5t-210.5 -53.5q-170 0 -271.5 100t-101.5 311zM293 1264q12 108 69.5 172.5t137.5 64.5q37 0 79 -22t79 -44t61 -22q29 0 51.5 26t30.5 66h123
q-12 -107 -69 -172t-136 -65q-37 0 -80 22t-80 44t-61 22q-29 0 -51.5 -26t-30.5 -66h-123z" />
    <glyph glyph-name="Umacron" unicode="&#x16a;" horiz-adv-x="1425" 
d="M172 535v929h178v-909q0 -228 83.5 -327t268.5 -99q92 0 157.5 21t115.5 71t75 139.5t25 221.5v882h178v-907q0 -274 -139 -424.5t-416 -150.5q-252 0 -389 143.5t-137 409.5zM440 1610v131h545v-131h-545z" />
    <glyph glyph-name="umacron" unicode="&#x16b;" horiz-adv-x="1216" 
d="M162 393v678h170v-670q0 -140 60.5 -206t187.5 -66q122 0 208 77.5t86 215.5v649h170v-1071h-170v170q-40 -81 -128.5 -134.5t-210.5 -53.5q-170 0 -271.5 100t-101.5 311zM340 1327v131h537v-131h-537z" />
    <glyph glyph-name="Ubreve" unicode="&#x16c;" horiz-adv-x="1425" 
d="M172 535v929h178v-909q0 -228 83.5 -327t268.5 -99q92 0 157.5 21t115.5 71t75 139.5t25 221.5v882h178v-907q0 -274 -139 -424.5t-416 -150.5q-252 0 -389 143.5t-137 409.5zM438 1841h135q23 -131 136 -131q121 0 147 131h131q-6 -116 -86.5 -193t-191.5 -77t-188 76.5
t-83 193.5z" />
    <glyph glyph-name="ubreve" unicode="&#x16d;" horiz-adv-x="1216" 
d="M162 393v678h170v-670q0 -140 60.5 -206t187.5 -66q122 0 208 77.5t86 215.5v649h170v-1071h-170v170q-40 -81 -128.5 -134.5t-210.5 -53.5q-170 0 -271.5 100t-101.5 311zM334 1538h135q23 -131 135 -131q122 0 148 131h131q-6 -116 -87 -193t-192 -77q-110 0 -187 76.5
t-83 193.5z" />
    <glyph glyph-name="Uring" unicode="&#x16e;" horiz-adv-x="1425" 
d="M172 535v929h178v-909q0 -228 83.5 -327t268.5 -99q92 0 157.5 21t115.5 71t75 139.5t25 221.5v882h178v-907q0 -274 -139 -424.5t-416 -150.5q-252 0 -389 143.5t-137 409.5zM494 1726q0 88 64 150.5t155 62.5t155 -62.5t64 -150.5t-64 -150.5t-155 -62.5t-155 62.5
t-64 150.5zM604 1726q0 -51 31 -84.5t78 -33.5t77.5 33.5t30.5 84.5t-30.5 85t-77.5 34t-78 -34t-31 -85z" />
    <glyph glyph-name="uring" unicode="&#x16f;" horiz-adv-x="1216" 
d="M162 393v678h170v-670q0 -140 60.5 -206t187.5 -66q122 0 208 77.5t86 215.5v649h170v-1071h-170v170q-40 -81 -128.5 -134.5t-210.5 -53.5q-170 0 -271.5 100t-101.5 311zM383 1376q0 88 64 150.5t155 62.5t155 -62.5t64 -150.5t-64 -150.5t-155 -62.5t-155 62.5
t-64 150.5zM494 1376q0 -51 30.5 -85t77.5 -34t78 34t31 85t-31 85t-78 34t-77.5 -34t-30.5 -85z" />
    <glyph glyph-name="Uhungarumlaut" unicode="&#x170;" horiz-adv-x="1425" 
d="M172 535v929h178v-909q0 -228 83.5 -327t268.5 -99q92 0 157.5 21t115.5 71t75 139.5t25 221.5v882h178v-907q0 -274 -139 -424.5t-416 -150.5q-252 0 -389 143.5t-137 409.5zM483 1579l76 260h195l-148 -260h-123zM799 1579l75 260h195l-147 -260h-123z" />
    <glyph glyph-name="uhungarumlaut" unicode="&#x171;" horiz-adv-x="1216" 
d="M162 393v678h170v-670q0 -140 60.5 -206t187.5 -66q122 0 208 77.5t86 215.5v649h170v-1071h-170v170q-40 -81 -128.5 -134.5t-210.5 -53.5q-170 0 -271.5 100t-101.5 311zM379 1255l82 301h194l-153 -301h-123zM694 1255l82 301h195l-154 -301h-123z" />
    <glyph glyph-name="Uogonek" unicode="&#x172;" horiz-adv-x="1425" 
d="M172 535v929h178v-909q0 -228 83.5 -327t268.5 -99q92 0 157.5 21t115.5 71t75 139.5t25 221.5v882h178v-907q0 -194 -69.5 -326t-202.5 -194q-135 -64 -175 -94q-71 -52 -71 -119q0 -74 78 -74q62 0 107 23v-121q-62 -25 -134 -25q-96 0 -154.5 44t-58.5 120
q0 56 35 105.5t92 85.5h-2q-252 0 -389 143.5t-137 409.5z" />
    <glyph glyph-name="uogonek" unicode="&#x173;" horiz-adv-x="1216" 
d="M162 393v678h170v-670q0 -140 60.5 -206t187.5 -66q122 0 208 77.5t86 215.5v649h170v-1061q-83 -52 -119 -95.5t-36 -90.5q0 -74 78 -74q61 0 106 23v-121q-62 -25 -133 -25q-96 0 -154.5 44t-58.5 120q0 61 41 115t106 88v176q-40 -81 -128.5 -134.5t-210.5 -53.5
q-170 0 -271.5 100t-101.5 311z" />
    <glyph glyph-name="Wcircumflex" unicode="&#x174;" horiz-adv-x="1900" 
d="M70 1464h182l297 -1181l344 1181h127l344 -1185l301 1185h166l-381 -1464h-164l-332 1157l-342 -1157h-161zM653 1579l221 260h154l219 -260h-125l-174 119l-174 -119h-121z" />
    <glyph glyph-name="wcircumflex" unicode="&#x175;" horiz-adv-x="1626" 
d="M57 1071h185l250 -862l260 862h147l244 -862l252 862h174l-334 -1071h-188l-224 803l-250 -803h-186zM516 1255l221 295h154l219 -295h-125l-174 154l-174 -154h-121z" />
    <glyph glyph-name="Ycircumflex" unicode="&#x176;" horiz-adv-x="1224" 
d="M47 1464h201l383 -680l368 680h179l-463 -827v-637h-178v639zM315 1579l222 260h153l219 -260h-125l-174 119l-174 -119h-121z" />
    <glyph glyph-name="ycircumflex" unicode="&#x177;" horiz-adv-x="1083" 
d="M51 1071h182l328 -768l297 768h174l-592 -1444h-172l203 484zM244 1255l221 295h153l220 -295h-125l-174 154l-174 -154h-121z" />
    <glyph glyph-name="Ydieresis" unicode="&#x178;" horiz-adv-x="1224" 
d="M47 1464h201l383 -680l368 680h179l-463 -827v-637h-178v639zM295 1724q0 44 32 76.5t76 32.5t76.5 -32.5t32.5 -76.5t-32.5 -76t-76.5 -32t-76 32t-32 76zM711 1724q0 44 32 76.5t76 32.5t76.5 -32.5t32.5 -76.5t-32.5 -76t-76.5 -32t-76 32t-32 76z" />
    <glyph glyph-name="Zacute" unicode="&#x179;" horiz-adv-x="1218" 
d="M57 0v29l830 1290h-756v145h1002v-26l-807 -1286h794v-152h-1063zM528 1579l115 260h213l-201 -260h-127z" />
    <glyph glyph-name="zacute" unicode="&#x17a;" horiz-adv-x="989" 
d="M43 0v25l633 903h-572v143h834v-31l-619 -890h611v-150h-887zM432 1255l127 301h213l-213 -301h-127z" />
    <glyph glyph-name="Zdotaccent" unicode="&#x17b;" horiz-adv-x="1218" 
d="M57 0v29l830 1290h-756v145h1002v-26l-807 -1286h794v-152h-1063zM492 1724q0 46 33 79.5t79 33.5t79.5 -33.5t33.5 -79.5t-33.5 -79t-79.5 -33t-79 33t-33 79z" />
    <glyph glyph-name="zdotaccent" unicode="&#x17c;" horiz-adv-x="989" 
d="M43 0v25l633 903h-572v143h834v-31l-619 -890h611v-150h-887zM395 1407q0 46 33.5 79.5t79.5 33.5t79.5 -33.5t33.5 -79.5t-33.5 -79.5t-79.5 -33.5t-79.5 33.5t-33.5 79.5z" />
    <glyph glyph-name="Zcaron" unicode="&#x17d;" horiz-adv-x="1218" 
d="M57 0v29l830 1290h-756v145h1002v-26l-807 -1286h794v-152h-1063zM307 1839h125l174 -119l174 119h121l-221 -260h-154z" />
    <glyph glyph-name="zcaron" unicode="&#x17e;" horiz-adv-x="989" 
d="M43 0v25l633 903h-572v143h834v-31l-619 -890h611v-150h-887zM211 1550h125l174 -153l174 153h121l-221 -295h-154z" />
    <glyph glyph-name="florin" unicode="&#x192;" horiz-adv-x="813" 
d="M59 707v139h199l47 311q51 326 346 326q76 0 140 -23v-143q-62 24 -136 24q-154 0 -182 -192l-47 -303h270v-139h-290l-164 -1080h-170l164 1080h-177z" />
    <glyph glyph-name="Aringacute" unicode="&#x1fa;" horiz-adv-x="1380" 
d="M74 0l504 1464h233l496 -1464h-177l-143 422h-604l-141 -422h-168zM432 563h508l-254 754zM485 1747q0 88 64.5 150.5t155.5 62.5t155 -62.5t64 -150.5t-64 -150.5t-155 -62.5t-155.5 62.5t-64.5 150.5zM596 1747q0 -51 31 -85t78 -34t77.5 34t30.5 85t-30.5 85t-77.5 34
t-78 -34t-31 -85zM637 2019l115 260h213l-201 -260h-127z" />
    <glyph glyph-name="aringacute" unicode="&#x1fb;" horiz-adv-x="1105" 
d="M84 297q0 89 44.5 155.5t122 104t170 55t200.5 17.5h153v78q0 128 -53 184.5t-176 56.5q-223 0 -246 -192h-170q8 88 46 154.5t97.5 104.5t129.5 56.5t151 18.5q65 0 120 -11t106 -38t86.5 -69.5t57 -110t21.5 -154.5v-707h-170v135q-62 -78 -140.5 -115.5t-193.5 -37.5
q-103 0 -181 32t-126.5 104.5t-48.5 178.5zM254 297q0 -88 47.5 -134t155.5 -46q139 0 228 68.5t89 189.5v133h-147q-373 0 -373 -211zM340 1397q0 88 64 150.5t155 62.5t155 -62.5t64 -150.5t-64 -150.5t-155 -62.5t-155 62.5t-64 150.5zM451 1397q0 -51 30.5 -85t77.5 -34
t78 34t31 85t-31 85t-78 34t-77.5 -34t-30.5 -85zM506 1698l115 260h213l-201 -260h-127z" />
    <glyph glyph-name="AEacute" unicode="&#x1fc;" horiz-adv-x="1945" 
d="M59 0l758 1464h1008v-145h-676v-498h545v-145h-545v-531h713v-145h-891v424h-516l-215 -424h-181zM524 563h447v756h-64zM1174 1579l114 260h213l-201 -260h-126z" />
    <glyph glyph-name="aeacute" unicode="&#x1fd;" horiz-adv-x="1802" 
d="M84 297q0 90 43.5 157.5t119.5 106t167.5 56.5t199.5 18h160v70q0 127 -55 185t-174 58q-223 0 -246 -192h-170q8 88 46 154.5t97.5 104.5t129.5 56.5t151 18.5q255 0 336 -183q130 183 360 183q74 0 140 -18t126 -58.5t104 -101t69.5 -151.5t25.5 -204v-51h-776
q6 -186 88 -284.5t238 -98.5q238 0 272 186h170q-27 -158 -146.5 -242.5t-297.5 -84.5q-134 0 -238 58t-166 163q-74 -116 -172.5 -168.5t-245.5 -52.5q-103 0 -181 32t-126.5 104.5t-48.5 178.5zM254 297q0 -88 47.5 -134t155.5 -46q139 0 228 68.5t89 189.5v131h-153
q-367 0 -367 -209zM834 1255l127 301h213l-213 -301h-127zM944 635h596q-12 164 -85.5 238.5t-205.5 74.5q-124 0 -204.5 -83.5t-100.5 -229.5z" />
    <glyph glyph-name="Oslashacute" unicode="&#x1fe;" horiz-adv-x="1660" 
d="M72 25l200 219q-159 201 -159 479v16q0 155 52.5 291.5t146 236.5t229 158t293.5 58q251 0 438 -144l166 181l92 -93l-162 -178q87 -99 133.5 -229t46.5 -277v-16q0 -154 -51.5 -291t-143 -237t-225.5 -158.5t-290 -58.5q-277 0 -476 168l-198 -218zM297 725
q0 -206 90 -354l782 856q-134 112 -335 112q-167 0 -289.5 -77t-185 -211.5t-62.5 -309.5v-16zM471 268q142 -139 367 -139q242 0 384 165.5t142 434.5v16q0 229 -107 385zM756 1579l114 260h213l-200 -260h-127z" />
    <glyph glyph-name="oslashacute" unicode="&#x1ff;" horiz-adv-x="1236" 
d="M47 2l158 174q-113 144 -113 350v17q0 240 149 393.5t377 153.5q186 0 320 -103l139 152l90 -78l-143 -158q121 -150 121 -358v-17q0 -241 -149.5 -393.5t-379.5 -152.5q-189 0 -327 110l-152 -168zM268 526q0 -133 49 -227l519 573q-88 76 -218 76q-161 0 -255.5 -110
t-94.5 -295v-17zM389 205q91 -82 229 -82q160 0 255.5 110.5t95.5 292.5v15q0 133 -56 239zM541 1255l127 301h213l-213 -301h-127z" />
    <glyph glyph-name="Scommaaccent" unicode="&#x218;" horiz-adv-x="1284" 
d="M98 446h172q10 -73 29.5 -125t61 -99.5t116 -72t180.5 -24.5q143 0 238.5 76.5t95.5 199.5q0 127 -74 187.5t-280 93.5q-121 19 -207 47t-152 74t-98.5 116t-32.5 166q0 170 133 284t338 114q220 0 351 -104.5t153 -299.5h-159q-26 137 -109 198.5t-236 61.5
q-146 0 -225.5 -65.5t-79.5 -171.5q0 -58 13.5 -96t51 -71t107.5 -55.5t181 -39.5q259 -40 378 -134t119 -292q0 -185 -144 -308.5t-362 -123.5q-114 0 -205.5 24.5t-153 66.5t-104.5 102t-65.5 126.5t-30.5 144.5zM446 -397l119 321l164 -49l-178 -326z" />
    <glyph glyph-name="scommaaccent" unicode="&#x219;" horiz-adv-x="983" 
d="M84 330h166q9 -100 68.5 -153.5t183.5 -53.5q121 0 177 41.5t56 128.5q0 80 -58 117.5t-192 62.5q-209 38 -290.5 107t-81.5 208q0 58 21.5 107.5t57.5 85t83 60.5t98 37t102 12q75 0 138 -16.5t116.5 -51.5t87.5 -96.5t45 -145.5h-164q-19 88 -71.5 128t-153.5 40
q-92 0 -147.5 -42t-55.5 -111q0 -73 51.5 -108.5t198.5 -61.5q76 -14 125.5 -27t101.5 -37t82 -56t49 -82t19 -116q0 -150 -101 -237.5t-292 -87.5q-192 0 -302 91.5t-118 256.5zM315 -397l119 321l164 -49l-178 -326z" />
    <glyph glyph-name="uni0237" unicode="&#x237;" horiz-adv-x="522" 
d="M18 -248q86 7 122 49t36 117v1153h170v-1139q0 -158 -77 -237.5t-251 -85.5v143z" />
    <glyph glyph-name="circumflex" unicode="&#x2c6;" horiz-adv-x="819" 
d="M113 1255l221 295h153l220 -295h-125l-174 154l-175 -154h-120z" />
    <glyph glyph-name="caron" unicode="&#x2c7;" horiz-adv-x="819" 
d="M113 1550h125l174 -153l174 153h121l-222 -295h-153z" />
    <glyph glyph-name="breve" unicode="&#x2d8;" horiz-adv-x="819" 
d="M135 1538h135q23 -131 136 -131q121 0 147 131h131q-6 -116 -86.5 -193t-191.5 -77t-188 76.5t-83 193.5z" />
    <glyph glyph-name="dotaccent" unicode="&#x2d9;" horiz-adv-x="819" 
d="M297 1407q0 46 33.5 79.5t79.5 33.5t79 -33.5t33 -79.5t-33 -79.5t-79 -33.5t-79.5 33.5t-33.5 79.5z" />
    <glyph glyph-name="ring" unicode="&#x2da;" horiz-adv-x="819" 
d="M190 1438q0 88 64.5 150.5t155.5 62.5t155 -62.5t64 -150.5t-64 -150.5t-155 -62.5t-155.5 62.5t-64.5 150.5zM301 1438q0 -51 31 -85t78 -34t77.5 34t30.5 85t-30.5 84.5t-77.5 33.5t-78 -33.5t-31 -84.5z" />
    <glyph glyph-name="ogonek" unicode="&#x2db;" horiz-adv-x="819" 
d="M244 -209q0 63 45 119t114 90h142q-71 -47 -105 -88.5t-34 -87.5q0 -74 77 -74q62 0 107 23v-121q-62 -25 -133 -25q-96 0 -154.5 44t-58.5 120z" />
    <glyph glyph-name="tilde" unicode="&#x2dc;" horiz-adv-x="819" 
d="M94 1264q12 108 69.5 172.5t137.5 64.5q37 0 79 -22t79 -44t61 -22q29 0 51.5 26t30.5 66h123q-12 -107 -69 -172t-136 -65q-37 0 -80 22t-80 44t-61 22q-29 0 -51.5 -26t-30.5 -66h-123z" />
    <glyph glyph-name="hungarumlaut" unicode="&#x2dd;" horiz-adv-x="819" 
d="M197 1255l82 301h194l-154 -301h-122zM512 1255l82 301h194l-153 -301h-123z" />
    <glyph glyph-name="afii10023" unicode="&#x401;" horiz-adv-x="1159" 
d="M184 0v1464h854v-145h-676v-498h545v-145h-545v-531h713v-145h-891zM309 1724q0 44 32.5 76.5t76.5 32.5t76 -32.5t32 -76.5t-32 -76t-76 -32t-76.5 32t-32.5 76zM725 1724q0 44 32.5 76.5t76.5 32.5t76 -32.5t32 -76.5t-32 -76t-76 -32t-76.5 32t-32.5 76z" />
    <glyph glyph-name="afii10051" unicode="&#x402;" horiz-adv-x="1579" 
d="M59 1319v145h1051v-145h-446v-557q137 127 356 127q221 0 341 -118.5t120 -338.5q0 -119 -29.5 -208t-81 -140.5t-113.5 -76.5t-135 -25q-109 0 -172 38v148q73 -41 150 -41q93 0 149 73t56 230q0 159 -74 239.5t-236 80.5q-187 0 -331 -166v-584h-179v1319h-426z" />
    <glyph glyph-name="afii10052" unicode="&#x403;" horiz-adv-x="1097" 
d="M184 0v1464h836v-151h-658v-1313h-178zM535 1579l114 260h213l-200 -260h-127z" />
    <glyph glyph-name="afii10053" unicode="&#x404;" horiz-adv-x="1495" 
d="M113 723v16q0 214 88.5 385t246 267t353.5 96q156 0 282.5 -52.5t211.5 -162.5t100 -264h-176q-28 170 -129.5 254t-286.5 84q-211 0 -346.5 -141.5t-155.5 -383.5h709v-145h-711q11 -258 143.5 -403.5t358.5 -145.5q183 0 299 91t143 267h166q-37 -248 -198.5 -375.5
t-413.5 -127.5q-317 0 -500.5 200.5t-183.5 540.5z" />
    <glyph glyph-name="afii10054" unicode="&#x405;" horiz-adv-x="1284" 
d="M98 446h172q10 -73 29.5 -125t61 -99.5t116 -72t180.5 -24.5q143 0 238.5 76.5t95.5 199.5q0 127 -74 187.5t-280 93.5q-121 19 -207 47t-152 74t-98.5 116t-32.5 166q0 170 133 284t338 114q220 0 351 -104.5t153 -299.5h-159q-26 137 -109 198.5t-236 61.5
q-146 0 -225.5 -65.5t-79.5 -171.5q0 -58 13.5 -96t51 -71t107.5 -55.5t181 -39.5q259 -40 378 -134t119 -292q0 -185 -144 -308.5t-362 -123.5q-114 0 -205.5 24.5t-153 66.5t-104.5 102t-65.5 126.5t-30.5 144.5z" />
    <glyph glyph-name="afii10055" unicode="&#x406;" horiz-adv-x="567" 
d="M195 0v1464h178v-1464h-178z" />
    <glyph glyph-name="afii10056" unicode="&#x407;" horiz-adv-x="567" 
d="M-35 1724q0 44 32.5 76.5t76.5 32.5t76 -32.5t32 -76.5t-32 -76t-76 -32t-76.5 32t-32.5 76zM195 0v1464h178v-1464h-178zM381 1724q0 44 32 76.5t76 32.5t76.5 -32.5t32.5 -76.5t-32.5 -76t-76.5 -32t-76 32t-32 76z" />
    <glyph glyph-name="afii10057" unicode="&#x408;" horiz-adv-x="860" 
d="M78 20v148q94 -41 194 -41q113 0 175.5 68t62.5 211v1058h178v-1067q0 -107 -31.5 -188t-87.5 -130t-128 -73t-158 -24q-131 0 -205 38z" />
    <glyph glyph-name="afii10058" unicode="&#x409;" horiz-adv-x="2013" 
d="M51 0v172q25 -8 80 -8q85 0 124.5 86.5t55.5 277.5q14 180 22.5 414t10.5 378l2 144h860v-596h217q86 0 160.5 -14t140 -46t112 -80t73 -120.5t26.5 -163.5v-8q0 -111 -40 -196t-111 -136.5t-162 -77.5t-199 -26h-395v1315h-518q-9 -428 -33 -801q-5 -89 -17.5 -162.5
t-38 -144t-62.5 -118t-95.5 -76.5t-132.5 -29q-24 0 -44 4t-28 8zM1206 143h230q321 0 321 293v8q0 140 -81.5 211.5t-239.5 71.5h-230v-584z" />
    <glyph glyph-name="afii10059" unicode="&#x40a;" horiz-adv-x="2095" 
d="M184 0v1464h178v-663h748v663h178v-596h217q86 0 160.5 -14t140 -46t112 -80t73 -120.5t26.5 -163.5v-8q0 -111 -40 -196t-111 -136.5t-162 -77.5t-199 -26h-395v651h-748v-651h-178zM1288 143h230q321 0 321 293v8q0 140 -81.5 211.5t-239.5 71.5h-230v-584z" />
    <glyph glyph-name="afii10060" unicode="&#x40b;" horiz-adv-x="1599" 
d="M59 1319v145h1051v-145h-446v-555q4 5 12.5 13.5t39 30t66.5 38t96 30t126 13.5q232 0 345 -128.5t113 -395.5v-365h-178v383q0 189 -66 278t-233 89q-65 0 -122 -15.5t-92 -38t-60.5 -45t-36.5 -37.5l-10 -16v-598h-179v1319h-426z" />
    <glyph glyph-name="afii10061" unicode="&#x40c;" horiz-adv-x="1261" 
d="M184 0v1464h178v-704l637 706h199l-651 -712l684 -754h-215l-654 715v-715h-178zM575 1579l115 260h213l-201 -260h-127z" />
    <glyph glyph-name="afii10062" unicode="&#x40e;" horiz-adv-x="1204" 
d="M41 1464h186l391 -913l398 913h168l-494 -1118q-30 -68 -55.5 -116t-63 -97.5t-78.5 -80t-98.5 -49.5t-126.5 -19q-24 0 -44 4t-28 8l-8 4v162q25 -8 80 -8q88 0 149.5 45t110.5 147zM362 1841h148q5 -66 35 -108.5t88 -42.5q61 0 95 42t40 109h143q-6 -116 -86.5 -193
t-191.5 -77t-188 76.5t-83 193.5z" />
    <glyph glyph-name="afii10145" unicode="&#x40f;" horiz-adv-x="1474" 
d="M184 0v1464h178v-1314h750v1314h178v-1464h-475l-4 -266h-147l-5 266h-475z" />
    <glyph glyph-name="afii10017" unicode="&#x410;" horiz-adv-x="1380" 
d="M74 0l504 1464h233l496 -1464h-177l-143 422h-604l-141 -422h-168zM432 563h508l-254 754z" />
    <glyph glyph-name="afii10018" unicode="&#x411;" horiz-adv-x="1273" 
d="M184 0v1464h865v-145h-691v-473h326q230 0 356.5 -101.5t126.5 -314.5v-8q0 -204 -128.5 -313t-352.5 -109h-502zM358 139h324q157 0 234 73t77 210v8q0 277 -327 277h-308v-568z" />
    <glyph glyph-name="afii10019" unicode="&#x412;" horiz-adv-x="1273" 
d="M184 0v1464h441q85 0 154 -11.5t129 -39t101 -70t64 -108t23 -150.5v-8q0 -234 -222 -309q157 -38 225 -121.5t68 -228.5v-8q0 -202 -127.5 -306t-353.5 -104h-502zM358 139h324q311 0 311 273v8q0 136 -80.5 201t-255.5 65h-299v-547zM358 825h267q160 0 228.5 61
t68.5 197v9q0 123 -72.5 178t-228.5 55h-263v-500z" />
    <glyph glyph-name="afii10020" unicode="&#x413;" horiz-adv-x="1097" 
d="M184 0v1464h836v-151h-658v-1313h-178z" />
    <glyph glyph-name="afii10021" unicode="&#x414;" horiz-adv-x="1427" 
d="M20 150h93q73 23 106.5 112t52.5 266q16 180 27 414t15 378l3 144h906v-1314h163v-416h-147l-10 266h-1051l-10 -266h-148v416zM336 150h713v1169h-574q-22 -502 -43 -805q-17 -252 -96 -364z" />
    <glyph glyph-name="afii10022" unicode="&#x415;" horiz-adv-x="1159" 
d="M184 0v1464h854v-145h-676v-498h545v-145h-545v-531h713v-145h-891z" />
    <glyph glyph-name="afii10024" unicode="&#x416;" horiz-adv-x="1800" 
d="M43 0l596 743l-580 723h199l555 -710v708h174v-708l555 710h195l-572 -712l600 -754h-206l-572 719v-719h-174v719l-571 -719h-199z" />
    <glyph glyph-name="afii10025" unicode="&#x417;" horiz-adv-x="1218" 
d="M82 446h172q7 -56 20.5 -100.5t39 -87t62.5 -71t94 -45.5t130 -17q164 0 250 82t86 223q0 136 -78 196t-268 60h-187v135h187q147 0 214.5 71.5t67.5 197.5q0 118 -68.5 183.5t-203.5 65.5t-206 -61t-97 -199h-160q22 196 143 300t332 104q195 0 315 -106.5t120 -286.5
q0 -114 -62.5 -204t-179.5 -124q151 -21 229 -108.5t78 -223.5q0 -195 -142 -321.5t-370 -126.5q-126 0 -223 36.5t-157 102.5t-93.5 146.5t-44.5 178.5z" />
    <glyph glyph-name="afii10026" unicode="&#x418;" horiz-adv-x="1515" 
d="M184 0v1464h178v-1218l791 1218h178v-1464h-178v1219l-791 -1219h-178z" />
    <glyph glyph-name="afii10027" unicode="&#x419;" horiz-adv-x="1515" 
d="M184 0v1464h178v-1218l791 1218h178v-1464h-178v1219l-791 -1219h-178zM487 1841h148q5 -66 35 -108.5t88 -42.5q61 0 95 42t40 109h143q-6 -116 -86.5 -193t-191.5 -77t-188 76.5t-83 193.5z" />
    <glyph glyph-name="afii10028" unicode="&#x41a;" horiz-adv-x="1261" 
d="M184 0v1464h178v-704l637 706h199l-651 -712l684 -754h-215l-654 715v-715h-178z" />
    <glyph glyph-name="afii10029" unicode="&#x41b;" horiz-adv-x="1411" 
d="M51 0v172q25 -8 80 -8q85 0 124.5 86.5t55.5 277.5q14 180 22.5 414t10.5 378l2 144h881v-1464h-178v1315h-539q-9 -428 -33 -801q-5 -89 -17.5 -162.5t-38 -144t-62.5 -118t-95.5 -76.5t-132.5 -29q-24 0 -44 4t-28 8z" />
    <glyph glyph-name="afii10030" unicode="&#x41c;" horiz-adv-x="1753" 
d="M184 0v1464h248l453 -1140l438 1140h246v-1464h-178v1233l-486 -1233h-55l-502 1233v-1233h-164z" />
    <glyph glyph-name="afii10031" unicode="&#x41d;" horiz-adv-x="1495" 
d="M184 0v1464h178v-663h771v663h178v-1464h-178v651h-771v-651h-178z" />
    <glyph glyph-name="afii10032" unicode="&#x41e;" horiz-adv-x="1660" 
d="M113 723v16q0 155 52.5 291.5t146 236.5t229 158t293.5 58t292.5 -58t226.5 -157.5t143.5 -235t51.5 -289.5v-16q0 -154 -51.5 -291t-143 -237t-225.5 -158.5t-290 -58.5q-159 0 -295 58.5t-230 158t-147 235.5t-53 289zM297 725q0 -262 154.5 -429t386.5 -167
q242 0 384 165.5t142 434.5v16q0 166 -61 299.5t-183 214t-286 80.5q-167 0 -289.5 -77t-185 -211.5t-62.5 -309.5v-16z" />
    <glyph glyph-name="afii10033" unicode="&#x41f;" horiz-adv-x="1474" 
d="M184 0v1464h1106v-1464h-178v1315h-750v-1315h-178z" />
    <glyph glyph-name="afii10034" unicode="&#x420;" horiz-adv-x="1189" 
d="M184 0v1464h416q109 0 199.5 -24.5t161.5 -74.5t111 -134t40 -195v-8q0 -113 -40 -198t-112 -135t-162 -74.5t-198 -24.5h-238v-596h-178zM362 737h250q157 0 239.5 75t82.5 216v8q0 150 -83 217.5t-239 67.5h-250v-584z" />
    <glyph glyph-name="afii10035" unicode="&#x421;" horiz-adv-x="1495" 
d="M113 723v16q0 214 88.5 385t246 267t353.5 96q156 0 282.5 -52.5t211.5 -162.5t100 -264h-176q-28 170 -129.5 254t-286.5 84q-228 0 -367 -164.5t-139 -440.5v-16q0 -280 134 -439t370 -159q183 0 299 91t143 267h166q-37 -248 -198.5 -375.5t-413.5 -127.5
q-317 0 -500.5 200.5t-183.5 540.5z" />
    <glyph glyph-name="afii10036" unicode="&#x422;" horiz-adv-x="1148" 
d="M59 1319v145h1031v-145h-426v-1319h-179v1319h-426z" />
    <glyph glyph-name="afii10037" unicode="&#x423;" horiz-adv-x="1204" 
d="M41 1464h186l391 -913l398 913h168l-494 -1118q-30 -68 -55.5 -116t-63 -97.5t-78.5 -80t-98.5 -49.5t-126.5 -19q-24 0 -44 4t-28 8l-8 4v162q25 -8 80 -8q88 0 149.5 45t110.5 147z" />
    <glyph glyph-name="afii10038" unicode="&#x424;" horiz-adv-x="1710" 
d="M115 719v10q1 115 35 206t92 153t141 104t178 62t207 22v209h174v-209q144 -3 259 -33.5t205 -91.5t139.5 -164t49.5 -242v-16q-3 -141 -54.5 -246t-142 -167.5t-204 -93.5t-252.5 -34v-208h-174v208q-144 3 -259 33.5t-205 91.5t-139.5 164t-49.5 242zM297 717
q0 -108 34 -185.5t99 -122.5t147 -66t191 -24v822q-84 -3 -149.5 -14.5t-127.5 -39.5t-102.5 -73t-65.5 -117.5t-26 -169.5v-10zM942 324q84 3 149 14t126.5 39t102.5 72t66 115.5t27 166.5v17q0 108 -34 185.5t-99 122t-147 65.5t-191 24v-821z" />
    <glyph glyph-name="afii10039" unicode="&#x425;" horiz-adv-x="1345" 
d="M92 0l483 752l-450 712h197l364 -575l363 575h182l-455 -712l477 -752h-200l-391 616l-392 -616h-178z" />
    <glyph glyph-name="afii10040" unicode="&#x426;" horiz-adv-x="1495" 
d="M184 0v1464h178v-1314h750v1314h178v-1314h164v-416h-147l-11 266h-1112z" />
    <glyph glyph-name="afii10041" unicode="&#x427;" horiz-adv-x="1409" 
d="M164 1100v364h178v-383q0 -180 79.5 -273t233.5 -93q83 0 154 18t113 43.5t72 51t42 43.5l11 18v575h178v-1464h-178v709q-6 -5 -17.5 -14.5t-51 -32.5t-83 -40.5t-112 -32t-140.5 -14.5q-222 0 -350.5 135.5t-128.5 389.5z" />
    <glyph glyph-name="afii10042" unicode="&#x428;" horiz-adv-x="1992" 
d="M184 0v1464h178v-1314h545v1314h178v-1314h545v1314h178v-1464h-1624z" />
    <glyph glyph-name="afii10043" unicode="&#x429;" horiz-adv-x="2013" 
d="M184 0v1464h178v-1314h545v1314h178v-1314h545v1314h178v-1314h164v-416h-147l-10 266h-1631z" />
    <glyph glyph-name="afii10044" unicode="&#x42a;" horiz-adv-x="1445" 
d="M39 1315v149h579v-596h238q86 0 160.5 -14t140 -46t112 -80t73 -120.5t26.5 -163.5v-8q0 -111 -40 -196t-111 -136.5t-162 -77.5t-199 -26h-416v1315h-401zM618 143h250q322 0 322 293v8q0 140 -82 211.5t-240 71.5h-250v-584z" />
    <glyph glyph-name="afii10045" unicode="&#x42b;" horiz-adv-x="1648" 
d="M184 0v1464h178v-596h228q86 0 160.5 -14t140 -46t112 -80t73 -120.5t26.5 -163.5v-8q0 -111 -40 -196t-111 -136.5t-162 -77.5t-199 -26h-406zM362 143h240q322 0 322 293v8q0 140 -82 211.5t-240 71.5h-240v-584zM1286 0v1464h178v-1464h-178z" />
    <glyph glyph-name="afii10046" unicode="&#x42c;" horiz-adv-x="1189" 
d="M184 0v1464h178v-596h238q86 0 160.5 -14t140 -46t112 -80t73 -120.5t26.5 -163.5v-8q0 -111 -40 -196t-111 -136.5t-162 -77.5t-199 -26h-416zM362 143h250q322 0 322 293v8q0 140 -82 211.5t-240 71.5h-250v-584z" />
    <glyph glyph-name="afii10047" unicode="&#x42d;" horiz-adv-x="1495" 
d="M113 461h176q56 -338 430 -338q218 0 355 149.5t149 403.5h-711v145h711q-19 247 -146.5 383.5t-345.5 136.5q-182 0 -293.5 -90.5t-138.5 -267.5h-166q38 249 194.5 376.5t407.5 127.5q315 0 494.5 -200.5t179.5 -541.5v-16q0 -160 -52 -299t-143 -237.5t-218.5 -154.5
t-274.5 -56q-156 0 -286 52.5t-218.5 163t-103.5 263.5z" />
    <glyph glyph-name="afii10048" unicode="&#x42e;" horiz-adv-x="2105" 
d="M184 0v1464h178v-663h238q13 194 99.5 348t242.5 244t356 90q210 0 369.5 -99.5t242.5 -266.5t83 -374v-16q0 -155 -48.5 -291t-136 -237t-218.5 -159t-287 -58q-150 0 -277 51.5t-216 141.5t-143.5 212.5t-66.5 263.5h-238v-651h-178zM782 725q0 -265 145.5 -430.5
t375.5 -165.5q160 0 275 76.5t172.5 211t57.5 312.5v16q0 124 -32.5 231t-95 188.5t-161 128t-221.5 46.5q-166 0 -284 -77.5t-175 -211t-57 -309.5v-16z" />
    <glyph glyph-name="afii10049" unicode="&#x42f;" horiz-adv-x="1282" 
d="M41 0l479 649q-162 30 -256 127t-94 273v8q0 89 26.5 159t72.5 116t111.5 76t140 43t161.5 13h416v-1464h-178v637h-215l-463 -637h-201zM348 1049q0 -271 322 -271h250v543h-250q-160 0 -241 -58.5t-81 -205.5v-8z" />
    <glyph glyph-name="afii10065" unicode="&#x430;" horiz-adv-x="1105" 
d="M84 297q0 89 44.5 155.5t122 104t170 55t200.5 17.5h153v78q0 128 -53 184.5t-176 56.5q-223 0 -246 -192h-170q8 88 46 154.5t97.5 104.5t129.5 56.5t151 18.5q65 0 120 -11t106 -38t86.5 -69.5t57 -110t21.5 -154.5v-707h-170v135q-62 -78 -140.5 -115.5t-193.5 -37.5
q-103 0 -181 32t-126.5 104.5t-48.5 178.5zM254 297q0 -88 47.5 -134t155.5 -46q139 0 228 68.5t89 189.5v133h-147q-373 0 -373 -211z" />
    <glyph glyph-name="afii10066" unicode="&#x431;" horiz-adv-x="1236" 
d="M92 610v66q0 106 6 194t23 181t45 165.5t74 139t107.5 112t148.5 74.5t194 35l41 2q125 7 189 15.5t116 29.5l23 -143q-117 -50 -326 -56l-31 -2q-128 -6 -216.5 -46.5t-142.5 -121.5t-81 -188.5t-37 -263.5h8q56 112 166 179t254 67q222 0 357 -145t135 -374v-8
q0 -166 -69.5 -290t-188.5 -187t-271 -63q-117 0 -211 37t-165 111.5t-109.5 196.5t-38.5 283zM268 506q0 -174 94 -278.5t256 -104.5q163 0 257 103.5t94 293.5v4q0 177 -86 280t-246 103q-169 0 -269 -107t-100 -290v-4z" />
    <glyph glyph-name="afii10067" unicode="&#x432;" horiz-adv-x="1089" 
d="M172 0v1071h375q80 0 144.5 -13.5t118.5 -43t84 -84.5t30 -131v-6q0 -79 -43.5 -143.5t-128.5 -86.5q223 -48 223 -241v-7q0 -156 -101.5 -235.5t-281.5 -79.5h-420zM342 135h233q114 0 168 41t54 129v6q0 89 -55 130.5t-167 41.5h-233v-348zM342 618h205q105 0 151.5 39
t46.5 127v7q0 81 -49 113t-151 32h-203v-318z" />
    <glyph glyph-name="afii10068" unicode="&#x433;" horiz-adv-x="903" 
d="M172 0v1071h680v-143h-510v-928h-170z" />
    <glyph glyph-name="afii10069" unicode="&#x434;" horiz-adv-x="1183" 
d="M31 143h75q21 6 37 18t28 35.5t19.5 43t15 57.5t10.5 59t9 68q14 111 25.5 273t16.5 268l5 106h707v-928h164v-403h-137l-13 260h-813l-12 -260h-137v403zM311 143h502v789h-393q-12 -276 -39 -518q-21 -189 -70 -271z" />
    <glyph glyph-name="afii10070" unicode="&#x435;" horiz-adv-x="1163" 
d="M92 524v17q0 243 140.5 396t361.5 153q76 0 145 -18.5t131 -59.5t107 -101.5t71.5 -151t26.5 -202.5v-55h-807q6 -184 93.5 -281.5t250.5 -97.5q251 0 285 186h170q-27 -158 -149.5 -242.5t-307.5 -84.5q-229 0 -373.5 148.5t-144.5 393.5zM274 639h627q-22 309 -307 309
q-129 0 -213.5 -82.5t-106.5 -226.5z" />
    <glyph glyph-name="afii10072" unicode="&#x436;" horiz-adv-x="1452" 
d="M39 0l436 569l-397 502h182l383 -504v504h166v-504l383 504h184l-397 -502l436 -569h-192l-414 551v-551h-166v551l-414 -551h-190z" />
    <glyph glyph-name="afii10073" unicode="&#x437;" horiz-adv-x="1005" 
d="M84 330h166q10 -101 70 -154t186 -53q229 0 229 182v6q0 90 -54.5 131t-166.5 41h-162v135h133q106 0 152.5 39t46.5 127v7q0 73 -45 115t-139 42q-177 0 -213 -168h-164q11 84 45 145.5t87.5 96.5t116.5 51.5t138 16.5q152 0 252 -77t100 -214v-6q0 -79 -46 -146.5
t-130 -83.5q104 -18 165.5 -79t61.5 -162v-7q0 -149 -108.5 -241t-298.5 -92q-193 0 -303.5 91.5t-118.5 256.5z" />
    <glyph glyph-name="afii10074" unicode="&#x438;" horiz-adv-x="1210" 
d="M172 0v1071h170v-825l547 825h170v-1071h-170v825l-547 -825h-170z" />
    <glyph glyph-name="afii10075" unicode="&#x439;" horiz-adv-x="1210" 
d="M172 0v1071h170v-825l547 825h170v-1071h-170v825l-547 -825h-170zM342 1538h147q5 -66 35 -109t88 -43q61 0 95.5 42.5t40.5 109.5h143q-6 -116 -87 -193t-192 -77q-110 0 -187 76.5t-83 193.5z" />
    <glyph glyph-name="afii10076" unicode="&#x43a;" horiz-adv-x="1056" 
d="M172 0v1071h170v-500l444 500h199l-459 -504l498 -567h-207l-475 547v-547h-170z" />
    <glyph glyph-name="afii10077" unicode="&#x43b;" horiz-adv-x="1130" 
d="M41 0v162q18 -8 57 -8q32 0 54 19.5t35.5 60.5t20.5 83.5t13 106.5q11 111 19 273t10 268l2 106h706v-1071h-170v928h-385q-9 -324 -26 -514q-20 -221 -79 -322.5t-185 -101.5q-24 0 -42 2.5t-24 5.5z" />
    <glyph glyph-name="afii10078" unicode="&#x43c;" horiz-adv-x="1439" 
d="M174 0v1071h240l305 -805l313 805h234v-1071h-168v903l-355 -903h-77l-351 903v-903h-141z" />
    <glyph glyph-name="afii10079" unicode="&#x43d;" horiz-adv-x="1210" 
d="M172 0v1071h170v-450h526v450h170v-1071h-170v477h-526v-477h-170z" />
    <glyph glyph-name="afii10080" unicode="&#x43e;" horiz-adv-x="1236" 
d="M92 526v17q0 240 149 393.5t377 153.5q229 0 378 -152.5t149 -392.5v-17q0 -241 -149.5 -393.5t-379.5 -152.5q-228 0 -376 154.5t-148 389.5zM268 526q0 -184 94 -293.5t256 -109.5q160 0 255.5 110.5t95.5 292.5v15q0 186 -95.5 296.5t-255.5 110.5q-161 0 -255.5 -110
t-94.5 -295v-17z" />
    <glyph glyph-name="afii10081" unicode="&#x43f;" horiz-adv-x="1189" 
d="M172 0v1071h846v-1071h-170v928h-506v-928h-170z" />
    <glyph glyph-name="afii10082" unicode="&#x440;" horiz-adv-x="1284" 
d="M172 -373v1444h170v-180q48 82 149.5 140.5t213.5 58.5q215 0 351 -146.5t136 -392.5v-16q0 -247 -133.5 -400t-353.5 -153q-125 0 -219.5 54.5t-143.5 139.5v-549h-170zM336 526q0 -199 95 -301t257 -102q159 0 243.5 104t84.5 299v17q0 194 -94 299.5t-236 105.5
q-156 0 -253 -103.5t-97 -301.5v-17z" />
    <glyph glyph-name="afii10083" unicode="&#x441;" horiz-adv-x="1167" 
d="M92 524v17q0 120 41 223.5t111 174.5t165.5 111t202.5 40q87 0 163 -21t140.5 -64t107 -117t54.5 -173h-168q-19 121 -98.5 177t-198.5 56q-150 0 -247 -111t-97 -296v-17q0 -192 95.5 -296.5t254.5 -104.5q120 0 207.5 68.5t100.5 193.5h157q-17 -176 -146.5 -289.5
t-320.5 -113.5q-228 0 -376 148.5t-148 393.5z" />
    <glyph glyph-name="afii10084" unicode="&#x442;" horiz-adv-x="985" 
d="M61 928v143h863v-143h-346v-928h-170v928h-347z" />
    <glyph glyph-name="afii10085" unicode="&#x443;" horiz-adv-x="1083" 
d="M51 1071h182l328 -768l297 768h174l-592 -1444h-172l203 484z" />
    <glyph glyph-name="afii10086" unicode="&#x444;" horiz-adv-x="1449" 
d="M92 526v17q0 126 42.5 227.5t117.5 168.5t174 105t215 43v496h168v-496q115 -5 214 -43t174 -104.5t118 -168t43 -226.5v-17q0 -126 -42.5 -227.5t-117.5 -168.5t-174 -105t-215 -43v-357h-168v357q-115 5 -214 43t-174 104.5t-118 168t-43 226.5zM266 530
q0 -194 104 -301.5t271 -113.5v843q-167 -6 -271 -114t-104 -299v-15zM809 113q167 6 271 114t104 299v15q0 194 -104 301.5t-271 113.5v-843z" />
    <glyph glyph-name="afii10087" unicode="&#x445;" horiz-adv-x="1081" 
d="M57 0l383 551l-358 520h199l262 -389l260 389h184l-354 -508l391 -563h-201l-288 432l-295 -432h-183z" />
    <glyph glyph-name="afii10088" unicode="&#x446;" horiz-adv-x="1222" 
d="M172 0v1071h170v-928h506v928h170v-928h164v-403h-138l-12 260h-860z" />
    <glyph glyph-name="afii10089" unicode="&#x447;" horiz-adv-x="1138" 
d="M131 793v278h170v-270q0 -273 234 -273q85 0 152.5 31.5t109.5 87.5v424h170v-1071h-170v500q-110 -119 -308 -119q-75 0 -138 23.5t-113 71.5t-78.5 129t-28.5 188z" />
    <glyph glyph-name="afii10090" unicode="&#x448;" horiz-adv-x="1660" 
d="M172 0v1071h170v-928h403v928h170v-928h404v928h170v-1071h-1317z" />
    <glyph glyph-name="afii10091" unicode="&#x449;" horiz-adv-x="1693" 
d="M172 0v1071h170v-928h403v928h170v-928h404v928h170v-928h164v-403h-137l-13 260h-1331z" />
    <glyph glyph-name="afii10092" unicode="&#x44a;" horiz-adv-x="1187" 
d="M51 928v143h475v-375h191q87 0 158.5 -18.5t129 -57.5t89.5 -106t32 -158v-6q0 -90 -32 -158t-88.5 -109.5t-129 -62t-159.5 -20.5h-361v928h-305zM526 135h201q119 0 174 52.5t55 162.5v6q0 102 -53.5 154.5t-175.5 52.5h-201v-428z" />
    <glyph glyph-name="afii10093" unicode="&#x44b;" horiz-adv-x="1435" 
d="M172 0v1071h170v-375h190q87 0 158.5 -18.5t129.5 -57.5t90 -106t32 -158v-6q0 -90 -32 -158t-89 -109.5t-129.5 -62t-159.5 -20.5h-360zM342 135h201q119 0 174 52.5t55 162.5v6q0 102 -53.5 154.5t-175.5 52.5h-201v-428zM1094 0v1071h170v-1071h-170z" />
    <glyph glyph-name="afii10094" unicode="&#x44c;" horiz-adv-x="1003" 
d="M172 0v1071h170v-375h190q87 0 159.5 -20.5t129.5 -62t89 -109.5t32 -158v-6q0 -91 -32 -158t-90 -106t-129.5 -57.5t-158.5 -18.5h-360zM342 133h201q122 0 175.5 52.5t53.5 154.5v6q0 110 -55 162.5t-174 52.5h-201v-428z" />
    <glyph glyph-name="afii10095" unicode="&#x44d;" horiz-adv-x="1167" 
d="M84 686q17 176 146.5 290t320.5 114q237 0 380.5 -143t143.5 -390v-16q0 -120 -41 -225t-110 -178t-162 -114.5t-195 -41.5q-92 0 -170 20.5t-144 64t-108.5 117t-54.5 172.5h168q37 -233 309 -233q132 0 223.5 97.5t106.5 260.5h-543v133h543q-15 164 -106.5 249
t-241.5 85q-118 0 -202 -68.5t-105 -193.5h-158z" />
    <glyph glyph-name="afii10096" unicode="&#x44e;" horiz-adv-x="1605" 
d="M172 0v1071h170v-450h164q23 212 158.5 340.5t343.5 128.5q226 0 365.5 -151.5t139.5 -393.5v-17q0 -244 -139.5 -395t-367.5 -151q-204 0 -339 127.5t-159 332.5q-4 20 -4 35h-162v-477h-170zM678 526q0 -187 85 -295t245 -108q158 0 243.5 109t85.5 294v15
q0 189 -86 298t-243 109q-159 0 -244.5 -108.5t-85.5 -296.5v-17z" />
    <glyph glyph-name="afii10097" unicode="&#x44f;" horiz-adv-x="1071" 
d="M51 0l326 449q-111 23 -179.5 91.5t-68.5 194.5v6q0 86 32 151t89 103t129.5 57t159.5 19h360v-1071h-170v420h-184l-299 -420h-195zM299 735q0 -92 53.5 -139t175.5 -47h201v387h-201q-229 0 -229 -195v-6z" />
    <glyph glyph-name="afii10071" unicode="&#x451;" horiz-adv-x="1163" 
d="M92 524v17q0 243 140.5 396t361.5 153q76 0 145 -18.5t131 -59.5t107 -101.5t71.5 -151t26.5 -202.5v-55h-807q6 -184 93.5 -281.5t250.5 -97.5q251 0 285 186h170q-27 -158 -149.5 -242.5t-307.5 -84.5q-229 0 -373.5 148.5t-144.5 393.5zM274 639h627q-22 309 -307 309
q-129 0 -213.5 -82.5t-106.5 -226.5zM293 1407q0 44 32 76.5t76 32.5t76.5 -32.5t32.5 -76.5t-32.5 -76.5t-76.5 -32.5t-76 32.5t-32 76.5zM678 1407q0 44 32 76.5t76 32.5t76.5 -32.5t32.5 -76.5t-32.5 -76.5t-76.5 -32.5t-76 32.5t-32 76.5z" />
    <glyph glyph-name="afii10099" unicode="&#x452;" horiz-adv-x="1224" 
d="M18 1260v124h154v199h170v-199h365v-124h-365v-359q40 81 129.5 135t214.5 54q175 0 276 -105t101 -328v-725q0 -158 -77 -237.5t-251 -85.5v143q86 7 122 49t36 117v752q0 141 -61.5 206.5t-190.5 65.5q-126 0 -212.5 -77.5t-86.5 -215.5v-649h-170v1260h-154z" />
    <glyph glyph-name="afii10100" unicode="&#x453;" horiz-adv-x="903" 
d="M172 0v1071h680v-143h-510v-928h-170zM432 1255l127 301h213l-213 -301h-127z" />
    <glyph glyph-name="afii10101" unicode="&#x454;" horiz-adv-x="1167" 
d="M92 524v17q0 120 41 223.5t111 174.5t165.5 111t202.5 40q87 0 163 -21t140.5 -64t107 -117t54.5 -173h-168q-19 121 -98.5 177t-198.5 56q-132 0 -225.5 -89.5t-114.5 -242.5h539v-133h-541q10 -174 103.5 -267t244.5 -93q120 0 207.5 68.5t100.5 193.5h157
q-17 -176 -146.5 -289.5t-320.5 -113.5q-228 0 -376 148.5t-148 393.5z" />
    <glyph glyph-name="afii10102" unicode="&#x455;" horiz-adv-x="983" 
d="M84 330h166q9 -100 68.5 -153.5t183.5 -53.5q121 0 177 41.5t56 128.5q0 80 -58 117.5t-192 62.5q-209 38 -290.5 107t-81.5 208q0 58 21.5 107.5t57.5 85t83 60.5t98 37t102 12q75 0 138 -16.5t116.5 -51.5t87.5 -96.5t45 -145.5h-164q-19 88 -71.5 128t-153.5 40
q-92 0 -147.5 -42t-55.5 -111q0 -73 51.5 -108.5t198.5 -61.5q76 -14 125.5 -27t101.5 -37t82 -56t49 -82t19 -116q0 -150 -101 -237.5t-292 -87.5q-192 0 -302 91.5t-118 256.5z" />
    <glyph glyph-name="afii10103" unicode="&#x456;" horiz-adv-x="522" 
d="M145 1407q0 46 33.5 79.5t79.5 33.5t79.5 -33.5t33.5 -79.5t-33.5 -79.5t-79.5 -33.5t-79.5 33.5t-33.5 79.5zM176 0v1071h170v-1071h-170z" />
    <glyph glyph-name="afii10104" unicode="&#x457;" horiz-adv-x="522" 
d="M-33 1407q0 44 32.5 76.5t76.5 32.5t76 -32.5t32 -76.5t-32 -76.5t-76 -32.5t-76.5 32.5t-32.5 76.5zM176 0v1071h170v-1071h-170zM336 1407q0 44 32 76.5t76 32.5t76.5 -32.5t32.5 -76.5t-32.5 -76.5t-76.5 -32.5t-76 32.5t-32 76.5z" />
    <glyph glyph-name="afii10105" unicode="&#x458;" horiz-adv-x="522" 
d="M18 -248q86 7 122 49t36 117v1153h170v-1139q0 -158 -77 -237.5t-251 -85.5v143zM145 1407q0 46 33.5 79.5t79.5 33.5t79.5 -33.5t33.5 -79.5t-33.5 -79.5t-79.5 -33.5t-79.5 33.5t-33.5 79.5z" />
    <glyph glyph-name="afii10106" unicode="&#x459;" horiz-adv-x="1576" 
d="M41 0v162q18 -8 57 -8q32 0 54 19.5t35.5 60.5t20.5 83.5t13 106.5q11 111 19 273t10 268l2 106h684v-375h170q87 0 158.5 -18.5t129.5 -57.5t90 -106t32 -158v-6q0 -90 -32 -158t-89 -109.5t-129.5 -62t-159.5 -20.5h-340v928h-363q-9 -324 -26 -514
q-20 -221 -79 -322.5t-185 -101.5q-24 0 -42 2.5t-24 5.5zM936 135h180q119 0 174.5 52.5t55.5 162.5v6q0 102 -54 154.5t-176 52.5h-180v-428z" />
    <glyph glyph-name="afii10107" unicode="&#x45a;" horiz-adv-x="1658" 
d="M172 0v1071h170v-450h506v450h170v-375h170q87 0 158.5 -18.5t129 -57.5t89.5 -106t32 -158v-6q0 -90 -32 -158t-88.5 -109.5t-129 -62t-159.5 -20.5h-340v477h-506v-477h-170zM1018 135h180q119 0 174 52.5t55 162.5v6q0 102 -53.5 154.5t-175.5 52.5h-180v-428z" />
    <glyph glyph-name="afii10108" unicode="&#x45b;" horiz-adv-x="1224" 
d="M18 1260v124h154v199h170v-199h365v-124h-365v-359q40 81 129.5 135t214.5 54q175 0 276 -105t101 -328v-657h-170v670q0 141 -61.5 206.5t-190.5 65.5q-126 0 -212.5 -77.5t-86.5 -215.5v-649h-170v1260h-154z" />
    <glyph glyph-name="afii10109" unicode="&#x45c;" horiz-adv-x="1056" 
d="M172 0v1071h170v-500l444 500h199l-459 -504l498 -567h-207l-475 547v-547h-170zM494 1255l127 301h213l-213 -301h-127z" />
    <glyph glyph-name="afii10110" unicode="&#x45e;" horiz-adv-x="1083" 
d="M51 1071h182l328 -768l297 768h174l-592 -1444h-172l203 484zM291 1538h147q5 -66 35 -109t88 -43q61 0 94.5 42.5t40.5 109.5h144q-6 -116 -87 -193t-192 -77q-110 0 -187 76.5t-83 193.5z" />
    <glyph glyph-name="afii10193" unicode="&#x45f;" horiz-adv-x="1189" 
d="M172 0v1071h170v-928h506v928h170v-1071h-350l-4 -260h-136l-6 260h-350z" />
    <glyph glyph-name="afii10050" unicode="&#x490;" horiz-adv-x="1097" 
d="M184 0v1464h678l10 275h148v-424h-658v-1315h-178z" />
    <glyph glyph-name="afii10098" unicode="&#x491;" horiz-adv-x="862" 
d="M172 0v1071h490l12 275h137v-418h-469v-928h-170z" />
    <glyph glyph-name="Wgrave" unicode="&#x1e80;" horiz-adv-x="1900" 
d="M70 1464h182l297 -1181l344 1181h127l344 -1185l301 1185h166l-381 -1464h-164l-332 1157l-342 -1157h-161zM705 1839h213l114 -260h-127z" />
    <glyph glyph-name="wgrave" unicode="&#x1e81;" horiz-adv-x="1626" 
d="M57 1071h185l250 -862l260 862h147l244 -862l252 862h174l-334 -1071h-188l-224 803l-250 -803h-186zM567 1556h213l127 -301h-127z" />
    <glyph glyph-name="Wacute" unicode="&#x1e82;" horiz-adv-x="1900" 
d="M70 1464h182l297 -1181l344 1181h127l344 -1185l301 1185h166l-381 -1464h-164l-332 1157l-342 -1157h-161zM901 1579l115 260h213l-201 -260h-127z" />
    <glyph glyph-name="wacute" unicode="&#x1e83;" horiz-adv-x="1626" 
d="M57 1071h185l250 -862l260 862h147l244 -862l252 862h174l-334 -1071h-188l-224 803l-250 -803h-186zM758 1255l127 301h213l-213 -301h-127z" />
    <glyph glyph-name="Wdieresis" unicode="&#x1e84;" horiz-adv-x="1900" 
d="M70 1464h182l297 -1181l344 1181h127l344 -1185l301 1185h166l-381 -1464h-164l-332 1157l-342 -1157h-161zM639 1724q0 44 32.5 76.5t76.5 32.5t76 -32.5t32 -76.5t-32 -76t-76 -32t-76.5 32t-32.5 76zM1055 1724q0 44 32 76.5t76 32.5t76.5 -32.5t32.5 -76.5t-32.5 -76
t-76.5 -32t-76 32t-32 76z" />
    <glyph glyph-name="wdieresis" unicode="&#x1e85;" horiz-adv-x="1626" 
d="M57 1071h185l250 -862l260 862h147l244 -862l252 862h174l-334 -1071h-188l-224 803l-250 -803h-186zM522 1407q0 44 32.5 76.5t76.5 32.5t76 -32.5t32 -76.5t-32 -76.5t-76 -32.5t-76.5 32.5t-32.5 76.5zM907 1407q0 44 32.5 76.5t76.5 32.5t76 -32.5t32 -76.5
t-32 -76.5t-76 -32.5t-76.5 32.5t-32.5 76.5z" />
    <glyph glyph-name="Ygrave" unicode="&#x1ef2;" horiz-adv-x="1224" 
d="M47 1464h201l383 -680l368 680h179l-463 -827v-637h-178v639zM381 1839h213l115 -260h-127z" />
    <glyph glyph-name="ygrave" unicode="&#x1ef3;" horiz-adv-x="1083" 
d="M51 1071h182l328 -768l297 768h174l-592 -1444h-172l203 484zM285 1556h213l127 -301h-127z" />
    <glyph glyph-name="uni2000" unicode="&#x2000;" horiz-adv-x="1139" 
 />
    <glyph glyph-name="uni2001" unicode="&#x2001;" horiz-adv-x="2279" 
 />
    <glyph glyph-name="uni2002" unicode="&#x2002;" horiz-adv-x="1139" 
 />
    <glyph glyph-name="uni2003" unicode="&#x2003;" horiz-adv-x="2279" 
 />
    <glyph glyph-name="uni2004" unicode="&#x2004;" horiz-adv-x="759" 
 />
    <glyph glyph-name="uni2005" unicode="&#x2005;" horiz-adv-x="569" 
 />
    <glyph glyph-name="uni2006" unicode="&#x2006;" horiz-adv-x="379" 
 />
    <glyph glyph-name="uni2007" unicode="&#x2007;" horiz-adv-x="379" 
 />
    <glyph glyph-name="uni2008" unicode="&#x2008;" horiz-adv-x="284" 
 />
    <glyph glyph-name="uni2009" unicode="&#x2009;" horiz-adv-x="225" 
 />
    <glyph glyph-name="uni200A" unicode="&#x200a;" horiz-adv-x="126" 
 />
    <glyph glyph-name="uni2010" unicode="&#x2010;" horiz-adv-x="684" 
d="M123 483v160h438v-160h-438z" />
    <glyph glyph-name="uni2011" unicode="&#x2011;" horiz-adv-x="684" 
d="M123 483v160h438v-160h-438z" />
    <glyph glyph-name="figuredash" unicode="&#x2012;" horiz-adv-x="684" 
d="M123 483v160h438v-160h-438z" />
    <glyph glyph-name="endash" unicode="&#x2013;" horiz-adv-x="1077" 
d="M92 494v143h893v-143h-893z" />
    <glyph glyph-name="emdash" unicode="&#x2014;" horiz-adv-x="1812" 
d="M92 494v143h1628v-143h-1628z" />
    <glyph glyph-name="quoteleft" unicode="&#x2018;" horiz-adv-x="522" 
d="M82 1073l240 414l104 -53l-182 -435z" />
    <glyph glyph-name="quoteright" unicode="&#x2019;" horiz-adv-x="522" 
d="M96 1053l183 434l161 -74l-239 -414z" />
    <glyph glyph-name="quotesinglbase" unicode="&#x201a;" horiz-adv-x="522" 
d="M96 -180l183 434l161 -74l-239 -413z" />
    <glyph glyph-name="quotedblleft" unicode="&#x201c;" horiz-adv-x="884" 
d="M82 1073l240 414l104 -53l-182 -435zM444 1073l240 414l104 -53l-182 -435z" />
    <glyph glyph-name="quotedblright" unicode="&#x201d;" horiz-adv-x="884" 
d="M96 1053l183 434l161 -74l-239 -414zM459 1053l182 434l162 -74l-240 -414z" />
    <glyph glyph-name="quotedblbase" unicode="&#x201e;" horiz-adv-x="884" 
d="M96 -180l183 434l161 -74l-239 -413zM459 -180l182 434l162 -74l-240 -413z" />
    <glyph glyph-name="dagger" unicode="&#x2020;" horiz-adv-x="765" 
d="M70 1063v137h237v264h154v-264h235v-137h-235v-627h-154v627h-237z" />
    <glyph glyph-name="daggerdbl" unicode="&#x2021;" horiz-adv-x="765" 
d="M70 700v138h237v225h-237v137h237v264h154v-264h235v-137h-235v-225h235v-138h-235v-264h-154v264h-237z" />
    <glyph glyph-name="bullet" unicode="&#x2022;" horiz-adv-x="679" 
d="M102 627q0 99 68.5 168t169.5 69q102 0 170 -69t68 -168t-68 -168.5t-170 -69.5q-101 0 -169.5 69.5t-68.5 168.5z" />
    <glyph glyph-name="ellipsis" unicode="&#x2026;" horiz-adv-x="1650" 
d="M158 121q0 55 38.5 93t92.5 38t92.5 -38t38.5 -93t-38.5 -93t-92.5 -38t-92.5 38t-38.5 93zM694 121q0 55 38.5 93t92.5 38t92.5 -38t38.5 -93t-38.5 -93t-92.5 -38t-92.5 38t-38.5 93zM1231 121q0 55 38.5 93t92.5 38t92.5 -38t38.5 -93t-38.5 -93t-92.5 -38t-92.5 38
t-38.5 93z" />
    <glyph glyph-name="uni202F" unicode="&#x202f;" horiz-adv-x="455" 
 />
    <glyph glyph-name="perthousand" unicode="&#x2030;" horiz-adv-x="2306" 
d="M70 1139q0 145 96.5 241.5t228.5 96.5q134 0 230 -95.5t96 -238.5t-97.5 -238.5t-228.5 -95.5q-129 0 -227 95.5t-98 234.5zM223 1141q0 -95 47 -148t125 -53q79 0 125.5 54.5t46.5 148.5q0 92 -47 147.5t-125 55.5t-125 -54t-47 -151zM258 0l895 1464h156l-895 -1464
h-156zM831 313q0 145 97 241.5t229 96.5q134 0 230 -95.5t96 -238.5t-97.5 -238t-228.5 -95q-130 0 -228 95t-98 234zM985 315q0 -95 47 -147.5t125 -52.5q79 0 125.5 54t46.5 148q0 92 -47 147.5t-125 55.5t-125 -54t-47 -151zM1585 313q0 145 97 241.5t229 96.5
q134 0 229.5 -95.5t95.5 -238.5t-97 -238t-228 -95q-130 0 -228 95t-98 234zM1739 315q0 -95 47 -147.5t125 -52.5q79 0 125.5 54t46.5 148q0 92 -47 147.5t-125 55.5t-125 -54t-47 -151z" />
    <glyph glyph-name="uni2032" unicode="&#x2032;" horiz-adv-x="434" 
d="M94 963l51 501h185l-113 -501h-123z" />
    <glyph glyph-name="uni2033" unicode="&#x2033;" horiz-adv-x="768" 
d="M94 963l51 501h185l-113 -501h-123zM428 963l51 501h185l-113 -501h-123z" />
    <glyph glyph-name="guilsinglleft" unicode="&#x2039;" horiz-adv-x="659" 
d="M121 535l266 364h168l-256 -364l256 -365h-168z" />
    <glyph glyph-name="guilsinglright" unicode="&#x203a;" horiz-adv-x="659" 
d="M104 170l256 365l-256 364h168l267 -364l-267 -365h-168z" />
    <glyph glyph-name="fraction" unicode="&#x2044;" horiz-adv-x="231" 
d="M-471 0l1038 1464h135l-1038 -1464h-135z" />
    <glyph glyph-name="uni205F" unicode="&#x205f;" horiz-adv-x="569" 
 />
    <glyph glyph-name="Euro" unicode="&#x20ac;" horiz-adv-x="1380" 
d="M66 528v119h145v160h-145v119h151q13 119 54.5 219.5t109.5 176t166 118.5t217 43q211 0 343 -118.5t157 -330.5h-168q-22 147 -109.5 228t-222.5 81q-161 0 -256.5 -111t-116.5 -306h490l-23 -119h-471v-160h440l-22 -119h-412q21 -192 115.5 -296.5t259.5 -104.5
q143 0 232 85.5t114 250.5h166q-25 -226 -161 -353.5t-351 -127.5q-229 0 -376 151t-175 395h-151z" />
    <glyph glyph-name="uni20B4" unicode="&#x20b4;" 
d="M61 563v119h244q92 60 291 131q40 14 78 29h-613v119h803q47 60 47 180q0 198 -268 198q-144 0 -221.5 -56.5t-102.5 -182.5h-159q20 185 145.5 284t337.5 99q196 0 318 -88.5t122 -251.5q0 -106 -45 -182h129v-119h-245q-83 -55 -293 -135q-11 -4 -64 -25h602v-119h-796
q-64 -73 -64 -198q0 -120 81.5 -180t215.5 -60q324 0 361 301h172q-10 -93 -45 -171t-98 -140.5t-162.5 -97.5t-227.5 -35q-138 0 -244 41.5t-168.5 127t-62.5 205.5q0 125 55 207h-123z" />
    <glyph glyph-name="uni20B8" unicode="&#x20b8;" horiz-adv-x="1148" 
d="M59 1053v145h1031v-145h-426v-1053h-179v1053h-426zM59 1346v118h1031v-118h-1031z" />
    <glyph glyph-name="uni20BD" unicode="&#x20bd;" horiz-adv-x="1271" 
d="M61 338v119h205v159h-205v119h205v729h416q109 0 199.5 -24.5t161.5 -74.5t111 -134t40 -195v-8q0 -113 -40 -198t-112 -135t-162 -74.5t-198 -24.5h-238v-139h498v-119h-498v-338h-178v338h-205zM444 737h250q157 0 239.5 75t82.5 216v8q0 150 -83 217.5t-239 67.5h-250
v-584z" />
    <glyph glyph-name="afii61352" unicode="&#x2116;" horiz-adv-x="1024" 
 />
    <glyph glyph-name="trademark" unicode="&#x2122;" horiz-adv-x="1466" 
d="M70 1374v90h514v-90h-199v-569h-115v569h-200zM700 805v659h158l184 -463l181 463h159v-659h-114v514l-211 -514h-39l-213 514v-514h-105z" />
    <glyph glyph-name="onethird" unicode="&#x2153;" horiz-adv-x="1480" 
d="M55 1219v120l183 125h122v-700h-139v565zM92 0l1038 1464h136l-1039 -1464h-135zM879 217h125q14 -125 139 -125q64 0 96.5 29.5t32.5 81.5q0 110 -123 110h-53v97h51q115 0 115 100q0 43 -27.5 69.5t-79.5 26.5q-54 0 -87.5 -29.5t-39.5 -82.5h-125q6 96 74 155.5
t180 59.5q109 0 172.5 -53.5t63.5 -135.5q0 -109 -117 -151q63 -14 100 -57.5t37 -110.5q0 -98 -71.5 -154.5t-194.5 -56.5q-125 0 -195 61t-73 166z" />
    <glyph glyph-name="twothirds" unicode="&#x2154;" horiz-adv-x="1556" 
d="M23 764v22l262 279q110 113 110 199q0 48 -26.5 75t-75.5 27q-106 0 -123 -135h-125q6 115 72.5 178.5t179.5 63.5q109 0 171 -56t62 -151q0 -118 -135 -250l-149 -148h291v-104h-514zM197 0l1038 1464h135l-1038 -1464h-135zM954 217h125q14 -125 140 -125
q64 0 96.5 29.5t32.5 81.5q0 110 -123 110h-54v97h52q114 0 114 100q0 43 -27 69.5t-79 26.5q-54 0 -87.5 -29.5t-39.5 -82.5h-125q6 96 74 155.5t180 59.5q109 0 172 -53.5t63 -135.5q0 -110 -116 -151q63 -14 100 -57.5t37 -110.5q0 -98 -71.5 -154.5t-194.5 -56.5
q-125 0 -195.5 61t-73.5 166z" />
    <glyph glyph-name="oneeighth" unicode="&#x215b;" horiz-adv-x="1462" 
d="M55 1219v120l183 125h122v-700h-139v565zM92 0l1038 1464h136l-1039 -1464h-135zM868 197q0 66 34.5 111.5t94.5 66.5q-102 44 -102 145q0 86 70.5 137.5t169.5 51.5t168 -51t69 -136q0 -100 -104 -145q131 -50 131 -176q0 -99 -75.5 -155t-190.5 -56q-112 0 -188.5 54.5
t-76.5 152.5zM1008 209q0 -55 36 -86t91 -31q56 0 91.5 31t35.5 88q0 54 -35.5 85.5t-91.5 31.5q-55 0 -91 -32t-36 -87zM1026 512q0 -44 32 -70t77 -26q48 0 77 26.5t29 71.5q0 43 -30.5 69.5t-75.5 26.5q-47 0 -78 -26.5t-31 -71.5z" />
    <glyph glyph-name="threeeighths" unicode="&#x215c;" horiz-adv-x="1523" 
d="M49 981h125q14 -125 139 -125q64 0 96.5 29.5t32.5 81.5q0 110 -123 110h-53v97h51q115 0 115 100q0 43 -27 69.5t-79 26.5q-54 0 -87.5 -30t-39.5 -83h-125q6 96 74 156t180 60q109 0 172 -53.5t63 -135.5q0 -109 -117 -151q63 -14 100.5 -57.5t37.5 -110.5
q0 -98 -72 -154.5t-195 -56.5q-125 0 -195 61t-73 166zM178 0l1039 1464h135l-1039 -1464h-135zM930 197q0 66 34.5 111.5t94.5 66.5q-103 44 -103 145q0 86 70.5 137.5t169.5 51.5t168.5 -51t69.5 -136q0 -100 -105 -145q131 -50 131 -176q0 -99 -75.5 -155t-190.5 -56
q-112 0 -188 54.5t-76 152.5zM1069 209q0 -55 36 -86t91 -31q56 0 91.5 31t35.5 88q0 54 -35.5 85.5t-91.5 31.5q-55 0 -91 -32t-36 -87zM1087 512q0 -44 32 -70t77 -26q48 0 77.5 26.5t29.5 71.5q0 43 -31 69.5t-76 26.5q-47 0 -78 -26.5t-31 -71.5z" />
    <glyph glyph-name="fiveeighths" unicode="&#x215d;" horiz-adv-x="1511" 
d="M49 967h129q8 -53 35 -80t90 -27q56 0 87.5 36.5t31.5 100.5q0 62 -32 97.5t-89 35.5q-94 0 -143 -59h-74l8 393h430v-106h-325l-2 -189q54 62 153 62q97 0 156 -63.5t59 -172.5q0 -111 -71.5 -176t-188.5 -65q-120 0 -184 58t-70 155zM164 0l1038 1464h135l-1038 -1464
h-135zM918 197q0 66 34.5 111.5t94.5 66.5q-103 44 -103 145q0 86 70.5 137.5t169.5 51.5t168 -51t69 -136q0 -100 -104 -145q131 -50 131 -176q0 -99 -75.5 -155t-190.5 -56q-112 0 -188 54.5t-76 152.5zM1057 209q0 -55 36 -86t91 -31q56 0 91.5 31t35.5 88
q0 54 -35.5 85.5t-91.5 31.5q-55 0 -91 -32t-36 -87zM1075 512q0 -44 32 -70t77 -26q48 0 77 26.5t29 71.5q0 43 -30.5 69.5t-75.5 26.5q-47 0 -78 -26.5t-31 -71.5z" />
    <glyph glyph-name="seveneighths" unicode="&#x215e;" horiz-adv-x="1454" 
d="M41 1352v112h494v-16l-254 -684h-140l221 588h-321zM68 0l1038 1464h135l-1038 -1464h-135zM860 197q0 66 34.5 111.5t94.5 66.5q-102 44 -102 145q0 86 70.5 137.5t168.5 51.5q99 0 168.5 -51t69.5 -136q0 -100 -104 -145q131 -50 131 -176q0 -99 -76 -155t-191 -56
q-112 0 -188 54.5t-76 152.5zM999 209q0 -55 36 -86t91 -31q56 0 91.5 31t35.5 88q0 54 -35.5 85.5t-91.5 31.5q-55 0 -91 -32t-36 -87zM1018 512q0 -44 31.5 -70t76.5 -26q48 0 77.5 26.5t29.5 71.5q0 43 -31 69.5t-76 26.5q-47 0 -77.5 -26.5t-30.5 -71.5z" />
    <glyph glyph-name="minus" unicode="&#x2212;" horiz-adv-x="1062" 
d="M74 629v143h915v-143h-915z" />
    <glyph glyph-name="approxequal" unicode="&#x2248;" horiz-adv-x="1019" 
d="M90 340q10 118 73 181t152 63q66 0 141.5 -22.5t142 -45t110.5 -22.5q35 0 61.5 23.5t30.5 70.5h129q-9 -119 -71 -181.5t-148 -62.5q-69 0 -146 22.5t-143 45t-109 22.5q-35 0 -61 -24t-33 -70h-129zM90 702q10 118 73 181t152 63q66 0 141.5 -22.5t142 -45t110.5 -22.5
q35 0 61.5 23.5t30.5 70.5h129q-9 -119 -71 -181t-148 -62q-69 0 -146 22.5t-143 45t-109 22.5q-35 0 -61 -24.5t-33 -70.5h-129z" />
    <glyph glyph-name="notequal" unicode="&#x2260;" horiz-adv-x="991" 
d="M82 401v148h299l84 221h-383v148h440l82 210h156l-82 -210h231v-148h-288l-84 -221h372v-148h-430l-82 -211h-155l82 211h-242z" />
    <glyph glyph-name="lessequal" unicode="&#x2264;" horiz-adv-x="1032" 
d="M109 0v143h786v-143h-786zM109 664v41l786 419v-163l-533 -277l533 -276v-164z" />
    <glyph glyph-name="greaterequal" unicode="&#x2265;" horiz-adv-x="1032" 
d="M137 0v143h787v-143h-787zM137 244v164l533 276l-533 277v163l787 -419v-41z" />
    <glyph glyph-name="uni24C5" unicode="&#x24c5;" horiz-adv-x="1728" 
d="M113 731q0 154 59 293.5t159 240t240 159.5t295 59q157 0 296.5 -59t238.5 -159t157 -238t58 -292q0 -157 -59 -297t-159.5 -240t-240 -158t-295.5 -58q-205 0 -377 98t-272 270.5t-100 380.5zM211 731q0 -144 53.5 -269.5t143.5 -211t208 -134t246 -48.5
q130 0 249.5 49.5t209.5 135.5t143.5 212t53.5 270q0 190 -89 342.5t-238 236t-325 83.5q-178 0 -327.5 -84t-238.5 -237.5t-89 -344.5zM623 332v809h262q142 0 221.5 -63t79.5 -187v-6q0 -124 -79.5 -186t-215.5 -62h-113v-305h-155zM778 750h107q74 0 112.5 34.5
t38.5 100.5v6q0 129 -151 129h-107v-270z" />
    <glyph glyph-name="uni25FC" unicode="&#x25fc;" horiz-adv-x="1075" 
d="M0 0v1075h1075v-1075h-1075z" />
    <glyph glyph-name="f_i" unicode="&#xfb01;" horiz-adv-x="1222" 
d="M55 928v143h154v174q0 165 79.5 254.5t235.5 89.5q73 0 117 -16v-143q-47 18 -111 18q-151 0 -151 -184v-193h262v-143h-262v-928h-170v928h-154zM846 1407q0 46 33 79.5t79 33.5t79.5 -33.5t33.5 -79.5t-33.5 -79.5t-79.5 -33.5t-79 33.5t-33 79.5zM877 0v1071h170
v-1071h-170z" />
    <glyph glyph-name="f_l" unicode="&#xfb02;" horiz-adv-x="1224" 
d="M55 928v143h154v174q0 165 79.5 254.5t235.5 89.5q73 0 117 -16v-143q-47 18 -111 18q-151 0 -151 -184v-193h262v-143h-262v-928h-170v928h-154zM877 0v1583h172v-1583h-172z" />
    <glyph glyph-name="Euro.old" horiz-adv-x="1339" 
d="M63 512v117h142v153h-142v115h146q17 156 81.5 276t181 192.5t269.5 72.5q204 0 332.5 -114.5t151.5 -319.5h-162q-22 142 -106.5 220.5t-215.5 78.5q-157 0 -249 -108t-113 -298h475l-23 -115h-456v-153h428l-23 -117h-399q21 -187 112 -288t252 -101q139 0 225 83
t111 243h160q-23 -219 -155.5 -343t-340.5 -124q-224 0 -365.5 146t-168.5 384h-148z" />
    <glyph glyph-name="Euro.oldtab" 
d="M72 512v117h121v153h-121v115h121q14 253 142 397t347 144q184 0 295.5 -111t136.5 -317h-164q-21 145 -86.5 219t-181.5 74q-299 0 -317 -406h438l-23 -115h-418v-153h388l-21 -117h-364q11 -197 89.5 -293t231.5 -96q125 0 195.5 78t95.5 239h160q-23 -218 -143 -338
t-308 -120q-217 0 -346.5 138.5t-144.5 391.5h-123z" />
    <glyph glyph-name="Euro.tab" 
d="M31 528v119h125v160h-125v119h125q15 260 147.5 408.5t358.5 148.5q189 0 304 -115t140 -328h-168q-22 151 -89.5 227t-186.5 76q-307 0 -328 -417h450l-22 -119h-430v-160h399l-22 -119h-375q11 -203 92 -302t240 -99q128 0 201 80.5t98 247.5h165
q-25 -226 -147.5 -349.5t-316.5 -123.5q-224 0 -358.5 142.5t-149.5 403.5h-127z" />
    <glyph glyph-name="a.alt" horiz-adv-x="1259" 
d="M92 514v16q0 160 66 289t178 200t246 71q118 0 202 -51t134 -136v168h169v-1071h-169v180q-47 -81 -148 -139.5t-205 -58.5q-96 0 -182 36.5t-150.5 103.5t-102.5 168.5t-38 223.5zM268 522q0 -98 25.5 -175.5t69.5 -125.5t100.5 -73t120.5 -25q70 0 130.5 25.5t107.5 74
t74.5 127t27.5 178.5v17q0 199 -88 301t-238 102t-240 -108.5t-90 -300.5v-17z" />
    <glyph glyph-name="aacute.alt" horiz-adv-x="1259" 
d="M92 514v16q0 160 66 289t178 200t246 71q118 0 202 -51t134 -136v168h169v-1071h-169v180q-47 -81 -148 -139.5t-205 -58.5q-96 0 -182 36.5t-150.5 103.5t-102.5 168.5t-38 223.5zM268 522q0 -98 25.5 -175.5t69.5 -125.5t100.5 -73t120.5 -25q70 0 130.5 25.5t107.5 74
t74.5 127t27.5 178.5v17q0 199 -88 301t-238 102t-240 -108.5t-90 -300.5v-17zM535 1255l127 301h212l-212 -301h-127z" />
    <glyph glyph-name="abreve.alt" horiz-adv-x="1259" 
d="M92 514v16q0 160 66 289t178 200t246 71q118 0 202 -51t134 -136v168h169v-1071h-169v180q-47 -81 -148 -139.5t-205 -58.5q-96 0 -182 36.5t-150.5 103.5t-102.5 168.5t-38 223.5zM268 522q0 -98 25.5 -175.5t69.5 -125.5t100.5 -73t120.5 -25q70 0 130.5 25.5t107.5 74
t74.5 127t27.5 178.5v17q0 199 -88 301t-238 102t-240 -108.5t-90 -300.5v-17zM340 1538h135q23 -131 135 -131q122 0 148 131h131q-6 -116 -87 -193t-192 -77q-110 0 -187 76.5t-83 193.5z" />
    <glyph glyph-name="acircumflex.alt" horiz-adv-x="1259" 
d="M92 514v16q0 160 66 289t178 200t246 71q118 0 202 -51t134 -136v168h169v-1071h-169v180q-47 -81 -148 -139.5t-205 -58.5q-96 0 -182 36.5t-150.5 103.5t-102.5 168.5t-38 223.5zM268 522q0 -98 25.5 -175.5t69.5 -125.5t100.5 -73t120.5 -25q70 0 130.5 25.5t107.5 74
t74.5 127t27.5 178.5v17q0 199 -88 301t-238 102t-240 -108.5t-90 -300.5v-17zM317 1255l222 295h153l219 -295h-125l-174 154l-174 -154h-121z" />
    <glyph glyph-name="acute.uc" horiz-adv-x="819" 
d="M330 1579l114 260h213l-200 -260h-127z" />
    <glyph glyph-name="adieresis.alt" horiz-adv-x="1259" 
d="M92 514v16q0 160 66 289t178 200t246 71q118 0 202 -51t134 -136v168h169v-1071h-169v180q-47 -81 -148 -139.5t-205 -58.5q-96 0 -182 36.5t-150.5 103.5t-102.5 168.5t-38 223.5zM268 522q0 -98 25.5 -175.5t69.5 -125.5t100.5 -73t120.5 -25q70 0 130.5 25.5t107.5 74
t74.5 127t27.5 178.5v17q0 199 -88 301t-238 102t-240 -108.5t-90 -300.5v-17zM317 1407q0 44 32.5 76.5t76.5 32.5t76.5 -32.5t32.5 -76.5t-32.5 -76.5t-76.5 -32.5t-76.5 32.5t-32.5 76.5zM702 1407q0 44 32.5 76.5t76.5 32.5t76.5 -32.5t32.5 -76.5t-32.5 -76.5
t-76.5 -32.5t-76.5 32.5t-32.5 76.5z" />
    <glyph glyph-name="afii10021.bgr" horiz-adv-x="1378" 
d="M0 150h123l452 1314h234l444 -1314h125v-416h-147l-10 266h-1063l-11 -266h-147v416zM291 150h786l-393 1167z" />
    <glyph glyph-name="afii10024.bgr" horiz-adv-x="1800" 
d="M43 0l596 743l-580 723h199l555 -710v708h174v-708l555 710h195l-572 -712l600 -754h-206l-572 719v-719h-174v719l-571 -719h-199z" />
    <glyph glyph-name="afii10028.bgr" horiz-adv-x="1261" 
d="M184 0v1464h178v-704l637 706h199l-651 -712l684 -754h-215l-654 715v-715h-178z" />
    <glyph glyph-name="afii10029.bgr" horiz-adv-x="1380" 
d="M74 0l504 1464h233l496 -1464h-177l-444 1317l-444 -1317h-168z" />
    <glyph glyph-name="afii10038.bgr" horiz-adv-x="1710" 
d="M115 719v10q0 130 33.5 234t92 175t141.5 119t178.5 70.5t207.5 24.5v133h174v-133q143 -3 258.5 -37.5t205.5 -104.5t139.5 -188t49.5 -277v-16q0 -126 -34 -226.5t-92.5 -168.5t-142 -114t-178.5 -67.5t-206 -23.5v-149h-174v149q-114 2 -210 23t-179 66t-140.5 112
t-90.5 166t-33 223zM297 717q0 -125 34 -214t99 -140.5t147 -75.5t191 -27v957q-84 -3 -150 -16.5t-128.5 -47t-103 -86.5t-65 -139t-24.5 -201v-10zM942 264q84 3 149.5 16t128 45t103.5 82.5t65.5 132.5t24.5 191v17q0 129 -34 221.5t-99 145.5t-147 78t-191 28v-957z" />
    <glyph glyph-name="afii10066.locl" horiz-adv-x="1236" 
d="M92 506v16q0 147 67.5 264t181.5 180.5t251 63.5h18q-186 100 -233 131q-135 87 -161 177q-7 26 -7 53q0 94 71 142t191 48h270q209 0 301 18l11 -143q-148 -35 -314 -35h-229q-68 0 -98.5 -15t-30.5 -54q0 -21 19 -43.5t57.5 -48t76.5 -46.5t98 -54t99 -56
q58 -34 98 -59.5t87 -61t78 -67.5t62 -75t49 -89t29 -104t11 -124v-16q0 -227 -150 -376.5t-379 -149.5q-112 0 -210 41t-166.5 111t-108 166.5t-39.5 205.5zM268 506q0 -170 95 -276.5t255 -106.5q159 0 255 107.5t96 275.5v14q0 172 -96.5 279.5t-254.5 107.5
q-159 0 -254.5 -107t-95.5 -278v-16z" />
    <glyph glyph-name="afii10067.bgr" horiz-adv-x="1040" 
d="M113 508v565q0 250 99 388t304 138q185 0 287 -107t102 -282v-6q0 -120 -70 -220t-182 -120q62 -9 114 -36t95 -73t67.5 -119.5t24.5 -166.5v-6q0 -213 -120.5 -348t-301.5 -135q-111 0 -193.5 39.5t-131 111.5t-71.5 166t-23 211zM283 494q0 -179 56.5 -275t186.5 -96
q122 0 190 90.5t68 249.5v6q0 163 -76.5 243.5t-236.5 80.5h-188v-299zM283 928h188q129 0 192.5 79t63.5 197v6q0 52 -11 94.5t-35 78t-66 55.5t-99 20q-66 0 -112 -27.5t-72 -80t-37.5 -117.5t-11.5 -150v-155z" />
    <glyph glyph-name="afii10068.bgr" horiz-adv-x="976" 
d="M82 279q0 48 11.5 88.5t28 69t46.5 53.5t55 40.5t67 31t68 23t72 19.5q51 13 80 21t68 24.5t59.5 35.5t35.5 49t15 69q0 65 -47.5 105t-136.5 40q-101 0 -153.5 -40t-71.5 -128h-164q11 84 45 145.5t87.5 96.5t116.5 51.5t138 16.5q160 0 261 -72.5t101 -204.5
q0 -33 -5 -62t-16 -52.5t-23 -43.5t-32.5 -37.5t-37 -30.5t-45 -25.5t-47.5 -20.5t-52.5 -18.5t-53.5 -15.5t-56 -15q-44 -12 -73 -21.5t-62.5 -26.5t-53 -37.5t-32.5 -52t-13 -71.5q0 -78 54.5 -119t160.5 -41q124 0 183.5 53.5t68.5 153.5h166q-8 -165 -118 -256.5
t-302 -91.5q-193 0 -293 83t-100 214z" />
    <glyph glyph-name="afii10068.locl" horiz-adv-x="903" 
d="M172 0v1071h680v-143h-510v-928h-170z" />
    <glyph glyph-name="afii10069.bgr" horiz-adv-x="1284" 
d="M92 543v14q0 145 62.5 266.5t178 194t259.5 72.5q125 0 212.5 -52.5t137.5 -138.5v172h170v-999q-1 -226 -140.5 -344.5t-371.5 -118.5q-224 0 -342.5 91.5t-142.5 238.5h174q38 -187 309 -187q164 0 254 81.5t90 248.5v156q-49 -83 -149.5 -143t-212.5 -60
q-211 0 -349.5 143.5t-138.5 364.5zM268 549q0 -170 95 -271.5t235 -101.5q153 0 251.5 101.5t98.5 277.5v14q0 179 -91 279t-249 100q-157 0 -248.5 -106t-91.5 -277v-16z" />
    <glyph glyph-name="afii10069.locl" horiz-adv-x="1183" 
d="M31 143h75q21 6 37 18t28 35.5t19.5 43t15 57.5t10.5 59t9 68q14 111 25.5 273t16.5 268l5 106h707v-928h164v-403h-137l-13 260h-813l-12 -260h-137v403zM311 143h502v789h-393q-12 -276 -39 -518q-21 -189 -70 -271z" />
    <glyph glyph-name="afii10072.bgr" horiz-adv-x="1452" 
d="M39 0l436 569l-397 502h182l383 -504v1016h166v-1016l383 504h184l-397 -502l436 -569h-192l-414 551v-551h-166v551l-414 -551h-190z" />
    <glyph glyph-name="afii10073.bgr" horiz-adv-x="923" 
d="M43 -61h174q19 -92 78.5 -139.5t155.5 -47.5q118 0 187 73.5t69 225.5v6q0 154 -73 228.5t-220 74.5h-97v136h95q121 0 179 62t58 173v6q0 96 -47 153.5t-149 57.5q-165 0 -201 -168h-164q11 84 45 145.5t86 96.5t112 51.5t130 16.5q170 0 268 -96t98 -257v-6
q0 -115 -65.5 -198.5t-165.5 -98.5q125 -24 203 -118t78 -259v-6q0 -207 -121 -324.5t-301 -117.5q-186 0 -287 91.5t-125 238.5z" />
    <glyph glyph-name="afii10074.bgr" horiz-adv-x="1216" 
d="M162 393v678h170v-670q0 -140 60.5 -206t187.5 -66q122 0 208 77.5t86 215.5v649h170v-1071h-170v170q-40 -81 -128.5 -134.5t-210.5 -53.5q-170 0 -271.5 100t-101.5 311z" />
    <glyph glyph-name="afii10075.bgr" horiz-adv-x="1216" 
d="M162 393v678h170v-670q0 -140 60.5 -206t187.5 -66q122 0 208 77.5t86 215.5v649h170v-1071h-170v170q-40 -81 -128.5 -134.5t-210.5 -53.5q-170 0 -271.5 100t-101.5 311zM334 1538h147q5 -66 35 -109t88 -43q61 0 94.5 42.5t40.5 109.5h144q-6 -116 -87 -193t-192 -77
q-110 0 -187 76.5t-83 193.5z" />
    <glyph glyph-name="afii10076.bgr" horiz-adv-x="1056" 
d="M172 0v1583h170v-1012l444 500h199l-459 -504l498 -567h-207l-475 547v-547h-170z" />
    <glyph glyph-name="afii10077.bgr" horiz-adv-x="1093" 
d="M51 0l385 1071h217l389 -1071h-184l-317 899l-314 -899h-176z" />
    <glyph glyph-name="afii10079.bgr" horiz-adv-x="1210" 
d="M172 0v1071h170v-450h526v450h170v-1071h-170v477h-526v-477h-170z" />
    <glyph glyph-name="afii10081.bgr" horiz-adv-x="1224" 
d="M172 0v1071h170v-170q40 81 129.5 135t214.5 54q175 0 276 -105t101 -328v-657h-170v670q0 141 -61.5 206.5t-190.5 65.5q-126 0 -212.5 -77.5t-86.5 -215.5v-649h-170z" />
    <glyph glyph-name="afii10081.locl" horiz-adv-x="1189" 
d="M172 0v1071h846v-1071h-170v928h-506v-928h-170z" />
    <glyph glyph-name="afii10084.bgr" horiz-adv-x="1863" 
d="M172 0v1071h170v-164q39 79 124 131t196 52q109 0 191.5 -49t121.5 -152q52 98 154.5 149.5t211.5 51.5q75 0 138 -23.5t114 -72.5t80 -133t29 -197v-664h-170v676q0 138 -57 202t-170 64q-114 0 -198.5 -75.5t-84.5 -211.5v-655h-170v676q0 138 -57 202t-170 64
q-114 0 -198.5 -75.5t-84.5 -211.5v-655h-170z" />
    <glyph glyph-name="afii10084.locl" horiz-adv-x="985" 
d="M61 928v143h863v-143h-346v-928h-170v928h-347z" />
    <glyph glyph-name="afii10088.bgr" horiz-adv-x="1249" 
d="M162 393v678h170v-670q0 -140 60.5 -206t187.5 -66q122 0 208 77.5t86 215.5v649h170v-928h164v-403h-137l-12 260h-185v170q-40 -81 -128.5 -134.5t-210.5 -53.5q-170 0 -271.5 100t-101.5 311z" />
    <glyph glyph-name="afii10089.bgr" horiz-adv-x="1138" 
d="M131 793v278h170v-270q0 -273 234 -273q85 0 152.5 31.5t109.5 87.5v424h170v-1071h-170v500q-110 -119 -308 -119q-75 0 -138 23.5t-113 71.5t-78.5 129t-28.5 188z" />
    <glyph glyph-name="afii10090.bgr" horiz-adv-x="1863" 
d="M162 408v663h170v-676q0 -138 57 -202t170 -64q114 0 198.5 75.5t84.5 211.5v655h170v-676q0 -138 57 -202t170 -64q72 0 135 32t105.5 100.5t42.5 160.5v649h170v-1071h-170v170q-39 -80 -124.5 -134t-195.5 -54q-109 0 -191.5 48.5t-121.5 151.5q-52 -98 -155 -149
t-212 -51q-75 0 -138 23.5t-114 72.5t-79.5 133t-28.5 197z" />
    <glyph glyph-name="afii10090.locl" horiz-adv-x="1660" 
d="M172 0v1071h170v-928h403v928h170v-928h404v928h170v-1071h-1317z" />
    <glyph glyph-name="afii10091.bgr" horiz-adv-x="1896" 
d="M162 408v663h170v-676q0 -138 57 -202t170 -64q114 0 198.5 75.5t84.5 211.5v655h170v-676q0 -138 57 -202t170 -64q72 0 135 32t105.5 100.5t42.5 160.5v649h170v-928h163v-403h-137l-12 260h-184v170q-39 -80 -124.5 -134t-195.5 -54q-109 0 -191.5 48.5t-121.5 151.5
q-52 -98 -155 -149t-212 -51q-75 0 -138 23.5t-114 72.5t-79.5 133t-28.5 197z" />
    <glyph glyph-name="afii10092.bgr" horiz-adv-x="1167" 
d="M51 928v143h455v-391q88 16 184 16q93 0 167 -19t130.5 -59t87.5 -107t31 -157v-6q0 -90 -33.5 -161.5t-90 -114.5t-124.5 -65.5t-141 -22.5q-181 0 -281 98t-100 289v557h-285zM506 371q0 -258 211 -258q105 0 162 62.5t57 164.5v6q0 110 -58.5 163.5t-185.5 53.5
q-98 0 -186 -16v-176z" />
    <glyph glyph-name="afii10094.bgr" horiz-adv-x="993" 
d="M162 371v700h170v-391q88 16 184 16q93 0 167 -19t130.5 -59t87.5 -107t31 -157v-6q0 -90 -33.5 -161.5t-90 -114.5t-124.5 -65.5t-141 -22.5q-181 0 -281 98t-100 289zM332 371q0 -258 211 -258q105 0 162 62.5t57 164.5v6q0 110 -58.5 163.5t-185.5 53.5
q-98 0 -186 -16v-176z" />
    <glyph glyph-name="afii10096.bgr" horiz-adv-x="1605" 
d="M172 0v1583h170v-962h164q23 212 158.5 340.5t343.5 128.5q226 0 365.5 -151.5t139.5 -393.5v-17q0 -244 -139.5 -395t-367.5 -151q-214 0 -351 138t-151 357h-162v-477h-170zM678 526q0 -187 85 -295t245 -108q158 0 243.5 109t85.5 294v15q0 189 -86 298t-243 109
q-159 0 -244.5 -108.5t-85.5 -296.5v-17z" />
    <glyph glyph-name="agrave.alt" horiz-adv-x="1259" 
d="M92 514v16q0 160 66 289t178 200t246 71q118 0 202 -51t134 -136v168h169v-1071h-169v180q-47 -81 -148 -139.5t-205 -58.5q-96 0 -182 36.5t-150.5 103.5t-102.5 168.5t-38 223.5zM268 522q0 -98 25.5 -175.5t69.5 -125.5t100.5 -73t120.5 -25q70 0 130.5 25.5t107.5 74
t74.5 127t27.5 178.5v17q0 199 -88 301t-238 102t-240 -108.5t-90 -300.5v-17zM352 1556h213l127 -301h-127z" />
    <glyph glyph-name="amacron.alt" horiz-adv-x="1259" 
d="M92 514v16q0 160 66 289t178 200t246 71q118 0 202 -51t134 -136v168h169v-1071h-169v180q-47 -81 -148 -139.5t-205 -58.5q-96 0 -182 36.5t-150.5 103.5t-102.5 168.5t-38 223.5zM268 522q0 -98 25.5 -175.5t69.5 -125.5t100.5 -73t120.5 -25q70 0 130.5 25.5t107.5 74
t74.5 127t27.5 178.5v17q0 199 -88 301t-238 102t-240 -108.5t-90 -300.5v-17zM346 1327v131h537v-131h-537z" />
    <glyph glyph-name="aogonek.alt" horiz-adv-x="1259" 
d="M92 514v16q0 160 66 289t178 200t246 71q118 0 202 -51t134 -136v168h169v-1061q-83 -51 -120 -95t-37 -91q0 -74 78 -74q61 0 106 23v-121q-62 -25 -133 -25q-96 0 -154.5 44t-58.5 120q0 62 41.5 115.5t108.5 89.5v184q-47 -81 -148 -139.5t-205 -58.5q-96 0 -182 36.5
t-150.5 103.5t-102.5 168.5t-38 223.5zM268 522q0 -98 25.5 -175.5t69.5 -125.5t100.5 -73t120.5 -25q70 0 130.5 25.5t107.5 74t74.5 127t27.5 178.5v17q0 199 -88 301t-238 102t-240 -108.5t-90 -300.5v-17z" />
    <glyph glyph-name="approxequal.tab" 
d="M195 340q10 118 73 181t152 63q66 0 141.5 -22.5t141.5 -45t110 -22.5q35 0 61.5 23.5t30.5 70.5h129q-9 -119 -71 -181.5t-148 -62.5q-69 0 -146 22.5t-142.5 45t-108.5 22.5q-35 0 -61 -24t-33 -70h-129zM195 702q10 118 73 181t152 63q66 0 141.5 -22.5t141.5 -45
t110 -22.5q35 0 61.5 23.5t30.5 70.5h129q-9 -119 -71 -181t-148 -62q-69 0 -146 22.5t-142.5 45t-108.5 22.5q-35 0 -61 -24.5t-33 -70.5h-129z" />
    <glyph glyph-name="aring.alt" horiz-adv-x="1259" 
d="M92 514v16q0 160 66 289t178 200t246 71q118 0 202 -51t134 -136v168h169v-1071h-169v180q-47 -81 -148 -139.5t-205 -58.5q-96 0 -182 36.5t-150.5 103.5t-102.5 168.5t-38 223.5zM268 522q0 -98 25.5 -175.5t69.5 -125.5t100.5 -73t120.5 -25q70 0 130.5 25.5t107.5 74
t74.5 127t27.5 178.5v17q0 199 -88 301t-238 102t-240 -108.5t-90 -300.5v-17zM383 1438q0 88 64 150.5t155 62.5t155 -62.5t64 -150.5t-64 -150.5t-155 -62.5t-155 62.5t-64 150.5zM494 1438q0 -51 30.5 -85t77.5 -34t78 34t31 85t-31 84.5t-78 33.5t-77.5 -33.5
t-30.5 -84.5z" />
    <glyph glyph-name="aringacute.alt" horiz-adv-x="1259" 
d="M92 514v16q0 160 66 289t178 200t246 71q118 0 202 -51t134 -136v168h169v-1071h-169v180q-47 -81 -148 -139.5t-205 -58.5q-96 0 -182 36.5t-150.5 103.5t-102.5 168.5t-38 223.5zM268 522q0 -98 25.5 -175.5t69.5 -125.5t100.5 -73t120.5 -25q70 0 130.5 25.5t107.5 74
t74.5 127t27.5 178.5v17q0 199 -88 301t-238 102t-240 -108.5t-90 -300.5v-17zM383 1397q0 88 64 150.5t155 62.5t155 -62.5t64 -150.5t-64 -150.5t-155 -62.5t-155 62.5t-64 150.5zM494 1397q0 -51 30.5 -85t77.5 -34t78 34t31 85t-31 85t-78 34t-77.5 -34t-30.5 -85z
M549 1698l115 260h213l-201 -260h-127z" />
    <glyph glyph-name="at.uc" horiz-adv-x="1873" 
d="M117 688q0 179 68 338t182.5 270.5t270 176.5t325.5 65q174 0 323 -56t252 -153.5t161 -231.5t58 -286q0 -108 -24 -196t-62 -144.5t-88 -95t-100.5 -54.5t-100.5 -16q-113 0 -164.5 44t-62.5 128q-44 -80 -125.5 -133t-171.5 -53q-146 0 -232.5 93t-86.5 253
q0 198 113.5 329.5t277.5 131.5q98 0 157 -38.5t82 -96.5l15 118h170l-60 -499q-21 -158 90 -158q95 0 159.5 96.5t64.5 286.5q0 269 -171.5 431.5t-473.5 162.5q-199 0 -355 -88.5t-244 -250.5t-88 -370q0 -137 42.5 -257.5t123 -214t209 -148t289.5 -54.5
q158 0 263.5 36.5t201.5 117.5h158q-78 -131 -244.5 -211t-378.5 -80q-155 0 -288.5 43.5t-230.5 119.5t-166.5 177.5t-103.5 220.5t-34 246zM711 639q0 -103 50.5 -162t133.5 -59q100 0 177 88t77 237q0 111 -54 167.5t-153 56.5q-98 0 -164.5 -88.5t-66.5 -239.5z" />
    <glyph glyph-name="atilde.alt" horiz-adv-x="1259" 
d="M92 514v16q0 160 66 289t178 200t246 71q118 0 202 -51t134 -136v168h169v-1071h-169v180q-47 -81 -148 -139.5t-205 -58.5q-96 0 -182 36.5t-150.5 103.5t-102.5 168.5t-38 223.5zM268 522q0 -98 25.5 -175.5t69.5 -125.5t100.5 -73t120.5 -25q70 0 130.5 25.5t107.5 74
t74.5 127t27.5 178.5v17q0 199 -88 301t-238 102t-240 -108.5t-90 -300.5v-17zM295 1264q12 108 69.5 172.5t137.5 64.5q37 0 79 -22t79 -44t61 -22q29 0 51.5 26t30.5 66h123q-12 -107 -69 -172t-136 -65q-37 0 -80 22t-80 44t-61 22q-29 0 -51.5 -26t-30.5 -66h-123z" />
    <glyph glyph-name="backslash.uc" horiz-adv-x="825" 
d="M61 1593h156l557 -1765h-156z" />
    <glyph glyph-name="bar.uc" horiz-adv-x="518" 
d="M190 -172v1765h138v-1765h-138z" />
    <glyph glyph-name="braceleft.tab" horiz-adv-x="614" 
d="M53 584v127q120 29 159 89t21 156l-38 213q-40 224 50.5 325t295.5 101v-129q-62 -1 -101.5 -15t-65 -48.5t-28 -92.5t9.5 -145l39 -235q18 -108 -34.5 -173t-165.5 -110q74 -30 119.5 -63.5t69 -89t11.5 -129.5l-39 -236q-12 -87 -9.5 -145t28 -92.5t65 -48.5t101.5 -15
v-129q-205 0 -295.5 101t-50.5 325l38 213q18 97 -21 157t-159 89z" />
    <glyph glyph-name="braceleft.uc" horiz-adv-x="780" 
d="M82 645v127q75 0 126.5 20t74 53.5t31.5 76.5t-1 88l-28 194q-31 211 70.5 301t334.5 90v-129q-104 -1 -159 -23t-77 -79.5t-8 -163.5l29 -217q28 -215 -201 -274q229 -59 201 -275l-29 -217q-14 -106 8 -163.5t77 -79.5t159 -23v-129q-233 0 -334.5 90t-70.5 301l28 195
q10 45 1 88t-31.5 76t-74 53t-126.5 20z" />
    <glyph glyph-name="braceright.tab" horiz-adv-x="614" 
d="M74 -172q62 1 101.5 15t64.5 48.5t27.5 92.5t-9.5 145l-39 236q-18 108 34.5 172t166.5 110q-55 22 -93.5 46t-67.5 57.5t-39 78.5t-1 101l39 235q12 87 9.5 145t-27.5 92.5t-64.5 48.5t-101.5 15v129q205 0 295.5 -101t50.5 -325l-39 -213q-18 -96 21 -156t159 -89v-127
q-120 -29 -159 -89t-21 -157l39 -213q40 -224 -50.5 -325t-295.5 -101v129z" />
    <glyph glyph-name="braceright.uc" horiz-adv-x="780" 
d="M90 -49q104 1 159 23t77 79.5t8 163.5l-29 217q-28 216 201 275q-229 59 -201 274l29 217q14 106 -8 163.5t-77 79.5t-159 23v129q233 0 335 -90t71 -301l-29 -194q-10 -45 -1 -88t31.5 -76.5t74 -53.5t126.5 -20v-127q-75 0 -126.5 -20t-74 -53t-31.5 -76t1 -88l29 -195
q31 -211 -71 -301t-335 -90v129z" />
    <glyph glyph-name="bracketleft.tab" horiz-adv-x="614" 
d="M143 -303v1892h398v-135h-228v-1622h228v-135h-398z" />
    <glyph glyph-name="bracketleft.uc" horiz-adv-x="729" 
d="M180 -172v1765h459v-135h-289v-1495h289v-135h-459z" />
    <glyph glyph-name="bracketright.tab" horiz-adv-x="614" 
d="M74 -168h227v1622h-227v135h397v-1892h-397v135z" />
    <glyph glyph-name="bracketright.uc" horiz-adv-x="729" 
d="M90 -37h289v1495h-289v135h459v-1765h-459v135z" />
    <glyph glyph-name="breve.uc" horiz-adv-x="819" 
d="M135 1841h135q23 -131 136 -131q121 0 147 131h131q-6 -116 -86.5 -193t-191.5 -77t-188 76.5t-83 193.5z" />
    <glyph glyph-name="caron.alt" horiz-adv-x="819" 
d="M373 1225l24 358h193l-98 -358h-119z" />
    <glyph glyph-name="caron.uc" horiz-adv-x="819" 
d="M113 1839h125l174 -119l174 119h121l-222 -260h-153z" />
    <glyph glyph-name="cent.tab" 
d="M129 524v17q0 223 128.5 371.5t326.5 172.5v203h121v-203q164 -13 275.5 -104t133.5 -266h-168q-17 104 -81 161t-160 68v-817q103 14 175 81t83 177h157q-15 -162 -129.5 -273t-285.5 -126v-262h-121v262q-203 21 -329 166t-126 372zM305 524q0 -171 74 -273t205 -124
v815q-126 -24 -202.5 -130.5t-76.5 -270.5v-17z" />
    <glyph glyph-name="circumflex.uc" horiz-adv-x="819" 
d="M113 1579l221 260h153l220 -260h-125l-174 119l-175 -119h-120z" />
    <glyph glyph-name="colon.tab" horiz-adv-x="614" 
d="M176 121q0 55 38.5 93t92.5 38t92.5 -38t38.5 -93t-38.5 -93t-92.5 -38t-92.5 38t-38.5 93zM176 729q0 55 38.5 93t92.5 38t92.5 -38t38.5 -93t-38.5 -93t-92.5 -38t-92.5 38t-38.5 93z" />
    <glyph glyph-name="comma.tab" horiz-adv-x="614" 
d="M92 -195l197 449l166 -78l-252 -428z" />
    <glyph glyph-name="dieresis.uc" horiz-adv-x="819" 
d="M92 1724q0 44 32.5 76.5t76.5 32.5t76 -32.5t32 -76.5t-32 -76t-76 -32t-76.5 32t-32.5 76zM508 1724q0 44 32 76.5t76 32.5t76.5 -32.5t32.5 -76.5t-32.5 -76t-76.5 -32t-76 32t-32 76z" />
    <glyph glyph-name="divide.tab" 
d="M158 629v143h915v-143h-915zM483 313q0 55 38.5 93t92.5 38t92.5 -38t38.5 -93t-38.5 -93t-92.5 -38t-92.5 38t-38.5 93zM483 1087q0 55 38.5 93.5t92.5 38.5t92.5 -38.5t38.5 -93.5t-38.5 -93t-92.5 -38t-92.5 38t-38.5 93z" />
    <glyph glyph-name="dollar.old" horiz-adv-x="1245" 
d="M90 432h166q9 -66 23.5 -112t47 -92t92 -73.5t146.5 -35.5v553q-210 39 -314 125t-104 256q0 156 116.5 264.5t301.5 118.5v180h119v-182q180 -19 286.5 -118t125.5 -269h-154q-23 114 -86 174.5t-172 74.5v-495q113 -19 191.5 -47.5t137 -74.5t86 -114.5t27.5 -163.5
q0 -169 -124.5 -286.5t-317.5 -130.5v-252h-119v252q-433 32 -475 448zM303 1069q0 -50 10.5 -85.5t38.5 -67t80 -54t133 -39.5v477q-122 -10 -192 -73.5t-70 -157.5zM684 119q121 12 199 86.5t78 183.5q0 113 -59.5 171.5t-217.5 90.5v-532z" />
    <glyph glyph-name="dollar.oldtab" 
d="M82 432h166q9 -66 23.5 -112t47 -92t92 -73.5t146.5 -35.5v553q-210 39 -314 125t-104 256q0 156 116.5 264.5t301.5 118.5v180h119v-182q180 -19 286 -118t125 -269h-153q-23 114 -86 174.5t-172 74.5v-495q113 -19 191.5 -47.5t137 -74.5t86 -114.5t27.5 -163.5
q0 -169 -124.5 -286.5t-317.5 -130.5v-252h-119v252q-433 32 -475 448zM295 1069q0 -50 10.5 -85.5t38.5 -67t80 -54t133 -39.5v477q-122 -10 -192 -73.5t-70 -157.5zM676 119q121 12 198.5 86.5t77.5 183.5q0 113 -59 171.5t-217 90.5v-532z" />
    <glyph glyph-name="dollar.tab" 
d="M66 446h172q9 -69 24.5 -118t49 -96.5t95 -75.5t150.5 -35v571q-216 41 -324 130.5t-108 264.5q0 159 121 270t311 124v184h121v-186q186 -17 296 -121t130 -279h-160q-23 118 -87.5 181.5t-178.5 78.5v-512q118 -20 199.5 -49.5t141 -77.5t88 -119t28.5 -169
q0 -174 -127 -293.5t-330 -134.5v-260h-121v260q-445 29 -491 462zM287 1102q0 -52 11 -88t39.5 -69t82.5 -56.5t137 -40.5v493q-128 -10 -199 -76t-71 -163zM678 121q130 15 208.5 91t78.5 189q0 117 -61.5 177.5t-225.5 93.5v-551z" />
    <glyph glyph-name="dotaccent.uc" horiz-adv-x="819" 
d="M297 1724q0 46 33.5 79.5t79.5 33.5t79 -33.5t33 -79.5t-33 -79t-79 -33t-79.5 33t-33.5 79z" />
    <glyph glyph-name="eight.den" horiz-adv-x="643" 
d="M55 197q0 66 34.5 111.5t94.5 66.5q-102 44 -102 145q0 86 70.5 137.5t169.5 51.5t168 -51t69 -136q0 -100 -104 -145q131 -50 131 -176q0 -99 -76 -155t-191 -56q-112 0 -188 54.5t-76 152.5zM195 209q0 -55 36 -86t91 -31q56 0 91.5 31t35.5 88q0 54 -35.5 85.5
t-91.5 31.5q-55 0 -91 -32t-36 -87zM213 512q0 -44 32 -70t77 -26q48 0 77 26.5t29 71.5q0 43 -30.5 69.5t-75.5 26.5q-47 0 -78 -26.5t-31 -71.5z" />
    <glyph glyph-name="eight.num" horiz-adv-x="641" 
d="M55 961q0 66 34.5 111.5t94.5 66.5q-102 44 -102 145q0 86 70.5 137.5t169.5 51.5t168 -51t69 -136q0 -100 -104 -145q131 -50 131 -176q0 -99 -76 -155t-191 -56q-112 0 -188 54.5t-76 152.5zM195 973q0 -55 36 -86t91 -31q56 0 91.5 31t35.5 88q0 54 -35.5 85.5
t-91.5 31.5q-55 0 -91 -32t-36 -87zM213 1276q0 -44 32 -70t77 -26q48 0 77 26.5t29 71.5q0 43 -30.5 69.5t-75.5 26.5q-47 0 -78 -26.5t-31 -71.5z" />
    <glyph glyph-name="eight.old" horiz-adv-x="1218" 
d="M109 410q0 140 79.5 234.5t206.5 137.5q-107 39 -169 121t-62 195q0 88 38 162.5t101 122t142.5 74t164.5 26.5q115 0 215.5 -45t165 -133.5t64.5 -202.5q0 -113 -63.5 -193.5t-172.5 -124.5q134 -46 212.5 -140t78.5 -230q0 -103 -43 -187t-114.5 -136.5t-159.5 -80.5
t-183 -28q-92 0 -180 28t-160.5 79.5t-116.5 135t-44 185.5zM287 416q0 -134 94.5 -212.5t228.5 -78.5q140 0 231 79t91 216q0 135 -91 211t-227 76q-137 0 -232 -78t-95 -213zM340 1096q0 -115 79.5 -182.5t196.5 -67.5q119 0 191 68t72 186q0 108 -77 177t-192 69
q-117 0 -193.5 -68t-76.5 -182z" />
    <glyph glyph-name="eight.oldtab" 
d="M131 410q0 141 76 235.5t201 136.5q-106 39 -164 120.5t-58 195.5q0 89 36.5 163t96.5 121.5t137 74t160 26.5q112 0 208.5 -45t158 -133.5t61.5 -202.5q0 -115 -59.5 -195t-165.5 -123q132 -46 206.5 -139.5t74.5 -230.5q0 -103 -41.5 -187t-110.5 -136.5t-154.5 -80.5
t-177.5 -28q-89 0 -174 28t-155 79.5t-113 135t-43 185.5zM309 416q0 -134 89 -212.5t218 -78.5q134 0 220 79t86 216q0 135 -85 211t-216 76q-132 0 -222 -77.5t-90 -213.5zM362 1096q0 -115 75.5 -182.5t185.5 -67.5q112 0 178.5 67.5t66.5 186.5q0 108 -72 177t-180 69
q-110 0 -182 -68t-72 -182z" />
    <glyph glyph-name="eight.sub" horiz-adv-x="643" 
d="M55 20q0 66 34.5 112t94.5 67q-102 44 -102 145q0 86 70.5 137t169.5 51t168 -50.5t69 -135.5q0 -100 -104 -145q131 -50 131 -176q0 -99 -76 -155t-191 -56q-112 0 -188 54t-76 152zM195 33q0 -55 36 -86t91 -31q56 0 91.5 31t35.5 88q0 54 -35.5 85.5t-91.5 31.5
q-55 0 -91 -32t-36 -87zM213 336q0 -44 32 -70t77 -26q48 0 77 26.5t29 71.5q0 43 -30.5 69.5t-75.5 26.5q-47 0 -78 -26.5t-31 -71.5z" />
    <glyph glyph-name="eight.sup" horiz-adv-x="643" 
d="M55 1079q0 66 34.5 111.5t94.5 66.5q-102 44 -102 146q0 86 70.5 137t169.5 51t168 -50.5t69 -135.5q0 -100 -104 -145q131 -50 131 -177q0 -99 -76 -155t-191 -56q-112 0 -188 54.5t-76 152.5zM195 1092q0 -55 36 -86t91 -31q56 0 91.5 31t35.5 88q0 54 -35.5 85
t-91.5 31q-55 0 -91 -31.5t-36 -86.5zM213 1395q0 -44 32 -70.5t77 -26.5q48 0 77 27t29 72q0 43 -30.5 69.5t-75.5 26.5q-47 0 -78 -26.5t-31 -71.5z" />
    <glyph glyph-name="eight.tab" 
d="M111 416q0 141 76 238t200 141q-105 40 -163 120t-58 187q0 86 38.5 159.5t102 121t144 74t165.5 26.5q115 0 216.5 -45.5t167 -133.5t65.5 -198q0 -107 -60 -185t-165 -124q131 -47 205.5 -143.5t74.5 -233.5q0 -106 -43.5 -191.5t-116 -138t-161 -80.5t-183.5 -28
q-92 0 -180.5 27.5t-161.5 79.5t-118 137t-45 190zM293 422q0 -138 94 -216.5t229 -78.5q141 0 231.5 79t90.5 220q0 139 -90 215t-227 76q-138 0 -233 -77.5t-95 -217.5zM346 1100q0 -112 80 -177t197 -65q119 0 190.5 65.5t71.5 180.5q0 105 -77 172t-192 67
q-117 0 -193.5 -66t-76.5 -177z" />
    <glyph glyph-name="emdash.uc" horiz-adv-x="1812" 
d="M92 596v143h1628v-143h-1628z" />
    <glyph glyph-name="endash.uc" horiz-adv-x="1077" 
d="M92 596v143h893v-143h-893z" />
    <glyph glyph-name="equal.tab" 
d="M201 401v148h827v-148h-827zM201 770v148h827v-148h-827z" />
    <glyph glyph-name="exclamdown.uc" horiz-adv-x="589" 
d="M164 1343q0 55 38.5 93.5t92.5 38.5t92.5 -38.5t38.5 -93.5t-38.5 -93t-92.5 -38t-92.5 38t-38.5 93zM199 0l28 1051h131l29 -1051h-188z" />
    <glyph glyph-name="f.short" horiz-adv-x="677" 
d="M55 928v143h154v174q0 165 79.5 254.5t235.5 89.5q73 0 117 -16v-143q-47 18 -111 18q-151 0 -151 -184v-193h262v-143h-262v-928h-170v928h-154z" />
    <glyph glyph-name="f_f.short" horiz-adv-x="1267" 
d="M55 928v143h154v160q0 165 80.5 254.5t238.5 89.5q62 0 127 -21v-143q-59 23 -120 23q-80 0 -118 -49.5t-38 -135.5v-178h420v174q0 165 79.5 254.5t235.5 89.5q73 0 117 -16v-143q-47 18 -111 18q-151 0 -151 -184v-193h262v-143h-262v-928h-170v928h-420v-928h-170v928
h-154z" />
    <glyph glyph-name="five.den" horiz-adv-x="620" 
d="M43 203h129q8 -53 35 -80t90 -27q56 0 87.5 36.5t31.5 100.5q0 62 -32 98t-89 36q-93 0 -143 -60h-74l8 393h430v-106h-326l-2 -188q54 61 154 61q97 0 156 -63.5t59 -172.5q0 -111 -71.5 -176t-188.5 -65q-120 0 -184 58t-70 155z" />
    <glyph glyph-name="five.num" horiz-adv-x="618" 
d="M43 967h129q8 -53 35 -80t90 -27q56 0 87.5 36.5t31.5 100.5q0 62 -32 97.5t-89 35.5q-94 0 -143 -59h-74l8 393h430v-106h-326l-2 -189q54 62 154 62q97 0 156 -63.5t59 -172.5q0 -111 -71.5 -176t-188.5 -65q-120 0 -184 58t-70 155z" />
    <glyph glyph-name="five.old" horiz-adv-x="1165" 
d="M88 184h162q22 -128 91.5 -194t221.5 -66q143 0 227 93.5t84 254.5q0 150 -81.5 242t-214.5 92q-120 0 -201 -34.5t-141 -102.5h-62v799h803v-150h-662v-469q46 43 122.5 69.5t172.5 26.5q194 0 318.5 -129.5t124.5 -343.5q0 -146 -66.5 -258t-176.5 -170.5t-245 -58.5
q-220 0 -340.5 108.5t-136.5 290.5z" />
    <glyph glyph-name="five.oldtab" 
d="M129 184h162q22 -128 91.5 -194t221.5 -66q143 0 227 93.5t84 254.5q0 149 -82 241.5t-215 92.5q-120 0 -201 -34.5t-141 -102.5h-61v799h803v-150h-662v-469q46 43 122.5 69.5t172.5 26.5q194 0 318.5 -129.5t124.5 -343.5q0 -146 -66.5 -258t-176.5 -170.5t-245 -58.5
q-220 0 -340.5 108.5t-136.5 290.5z" />
    <glyph glyph-name="five.sub" horiz-adv-x="620" 
d="M43 27h129q8 -53 35 -80t90 -27q56 0 87.5 36.5t31.5 100.5q0 62 -32 97.5t-89 35.5q-94 0 -143 -59h-74l8 393h430v-106h-326l-2 -189q54 62 154 62q97 0 156 -63.5t59 -172.5q0 -111 -71.5 -176t-188.5 -65q-120 0 -184 58t-70 155z" />
    <glyph glyph-name="five.sup" horiz-adv-x="620" 
d="M43 1085h129q8 -53 35 -79.5t90 -26.5q56 0 87.5 36.5t31.5 100.5q0 62 -32 97.5t-89 35.5q-94 0 -143 -59h-74l8 393h430v-106h-326l-2 -189q54 62 154 62q97 0 156 -63.5t59 -172.5q0 -111 -71.5 -176.5t-188.5 -65.5q-120 0 -184 58t-70 155z" />
    <glyph glyph-name="five.tab" 
d="M102 395h170q12 -65 31 -110.5t54 -83.5t92.5 -57t138.5 -19q150 0 235.5 94.5t85.5 259.5q0 155 -84 248.5t-223 93.5q-122 0 -203 -35.5t-143 -105.5h-66v784h824v-153h-676v-447q108 101 299 101q200 0 327.5 -132.5t127.5 -353.5q0 -150 -67.5 -264.5t-181 -173.5
t-253.5 -59q-227 0 -349.5 112t-138.5 301z" />
    <glyph glyph-name="florin.tab" 
d="M227 707v139h240l47 311q51 326 346 326q75 0 139 -23v-143q-62 24 -135 24q-154 0 -182 -192l-47 -303h291v-139h-312l-163 -1080h-170l163 1080h-217z" />
    <glyph glyph-name="four.den" horiz-adv-x="651" 
d="M35 141v49l313 510h170v-458h92v-101h-92v-141h-131v141h-352zM182 242h207v354z" />
    <glyph glyph-name="four.num" horiz-adv-x="649" 
d="M35 905v49l313 510h170v-458h92v-101h-92v-141h-131v141h-352zM182 1006h207v354z" />
    <glyph glyph-name="four.old" horiz-adv-x="1263" 
d="M61 117v57l689 1092h233v-1012h207v-137h-207v-316h-170v316h-752zM281 254h532v876z" />
    <glyph glyph-name="four.oldtab" 
d="M74 117v57l639 1092h241v-1012h191v-137h-191v-316h-170v316h-710zM287 254h497v876z" />
    <glyph glyph-name="four.sub" horiz-adv-x="651" 
d="M35 14l313 510h170v-458h92v-101h-92v-141h-131v141h-352v49zM182 66h207v354z" />
    <glyph glyph-name="four.sup" horiz-adv-x="651" 
d="M35 1024v49l313 510h170v-459h92v-100h-92v-141h-131v141h-352zM182 1124h207v355z" />
    <glyph glyph-name="four.tab" 
d="M84 307v58l649 1099h238v-1011h172v-146h-172v-307h-174v307h-713zM305 453h492v866z" />
    <glyph glyph-name="germandbls.alt" horiz-adv-x="1259" 
d="M172 0v1118q0 212 131 341.5t332 129.5q169 0 280 -84t111 -227q0 -66 -31 -124t-75 -98.5t-88.5 -77t-75.5 -76t-31 -79.5q0 -13 3.5 -23.5t13.5 -22t19.5 -20t31.5 -23t38.5 -24.5t51 -31t59.5 -36q52 -33 89.5 -63t76 -71.5t58.5 -92t20 -107.5q0 -155 -96.5 -241
t-255.5 -86q-151 0 -247 83t-100 224h164q5 -74 52 -120t131 -46q83 0 129.5 45t46.5 137q0 37 -15 68t-48.5 59.5t-60 46t-77.5 47.5q-40 24 -60.5 36.5t-55 36.5t-53 44t-39 48t-29.5 59t-9 67q0 47 22.5 91.5t55.5 78t72.5 69.5t72.5 67t55.5 70t22.5 79q0 86 -60.5 132
t-168.5 46q-138 0 -215.5 -83t-77.5 -241v-1126h-170z" />
    <glyph glyph-name="grave.uc" horiz-adv-x="819" 
d="M162 1839h213l114 -260h-127z" />
    <glyph glyph-name="greater.tab" 
d="M236 195v163l538 301l-538 302v163l786 -444v-41z" />
    <glyph glyph-name="greaterequal.tab" 
d="M236 0v143h786v-143h-786zM236 244v164l532 276l-532 277v163l786 -419v-41z" />
    <glyph glyph-name="guillemotleft.uc" horiz-adv-x="1024" 
d="M121 616l266 385h168l-256 -385l256 -385h-168zM485 616l267 385h168l-256 -385l256 -385h-168z" />
    <glyph glyph-name="guillemotright.uc" horiz-adv-x="1024" 
d="M104 231l256 385l-256 385h168l267 -385l-267 -385h-168zM469 231l256 385l-256 385h168l266 -385l-266 -385h-168z" />
    <glyph glyph-name="guilsinglleft.uc" horiz-adv-x="659" 
d="M121 616l266 385h168l-256 -385l256 -385h-168z" />
    <glyph glyph-name="guilsinglright.uc" horiz-adv-x="659" 
d="M104 231l256 385l-256 385h168l267 -385l-267 -385h-168z" />
    <glyph glyph-name="hungarumlaut.uc" horiz-adv-x="819" 
d="M197 1579l75 260h195l-148 -260h-122zM512 1579l76 260h194l-147 -260h-123z" />
    <glyph glyph-name="hyphen.uc" horiz-adv-x="745" 
d="M123 590v160h500v-160h-500z" />
    <glyph glyph-name="idotaccent" horiz-adv-x="522" 
d="M145 1407q0 46 33.5 79.5t79.5 33.5t79.5 -33.5t33.5 -79.5t-33.5 -79.5t-79.5 -33.5t-79.5 33.5t-33.5 79.5zM176 0v1071h170v-1071h-170z" />
    <glyph glyph-name="less.tab" 
d="M207 639v41l786 444v-163l-538 -302l538 -301v-163z" />
    <glyph glyph-name="lessequal.tab" 
d="M207 0v143h786v-143h-786zM207 664v41l786 419v-163l-532 -277l532 -276v-164z" />
    <glyph glyph-name="macron.uc" horiz-adv-x="819" 
d="M137 1610v131h545v-131h-545z" />
    <glyph glyph-name="minus.sub" horiz-adv-x="694" 
d="M84 115v108h526v-108h-526z" />
    <glyph glyph-name="minus.sup" horiz-adv-x="694" 
d="M84 1176v108h526v-108h-526z" />
    <glyph glyph-name="minus.tab" 
d="M158 629v143h915v-143h-915z" />
    <glyph glyph-name="multiply.tab" 
d="M203 367l315 315l-315 315l96 99l315 -318l316 318l98 -99l-315 -315l315 -315l-98 -99l-316 318l-315 -318z" />
    <glyph glyph-name="nine.den" horiz-adv-x="657" 
d="M57 469q0 110 70.5 176t191.5 66q137 0 208 -86.5t71 -241.5v-35q0 -172 -75 -265t-214 -93q-107 0 -170.5 50.5t-75.5 143.5h130q20 -88 116 -88q149 0 152 234q-57 -88 -170 -88q-103 0 -168.5 62t-65.5 165zM193 473q0 -61 34 -98t92 -37t95 35.5t37 91.5
q0 67 -36.5 106t-95.5 39q-57 0 -91.5 -37.5t-34.5 -99.5z" />
    <glyph glyph-name="nine.num" horiz-adv-x="655" 
d="M57 1233q0 110 70.5 176t191.5 66q137 0 208 -86.5t71 -241.5v-35q0 -172 -75 -265t-214 -93q-107 0 -170.5 50.5t-75.5 143.5h130q20 -88 116 -88q149 0 152 234q-57 -88 -170 -88q-103 0 -168.5 62t-65.5 165zM193 1237q0 -61 34 -98t92 -37t95 35.5t37 91.5
q0 67 -36.5 106t-95.5 39q-57 0 -91.5 -37.5t-34.5 -99.5z" />
    <glyph glyph-name="nine.old" horiz-adv-x="1251" 
d="M113 807q0 216 135.5 347.5t361.5 131.5q114 0 204 -33.5t148.5 -92t97 -142.5t54.5 -178.5t16 -206.5v-62q0 -388 -138.5 -587t-409.5 -199q-192 0 -311 99.5t-146 269.5h166q58 -228 305 -228q190 0 272 145t88 457q-52 -87 -150 -139.5t-220 -52.5q-211 0 -342 134.5
t-131 336.5zM291 815q0 -155 87.5 -248.5t233.5 -93.5q145 0 239.5 89.5t94.5 228.5q0 170 -93 264t-243 94q-142 0 -230.5 -91.5t-88.5 -242.5z" />
    <glyph glyph-name="nine.oldtab" 
d="M113 807q0 215 135 347t352 132q132 0 229.5 -46.5t156 -132.5t86.5 -197.5t28 -250.5v-116q0 -758 -529 -758q-190 0 -304.5 98.5t-141.5 270.5h166q28 -108 95.5 -168t199.5 -60q171 0 252.5 148t87.5 454q-53 -88 -143.5 -140t-207.5 -52q-204 0 -333 135t-129 336z
M291 815q0 -154 86.5 -248t224.5 -94q136 0 224.5 89.5t88.5 228.5q0 170 -87.5 264t-227.5 94q-134 0 -221.5 -92t-87.5 -242z" />
    <glyph glyph-name="nine.sub" horiz-adv-x="657" 
d="M57 293q0 110 70.5 176t191.5 66q137 0 208 -86.5t71 -241.5v-35q0 -172 -75 -265t-214 -93q-107 0 -170.5 50.5t-75.5 143.5h130q20 -88 116 -88q149 0 152 234q-57 -88 -170 -88q-103 0 -168.5 62t-65.5 165zM193 297q0 -61 34 -98t92 -37t95 35.5t37 91.5
q0 67 -36.5 106t-95.5 39q-57 0 -91.5 -37.5t-34.5 -99.5z" />
    <glyph glyph-name="nine.sup" horiz-adv-x="657" 
d="M57 1352q0 109 70.5 175t191.5 66q137 0 208 -86t71 -241v-35q0 -172 -75 -265.5t-214 -93.5q-107 0 -170.5 51t-75.5 144h130q20 -88 116 -88q149 0 152 233q-57 -88 -170 -88q-103 0 -168.5 62.5t-65.5 165.5zM193 1356q0 -61 34 -98t92 -37t95 35.5t37 91.5
q0 67 -36.5 106t-95.5 39q-57 0 -91.5 -37.5t-34.5 -99.5z" />
    <glyph glyph-name="nine.tab" 
d="M92 995q0 221 137.5 355.5t368.5 134.5q258 0 392 -169t134 -487v-92q0 -363 -144 -558t-407 -195q-200 0 -320.5 98.5t-150.5 277.5h172q26 -113 97.5 -172t206.5 -59q177 0 274 147t100 435q-53 -90 -153.5 -142.5t-225.5 -52.5q-212 0 -346.5 135.5t-134.5 343.5z
M274 1004q0 -159 88.5 -254t237.5 -95q148 0 242 88t94 230q0 176 -93 274.5t-245 98.5q-145 0 -234.5 -93.5t-89.5 -248.5z" />
    <glyph glyph-name="notequal.tab" 
d="M201 401v148h299l84 221h-383v148h440l82 210h156l-82 -210h231v-148h-289l-84 -221h373v-148h-430l-82 -211h-156l82 211h-241z" />
    <glyph glyph-name="one.den" horiz-adv-x="475" 
d="M49 455v120l182 125h123v-700h-139v565z" />
    <glyph glyph-name="one.num" horiz-adv-x="473" 
d="M49 1219v120l182 125h123v-700h-139v565z" />
    <glyph glyph-name="one.old" horiz-adv-x="792" 
d="M72 864v164l336 240h161v-1268h-174v1094z" />
    <glyph glyph-name="one.oldtab" 
d="M236 791v163l430 314h161v-1268h-174v1094z" />
    <glyph glyph-name="one.sub" horiz-adv-x="475" 
d="M49 276v121l182 125h123v-700h-139v565z" />
    <glyph glyph-name="one.sup" horiz-adv-x="475" 
d="M49 1337v121l182 125h123v-700h-139v565z" />
    <glyph glyph-name="one.tab" 
d="M223 948v166l412 350h186v-1464h-178v1284z" />
    <glyph glyph-name="parenleft.tab" horiz-adv-x="614" 
d="M106 639q0 525 279 944h170q-270 -432 -270 -944q0 -510 270 -942h-170q-279 419 -279 942z" />
    <glyph glyph-name="parenleft.uc" horiz-adv-x="659" 
d="M117 700q0 260 94.5 497t239.5 407h167q-141 -178 -232 -414t-91 -490q0 -253 90.5 -487.5t232.5 -413.5h-167q-145 171 -239.5 406t-94.5 495z" />
    <glyph glyph-name="parenright.tab" horiz-adv-x="614" 
d="M59 -303q271 434 271 942q0 510 -271 944h170q279 -419 279 -944q0 -523 -279 -942h-170z" />
    <glyph glyph-name="parenright.uc" horiz-adv-x="659" 
d="M41 -201q142 179 233 414.5t91 488.5t-91 488t-233 414h168q145 -170 239.5 -406t94.5 -496t-94.5 -496.5t-239.5 -406.5h-168z" />
    <glyph glyph-name="percent.tab" horiz-adv-x="1638" 
d="M86 1126q0 149 100 250t236 101q138 0 237 -100t99 -247q0 -149 -100 -247.5t-236 -98.5q-134 0 -235 98t-101 244zM242 1128q0 -102 48 -156t132 -54t132 55t48 157q0 98 -48.5 155.5t-131.5 57.5t-131.5 -56t-48.5 -159zM293 0l895 1464h155l-894 -1464h-156zM881 326
q0 149 100 249.5t236 100.5q138 0 236.5 -99.5t98.5 -246.5q0 -149 -99.5 -247.5t-235.5 -98.5q-134 0 -235 98t-101 244zM1036 328q0 -102 48.5 -156.5t132.5 -54.5t132 55.5t48 157.5q0 98 -48.5 155.5t-131.5 57.5t-132 -56t-49 -159z" />
    <glyph glyph-name="period.tab" horiz-adv-x="614" 
d="M176 121q0 55 38.5 93t92.5 38t92.5 -38t38.5 -93t-38.5 -93t-92.5 -38t-92.5 38t-38.5 93z" />
    <glyph glyph-name="perthousand.tab" horiz-adv-x="2048" 
d="M92 1139q0 156 81 247t196 91q117 0 196.5 -90t79.5 -244q0 -153 -81 -243.5t-195 -90.5q-113 0 -195 90t-82 240zM186 0l895 1464h156l-895 -1464h-156zM244 1141q0 -97 32.5 -149t92.5 -52t92.5 53.5t32.5 149.5q0 94 -33 148.5t-92 54.5q-60 0 -92.5 -53.5
t-32.5 -151.5zM772 313q0 156 81 247t196 91q117 0 196.5 -90t79.5 -244q0 -153 -80.5 -243t-195.5 -90q-113 0 -195 89.5t-82 239.5zM924 315q0 -97 32.5 -148.5t92.5 -51.5t92.5 53t32.5 149q0 94 -33 148.5t-92 54.5q-60 0 -92.5 -53.5t-32.5 -151.5zM1403 313
q0 156 80.5 247t195.5 91q117 0 197 -90t80 -244q0 -153 -81 -243t-196 -90q-113 0 -194.5 89.5t-81.5 239.5zM1554 315q0 -97 32.5 -148.5t92.5 -51.5t92.5 53t32.5 149q0 94 -33 148.5t-92 54.5q-60 0 -92.5 -53.5t-32.5 -151.5z" />
    <glyph glyph-name="plus.sub" horiz-adv-x="694" 
d="M84 115v108h207v217h112v-217h207v-108h-207v-215h-112v215h-207z" />
    <glyph glyph-name="plus.sup" horiz-adv-x="694" 
d="M84 1176v108h207v217h112v-217h207v-108h-207v-215h-112v215h-207z" />
    <glyph glyph-name="plus.tab" 
d="M158 629v143h383v414h149v-414h383v-143h-383v-414h-149v414h-383z" />
    <glyph glyph-name="plusminus.tab" 
d="M158 0v143h915v-143h-915zM158 670v143h383v373h149v-373h383v-143h-383v-373h-149v373h-383z" />
    <glyph glyph-name="questiondown.uc" horiz-adv-x="1001" 
d="M102 322q0 44 13 86t28 71.5t48 68.5t52 57.5t60 58.5q45 43 69 68.5t54 65.5t43.5 80t13.5 85v88h152v-103q0 -40 -7.5 -76.5t-26 -72t-32.5 -59t-46.5 -59t-46.5 -49.5l-52 -52q-37 -37 -58.5 -61t-45.5 -57t-35 -66t-11 -68q0 -95 55 -150t165 -55q115 0 188 72
t84 194h160q-11 -181 -129.5 -294t-304.5 -113q-101 0 -178 28.5t-122 77.5t-67.5 108t-22.5 126zM432 1343q0 55 38.5 93.5t92.5 38.5t92.5 -38.5t38.5 -93.5t-38.5 -93t-92.5 -38t-92.5 38t-38.5 93z" />
    <glyph glyph-name="registered.alt" horiz-adv-x="1728" 
d="M113 731q0 154 59 293.5t159 240t240 159.5t295 59q157 0 296.5 -59t238.5 -159t157 -238t58 -292q0 -157 -59 -297t-159.5 -240t-240 -158t-295.5 -58q-205 0 -377 98t-272 270.5t-100 380.5zM211 731q0 -144 53.5 -269.5t143.5 -211t208 -134t246 -48.5
q130 0 249.5 49.5t209.5 135.5t143.5 212t53.5 270q0 190 -89 342.5t-238 236t-325 83.5q-178 0 -327.5 -84t-238.5 -237.5t-89 -344.5zM588 334v809h276q140 0 220.5 -59t80.5 -179v-4q0 -90 -48.5 -143.5t-129.5 -73.5l225 -350h-161l-211 325h-99v-325h-153zM741 768h121
q150 0 150 127v6q0 123 -150 123h-121v-256z" />
    <glyph glyph-name="ring.uc" horiz-adv-x="819" 
d="M190 1767q0 88 64.5 150.5t155.5 62.5t155 -62.5t64 -150.5t-64 -150.5t-155 -62.5t-155.5 62.5t-64.5 150.5zM301 1767q0 -51 31 -84.5t78 -33.5t77.5 33.5t30.5 84.5t-30.5 85t-77.5 34t-78 -34t-31 -85z" />
    <glyph glyph-name="semicolon.tab" horiz-adv-x="614" 
d="M51 -195l197 449l166 -78l-252 -428zM195 729q0 55 38.5 93t92.5 38t92.5 -38t38.5 -93t-38.5 -93t-92.5 -38t-92.5 38t-38.5 93z" />
    <glyph glyph-name="seven.den" horiz-adv-x="550" 
d="M35 588v112h493v-16l-254 -684h-139l221 588h-321z" />
    <glyph glyph-name="seven.num" horiz-adv-x="548" 
d="M35 1352v112h493v-16l-254 -684h-139l221 588h-321z" />
    <glyph glyph-name="seven.old" horiz-adv-x="1071" 
d="M59 1126v140h959v-25l-592 -1440h-178l553 1325h-742z" />
    <glyph glyph-name="seven.oldtab" 
d="M139 1126v140h959v-25l-617 -1440h-178l569 1325h-733z" />
    <glyph glyph-name="seven.sub" horiz-adv-x="550" 
d="M35 412v112h493v-16l-254 -684h-139l221 588h-321z" />
    <glyph glyph-name="seven.sup" horiz-adv-x="550" 
d="M35 1470v113h493v-16l-254 -684h-139l221 587h-321z" />
    <glyph glyph-name="seven.tab" 
d="M143 1321v143h965v-24l-586 -1440h-182l539 1321h-736z" />
    <glyph glyph-name="six.den" horiz-adv-x="657" 
d="M61 319v19q0 176 82 273.5t217 97.5q96 0 155 -47.5t71 -139.5h-127q-10 41 -34 61.5t-71 20.5q-71 0 -111.5 -60.5t-43.5 -176.5q56 90 172 90q101 0 166 -63t65 -165q0 -108 -71 -173.5t-193 -65.5q-75 0 -129.5 24.5t-86 70t-46.5 103.5t-15 131zM205 233
q0 -66 36.5 -104.5t96.5 -38.5q57 0 92 37.5t35 97.5q0 62 -34.5 99.5t-92.5 37.5q-59 0 -96 -36t-37 -93z" />
    <glyph glyph-name="six.num" horiz-adv-x="655" 
d="M61 1083v19q0 176 82 273.5t217 97.5q96 0 155 -47.5t71 -139.5h-127q-10 41 -34 61.5t-71 20.5q-71 0 -111.5 -61t-43.5 -177q57 91 172 91q101 0 166 -63t65 -165q0 -108 -71 -173.5t-193 -65.5q-75 0 -129.5 24.5t-86 70t-46.5 103.5t-15 131zM205 997
q0 -66 36.5 -104.5t96.5 -38.5q57 0 92 37.5t35 97.5q0 62 -34.5 99.5t-92.5 37.5q-59 0 -96 -36t-37 -93z" />
    <glyph glyph-name="six.old" horiz-adv-x="1251" 
d="M121 635v61q0 190 41 340t115.5 247.5t177.5 148.5t227 51q171 0 283 -89t141 -259h-166q-26 104 -89 155t-181 51q-168 0 -268.5 -153.5t-106.5 -448.5q52 87 150.5 140t220.5 53q211 0 342 -134.5t131 -336.5q0 -216 -136 -347.5t-362 -131.5q-114 0 -204 33.5
t-148.5 92t-97 142.5t-54.5 178.5t-16 206.5zM305 477q0 -170 93 -264t243 -94q142 0 231 91.5t89 242.5q0 155 -88 248.5t-234 93.5q-145 0 -239.5 -89.5t-94.5 -228.5z" />
    <glyph glyph-name="six.oldtab" 
d="M131 616v103q0 364 146 564t395 200q169 0 282 -89.5t142 -258.5h-166q-25 103 -90 154.5t-181 51.5q-163 0 -255.5 -152.5t-98.5 -449.5q54 89 144 141t210 52q210 0 335.5 -134t125.5 -337q0 -216 -132.5 -347.5t-352.5 -131.5q-131 0 -229.5 48t-157.5 134.5
t-88 199.5t-29 252zM315 477q0 -169 90 -263.5t230 -94.5q134 0 220.5 92t86.5 242q0 154 -86 248t-223 94q-136 0 -227 -90t-91 -228z" />
    <glyph glyph-name="six.sub" horiz-adv-x="657" 
d="M61 143v19q0 176 82 273t217 97q96 0 155 -47t71 -139h-127q-10 41 -34 61.5t-71 20.5q-71 0 -111.5 -61t-43.5 -177q57 91 172 91q101 0 166 -63t65 -165q0 -108 -71 -173.5t-193 -65.5q-75 0 -129.5 24.5t-86 70t-46.5 103.5t-15 131zM205 57q0 -66 36.5 -104.5
t96.5 -38.5q57 0 92 37.5t35 97.5q0 62 -34.5 99.5t-92.5 37.5q-59 0 -96 -36t-37 -93z" />
    <glyph glyph-name="six.sup" horiz-adv-x="657" 
d="M61 1202v19q0 176 82 273t217 97q96 0 155 -47t71 -139h-127q-10 41 -34 61.5t-71 20.5q-71 0 -111.5 -61t-43.5 -177q56 90 172 90q101 0 166 -62.5t65 -164.5q0 -108 -71 -174t-193 -66q-75 0 -129.5 24.5t-86 70.5t-46.5 104t-15 131zM205 1116q0 -66 36.5 -104.5
t96.5 -38.5q57 0 92 37.5t35 97.5q0 62 -34.5 99.5t-92.5 37.5q-59 0 -96 -36t-37 -93z" />
    <glyph glyph-name="six.tab" 
d="M104 647v35q0 384 157 592.5t417 208.5q174 0 286.5 -90.5t141.5 -264.5h-170q-26 106 -88.5 157.5t-181.5 51.5q-171 0 -275 -151t-110 -434q54 91 152.5 144.5t223.5 53.5q214 0 347 -137t133 -342q0 -221 -137.5 -355t-368.5 -134q-117 0 -208 34.5t-150.5 93.5
t-98 144.5t-54.5 182t-16 210.5zM293 487q0 -175 93 -270.5t245 -95.5q145 0 234 93.5t89 248.5q0 159 -88 253.5t-237 94.5q-148 0 -242 -91t-94 -233z" />
    <glyph glyph-name="slash.uc" horiz-adv-x="825" 
d="M49 -172l559 1765h156l-559 -1765h-156z" />
    <glyph glyph-name="space.tab" horiz-adv-x="614" 
 />
    <glyph glyph-name="space_uni0326" horiz-adv-x="819" 
d="M262 -397l119 321l164 -49l-178 -326z" />
    <glyph glyph-name="space_uni0326.alt" horiz-adv-x="819" 
d="M307 1282l178 326l105 -54l-119 -321z" />
    <glyph glyph-name="sterling.old" horiz-adv-x="1183" 
d="M76 0q4 48 25 96t68 90.5t110 55.5q24 60 24 123q0 93 -47 262h-160v123h127q-35 147 -35 278q0 181 125.5 295.5t313.5 114.5t299 -101t125 -274h-166q-23 119 -81.5 176t-176.5 57q-116 0 -189 -74t-73 -196q0 -127 32 -276h424v-123h-397q31 -155 31 -262
q0 -66 -27 -132q55 -13 175.5 -59.5t166.5 -46.5q84 0 130 39t52 131h144q-8 -140 -88.5 -227.5t-216.5 -87.5q-59 0 -126.5 19.5t-117 42.5t-105 42.5t-92.5 19.5q-61 0 -92.5 -31t-36.5 -75h-145z" />
    <glyph glyph-name="sterling.oldtab" 
d="M98 0q4 48 25 96t68 90.5t110 55.5q25 62 25 123q0 93 -47 262h-160v123h127q-35 147 -35 278q0 181 125 295.5t313 114.5t299 -101t125 -274h-166q-23 119 -81.5 176t-176.5 57q-116 0 -189 -74t-73 -196t33 -276h424v-123h-398q31 -155 31 -262q0 -69 -26 -132
q55 -13 175.5 -59.5t166.5 -46.5q84 0 130 39t52 131h143q-8 -140 -88.5 -227.5t-216.5 -87.5q-74 0 -160 31t-160.5 62t-119.5 31q-61 0 -92.5 -31t-36.5 -75h-146z" />
    <glyph glyph-name="sterling.tab" 
d="M82 0q3 36 16.5 73.5t38 74t65.5 63.5t93 37q24 52 24 127q0 99 -49 270h-168v127h134q-37 159 -37 289q0 185 128.5 303.5t321.5 118.5q194 0 309 -104.5t129 -282.5h-172q-23 123 -83 182t-183 59q-119 0 -194.5 -76.5t-75.5 -201.5q0 -120 35 -287h436v-127h-406
q31 -159 31 -272q0 -68 -26 -131q51 -13 176 -62t174 -49q86 0 133 40.5t53 135.5h150q-9 -146 -92 -235.5t-224 -89.5q-61 0 -130.5 20t-120.5 44.5t-108 44.5t-95 20q-62 0 -95.5 -32.5t-38.5 -78.5h-149z" />
    <glyph glyph-name="t.alt" horiz-adv-x="692" 
d="M55 928v143h168v244h170v-244h236v-143h-236v-928h-170v928h-168z" />
    <glyph glyph-name="tbar.alt" horiz-adv-x="692" 
d="M55 571v123h168v234h-168v143h168v244h170v-244h236v-143h-236v-234h236v-123h-236v-571h-170v571h-168z" />
    <glyph glyph-name="tcaron.alt" horiz-adv-x="692" 
d="M55 928v143h168v244h170v-244h236v-143h-236v-928h-170v928h-168zM522 1225l25 358h192l-98 -358h-119z" />
    <glyph glyph-name="tcommaaccent.alt" horiz-adv-x="692" 
d="M55 928v143h168v244h170v-244h236v-143h-236v-928h-170v928h-168zM133 -397l119 321l164 -49l-178 -326z" />
    <glyph glyph-name="three.den" horiz-adv-x="638" 
d="M43 217h125q14 -125 139 -125q64 0 96.5 29.5t32.5 81.5q0 110 -123 110h-53v97h51q115 0 115 100q0 43 -27.5 69.5t-79.5 26.5q-54 0 -87 -29.5t-39 -82.5h-125q6 96 74 155.5t180 59.5q109 0 172 -53.5t63 -135.5q0 -109 -117 -151q63 -14 100.5 -57.5t37.5 -110.5
q0 -98 -72 -154.5t-195 -56.5q-125 0 -195 61t-73 166z" />
    <glyph glyph-name="three.num" horiz-adv-x="636" 
d="M43 981h125q14 -125 139 -125q64 0 96.5 29.5t32.5 81.5q0 110 -123 110h-53v97h51q115 0 115 100q0 43 -27.5 69.5t-79.5 26.5q-54 0 -87 -30t-39 -83h-125q6 96 74 156t180 60q109 0 172 -53.5t63 -135.5q0 -109 -117 -151q63 -14 100.5 -57.5t37.5 -110.5
q0 -98 -72 -154.5t-195 -56.5q-125 0 -195 61t-73 166z" />
    <glyph glyph-name="three.old" horiz-adv-x="1214" 
d="M86 236h162q13 -144 97 -228t249 -84q167 0 248.5 77.5t81.5 215.5q0 143 -78.5 212t-235.5 69h-102v145h94q272 0 272 256q0 112 -65.5 179t-194.5 67q-135 0 -219 -76t-98 -205h-154q8 179 137.5 300.5t333.5 121.5q102 0 184.5 -31t135.5 -84.5t81.5 -122t28.5 -145.5
q0 -231 -223 -323q281 -74 281 -363q0 -198 -141.5 -315t-370.5 -117q-227 0 -361.5 126.5t-142.5 324.5z" />
    <glyph glyph-name="three.oldtab" 
d="M94 236h162q13 -144 97 -228t249 -84q167 0 248.5 77.5t81.5 215.5q0 143 -78.5 212t-235.5 69h-102v145h94q273 0 273 256q0 112 -65.5 179t-194.5 67q-135 0 -219.5 -76t-98.5 -205h-153q8 179 137.5 300.5t333.5 121.5q102 0 184.5 -31t135.5 -84.5t81.5 -122
t28.5 -145.5q0 -230 -224 -323q281 -74 281 -363q0 -198 -141.5 -315t-370.5 -117q-227 0 -361.5 126.5t-142.5 324.5z" />
    <glyph glyph-name="three.sub" horiz-adv-x="638" 
d="M43 41h125q14 -125 139 -125q64 0 96.5 29.5t32.5 81.5q0 110 -123 110h-53v96h51q115 0 115 101q0 43 -27.5 69.5t-79.5 26.5q-54 0 -87 -30t-39 -83h-125q6 96 74 155.5t180 59.5q109 0 172 -53t63 -135q0 -109 -117 -151q63 -14 100.5 -57.5t37.5 -110.5
q0 -98 -72 -154.5t-195 -56.5q-125 0 -195 61t-73 166z" />
    <glyph glyph-name="three.sup" horiz-adv-x="638" 
d="M43 1100h125q14 -125 139 -125q65 0 97 29t32 81q0 111 -123 111h-53v96h51q115 0 115 101q0 43 -27.5 69.5t-79.5 26.5q-54 0 -87 -30t-39 -83h-125q6 96 74 155.5t180 59.5q109 0 172 -53t63 -135q0 -110 -117 -152q63 -14 100.5 -57.5t37.5 -110.5q0 -98 -72 -154.5
t-195 -56.5q-125 0 -195 61.5t-73 166.5z" />
    <glyph glyph-name="three.tab" 
d="M90 432h164q13 -141 94.5 -224t245.5 -83q167 0 248.5 74.5t81.5 208.5q0 284 -310 284h-110v150h102q141 0 211 64t70 186q0 109 -67 177t-195 68q-135 0 -220.5 -75t-99.5 -201h-155q8 178 139.5 300t335.5 122q101 0 185 -32t138 -85.5t83.5 -123t29.5 -146.5
q0 -224 -238 -320q133 -35 208 -127.5t75 -240.5q0 -197 -142.5 -311.5t-373.5 -114.5q-223 0 -357.5 126.5t-142.5 323.5z" />
    <glyph glyph-name="tilde.uc" horiz-adv-x="819" 
d="M94 1581q12 108 69.5 173t137.5 65q37 0 79 -22t79 -44t61 -22q29 0 51.5 26t30.5 66h123q-12 -108 -69 -173t-136 -65q-37 0 -80 22t-80 44t-61 22q-29 0 -51.5 -26t-30.5 -66h-123z" />
    <glyph glyph-name="two.den" horiz-adv-x="587" 
d="M16 0v23l263 278q110 113 110 199q0 48 -26.5 75t-75.5 27q-106 0 -123 -135h-125q6 115 72.5 178.5t179.5 63.5q109 0 171 -56t62 -151q0 -118 -135 -250l-149 -148h290v-104h-514z" />
    <glyph glyph-name="two.num" horiz-adv-x="585" 
d="M16 764v22l263 279q110 113 110 199q0 48 -26.5 75t-75.5 27q-106 0 -123 -135h-125q6 115 72.5 178.5t179.5 63.5q109 0 171 -56t62 -151q0 -118 -135 -250l-149 -148h290v-104h-514z" />
    <glyph glyph-name="two.old" horiz-adv-x="1107" 
d="M47 0v41l514 479q62 58 98.5 95.5t74 87.5t54.5 99.5t17 104.5q0 110 -69 175t-189 65q-258 0 -299 -313h-158q18 204 139 328t318 124q196 0 316 -105t120 -274q0 -31 -6.5 -61.5t-13.5 -55t-26.5 -56.5t-31.5 -52t-42.5 -54t-45 -50.5t-55 -55t-55.5 -53t-62 -57.5
l-289 -269h639v-143h-948z" />
    <glyph glyph-name="two.oldtab" 
d="M109 0v41l514 479q62 58 98.5 95.5t73.5 87.5t54 99.5t17 104.5q0 110 -69 175t-189 65q-258 0 -299 -313h-157q18 204 138.5 328t317.5 124q196 0 316 -105t120 -274q0 -39 -10 -78t-22.5 -70t-42.5 -71.5t-49.5 -65t-65 -70t-68.5 -67t-79 -73.5l-289 -269h639v-143
h-948z" />
    <glyph glyph-name="two.sub" horiz-adv-x="587" 
d="M16 -154l263 279q110 113 110 199q0 48 -26.5 75t-75.5 27q-106 0 -123 -135h-125q6 115 72.5 178t179.5 63q109 0 171 -55.5t62 -150.5q0 -118 -135 -250l-149 -148h290v-104h-514v22z" />
    <glyph glyph-name="two.sup" horiz-adv-x="587" 
d="M16 883v22l263 279q110 113 110 198q0 48 -26.5 75.5t-75.5 27.5q-106 0 -123 -135h-125q6 115 72.5 178t179.5 63q109 0 171 -56t62 -151q0 -65 -34.5 -124.5t-100.5 -124.5l-149 -148h290v-104h-514z" />
    <glyph glyph-name="two.tab" 
d="M86 0v41l582 612q105 111 158 213.5t53 210.5q0 123 -69.5 192.5t-193.5 69.5q-268 0 -309 -325h-166q17 217 142.5 343t332.5 126q203 0 323 -111.5t120 -300.5q0 -244 -295 -532l-404 -394h707v-145h-981z" />
    <glyph glyph-name="uni20B4.old" horiz-adv-x="1196" 
d="M61 545v117h238q88 58 281 126q15 5 39 14.5t32 12.5h-590v117h781q45 58 45 174q0 192 -262 192q-140 0 -215.5 -54.5t-98.5 -176.5h-153q19 179 141 275t326 96q192 0 310 -85.5t118 -244.5q0 -106 -43 -176h125v-117h-240q-83 -55 -283 -131q-8 -3 -28.5 -10.5
t-30.5 -11.5h582v-117h-775q-61 -67 -61 -193q0 -116 79.5 -173.5t209.5 -57.5q313 0 350 291h166q-10 -90 -44 -165t-94.5 -136t-157 -95t-220.5 -34q-205 0 -333 95t-128 269q0 117 51 199h-117z" />
    <glyph glyph-name="uni20B4.oldtab" 
d="M78 545v117h237q88 58 281 126q15 5 39.5 14.5t32.5 12.5h-590v117h780q45 58 45 174q0 192 -262 192q-139 0 -214.5 -54.5t-98.5 -176.5h-154q19 179 141 275t326 96q192 0 310 -85.5t118 -244.5q0 -106 -43 -176h125v-117h-240q-84 -56 -282 -131q-9 -3 -29.5 -10.5
t-30.5 -11.5h582v-117h-774q-62 -68 -62 -193q0 -116 79.5 -173.5t209.5 -57.5q313 0 350 291h166q-10 -90 -44 -165t-94.5 -136t-157 -95t-220.5 -34q-205 0 -333 95t-128 269q0 115 52 199h-117z" />
    <glyph glyph-name="uni20B4.tab" 
d="M102 563v119h224q94 71 270 131q49 18 74 29h-568v119h732q36 55 36 180q0 100 -59 149t-168 49q-125 0 -191.5 -56t-91.5 -183h-159q20 185 134.5 284t307.5 99q178 0 288.5 -88t110.5 -252q0 -108 -38 -182h122v-119h-225q-89 -67 -272 -135q-17 -6 -60 -25h557v-119
h-727q-51 -71 -51 -198q0 -120 70.5 -180t185.5 -60q81 0 141.5 23.5t96 66.5t55 94t27.5 117h172q-10 -94 -42.5 -171.5t-90 -140t-149.5 -97.5t-210 -35q-194 0 -314 97.5t-120 276.5q0 125 49 207h-117z" />
    <glyph glyph-name="uni20B8.old" horiz-adv-x="1118" 
d="M59 1022v139h1000v-139h-414v-1022h-172v1022h-414zM59 1305v116h1000v-116h-1000z" />
    <glyph glyph-name="uni20B8.oldtab" 
d="M115 1022v139h999v-139h-414v-1022h-172v1022h-413zM115 1305v116h999v-116h-999z" />
    <glyph glyph-name="uni20B8.tab" 
d="M121 1053v145h989v-145h-405v-1053h-179v1053h-405zM121 1337v127h989v-127h-989z" />
    <glyph glyph-name="uni20BD.old" horiz-adv-x="1230" 
d="M61 328v114h205v156h-205v115h205v751h416q109 0 199.5 -24.5t161.5 -74.5t111 -134t40 -195v-8q0 -113 -40 -198t-112 -135t-162 -74.5t-198 -24.5h-238v-154h471v-114h-471v-328h-178v328h-205zM444 737h250q157 0 239.5 75t82.5 216v8q0 150 -83 217.5t-239 67.5h-250
v-584z" />
    <glyph glyph-name="uni20BD.oldtab" 
d="M61 303v115h205v155h-205v115h205v733h375q109 0 199 -23t161.5 -70.5t111.5 -130t40 -193.5v-9q0 -91 -26.5 -163.5t-73 -120.5t-112 -80t-140 -46t-160.5 -14h-197v-153h430v-115h-430v-303h-178v303h-205zM444 713h209q158 0 240 71t82 211v9q0 148 -82 211t-240 63
h-209v-565z" />
    <glyph glyph-name="uni20BD.tab" 
d="M61 338v119h205v159h-205v119h205v729h375q109 0 199.5 -24.5t161.5 -74.5t111 -134t40 -195v-8q0 -113 -40 -198t-112 -135t-162 -74.5t-198 -24.5h-197v-139h457v-119h-457v-338h-178v338h-205zM444 737h209q157 0 239.5 75t82.5 216v8q0 150 -83 217.5t-239 67.5h-209
v-584z" />
    <glyph glyph-name="yen.old" horiz-adv-x="1144" 
d="M55 1421h187l348 -645l332 645h168l-398 -747h312v-115h-334v-156h334v-114h-334v-289h-170v289h-334v114h334v156h-334v115h309z" />
    <glyph glyph-name="yen.oldtab" 
d="M117 1421h188l328 -645l313 645h166l-377 -747h312v-115h-334v-156h334v-114h-334v-289h-170v289h-334v114h334v156h-334v115h309z" />
    <glyph glyph-name="yen.tab" 
d="M102 1464h193l338 -663l321 663h172l-389 -770h322v-119h-344v-159h344v-119h-344v-297h-174v297h-344v119h344v159h-344v119h319z" />
    <glyph glyph-name="zero.den" horiz-adv-x="716" 
d="M61 334v28q0 158 81 252.5t216 94.5t216 -93t81 -249v-29q0 -157 -79.5 -252.5t-217.5 -95.5q-137 0 -217 94t-80 250zM201 336q0 -116 41 -176t118 -60q158 0 158 238v29q0 111 -41.5 173t-118.5 62q-157 0 -157 -237v-29z" />
    <glyph glyph-name="zero.num" horiz-adv-x="716" 
d="M61 1098v28q0 158 81 252.5t216 94.5t216 -93t81 -250v-28q0 -157 -79.5 -252.5t-217.5 -95.5q-137 0 -217 94t-80 250zM201 1100q0 -116 41 -176t118 -60q158 0 158 238v28q0 111 -41.5 173.5t-118.5 62.5q-78 0 -117.5 -61t-39.5 -177v-28z" />
    <glyph glyph-name="zero.old" horiz-adv-x="1316" 
d="M113 596v76q0 282 149 448t397 166q249 0 397 -166.5t148 -443.5v-76q0 -282 -147 -450t-395 -168q-246 0 -397.5 169t-151.5 445zM291 598q0 -227 98.5 -349t272.5 -122q177 0 270.5 121.5t93.5 351.5v74q0 222 -97 346.5t-270 124.5q-174 0 -271 -122.5t-97 -348.5v-76
z" />
    <glyph glyph-name="zero.oldtab" 
d="M111 528v211q0 242 138 394.5t367 152.5t365.5 -152.5t136.5 -390.5v-211q0 -245 -135 -397.5t-365 -152.5q-228 0 -367.5 153.5t-139.5 392.5zM289 530q0 -189 86 -296t243 -107q159 0 240.5 106.5t81.5 298.5v209q0 185 -84 294.5t-240 109.5q-157 0 -242 -108
t-85 -296v-211z" />
    <glyph glyph-name="zero.sub" horiz-adv-x="716" 
d="M61 158v28q0 158 81 252t216 94t216 -93t81 -249v-28q0 -157 -79.5 -252.5t-217.5 -95.5q-137 0 -217 94t-80 250zM201 160q0 -116 41 -176t118 -60q158 0 158 238v28q0 111 -41.5 173.5t-118.5 62.5q-78 0 -117.5 -61t-39.5 -177v-28z" />
    <glyph glyph-name="zero.sup" horiz-adv-x="716" 
d="M61 1217v28q0 158 81 252t216 94t216 -93t81 -249v-28q0 -157 -79.5 -253t-217.5 -96q-137 0 -217 94.5t-80 250.5zM201 1219q0 -116 41 -176t118 -60q158 0 158 238v28q0 111 -41.5 173.5t-118.5 62.5q-78 0 -117.5 -61t-39.5 -177v-28z" />
    <glyph glyph-name="zero.tab" 
d="M104 598v256q0 306 137 467.5t377 161.5t373 -158.5t133 -456.5v-266q0 -304 -131 -462t-370 -158q-237 0 -378 158.5t-141 457.5zM287 600q0 -249 84.5 -360t251.5 -111q172 0 246.5 109.5t74.5 365.5v266q0 469 -326 469q-167 0 -249 -118t-82 -365v-256z" />
  </font>
</defs>
</svg>
