<svg width="26" height="15" viewBox="0 0 26 15" fill="none" xmlns="http://www.w3.org/2000/svg">
<g clip-path="url(#clip0)">
<path d="M23.4445 0H1.89505C0.839238 0 0 0.827402 0 1.86833V13.1317C0 14.1726 0.839238 15 1.89505 15H23.4174C24.4733 15 25.3125 14.1726 25.3125 13.1317V1.86833C25.3396 0.827402 24.4733 0 23.4445 0ZM4.49398 6.08541C3.73596 6.08541 3.14037 5.49822 3.14037 4.75089C3.14037 4.00356 3.73596 3.41637 4.49398 3.41637C5.25201 3.41637 5.84759 4.00356 5.84759 4.75089C5.84759 5.49822 5.25201 6.08541 4.49398 6.08541ZM16.0267 10.8096C14.1858 12.6512 11.1808 12.6512 9.31284 10.8096C7.44485 8.99466 7.44485 6.03203 9.31284 4.19039C11.1537 2.34875 14.1858 2.34875 16.0267 4.19039C17.8947 6.00534 17.8947 8.96797 16.0267 10.8096ZM20.8456 11.5836C20.0876 11.5836 19.492 10.9964 19.492 10.2491C19.492 9.50178 20.0876 8.91459 20.8456 8.91459C21.6036 8.91459 22.1992 9.50178 22.1992 10.2491C22.1992 10.9964 21.6036 11.5836 20.8456 11.5836Z" fill="#FF5D39"/>
<path d="M13.6443 6.43238L13.8338 6.6459L14.3482 6.03202L14.2399 5.89857C13.9421 5.5516 13.5631 5.31138 13.1028 5.23131V4.61743H12.399V5.23131C11.668 5.33807 11.1807 5.87188 11.1807 6.56583C11.1807 7.44661 11.8304 7.71352 12.399 7.90035V9.34163C12.02 9.23487 11.7763 8.99466 11.6409 8.83451L11.4785 8.62099L10.9912 9.23487L11.0995 9.36832C11.3973 9.76868 11.8575 10.0356 12.399 10.1157V10.7295H13.1028V10.1157C14.0233 9.9822 14.3482 9.28825 14.3482 8.72775C14.3482 7.7669 13.6172 7.44661 13.0758 7.28647V6.03202C13.2923 6.11209 13.4819 6.24555 13.6443 6.43238ZM12.3719 7.04626C12.047 6.91281 11.9387 6.77935 11.9387 6.56583C11.9387 6.29893 12.1282 6.11209 12.3719 6.00533V7.04626ZM13.1028 8.14056C13.4548 8.30071 13.5631 8.46085 13.5901 8.72775C13.5901 8.88789 13.536 9.20818 13.1028 9.34163V8.14056Z" fill="#FF5D39"/>
</g>
<defs>
<clipPath id="clip0">
<rect width="25.3125" height="15" fill="white"/>
</clipPath>
</defs>
</svg>
