<svg width="22" height="20" viewBox="0 0 22 20" fill="none" xmlns="http://www.w3.org/2000/svg">
<path d="M7.27273 0.0346602C3.37662 0.0346602 0.207792 1.53763 0 3.42272C0.103896 4.46716 1.24675 5.20591 2 5.58802C3.32467 6.25035 5.1948 6.65794 7.27273 6.65794C7.87013 6.65794 8.44156 6.60699 8.98701 6.55604C10.3377 5.28233 12.1558 4.46716 14.1299 4.36527C14.3377 4.05958 14.4935 3.72841 14.5455 3.42272C14.1558 0.646037 9.24675 0.00918604 7.27273 0.0346602ZM14.5455 5.12949C10.5195 5.12949 7.27273 8.31376 7.27273 12.2623C7.27273 16.2108 10.5195 19.395 14.5455 19.395C18.5714 19.395 21.8182 16.2108 21.8182 12.2623C21.8182 8.31376 18.5714 5.12949 14.5455 5.12949ZM0 5.43517V6.47962C0.0779221 7.21837 0.753246 8.00806 2 8.61944C3.24675 9.23082 4.98701 9.63841 6.93506 9.68936C7.1948 8.95061 7.55844 8.2628 8.02597 7.65142C7.79221 7.65142 7.53247 7.67691 7.2987 7.67691C5.06493 7.67691 3.06493 7.24384 1.55844 6.47962C0.935065 6.1994 0.415584 5.84276 0 5.43517ZM0 8.49207V9.53652C0.0779221 10.2753 0.753246 11.065 2 11.6763C3.14286 12.2368 4.72727 12.6444 6.51948 12.7463C6.51948 12.5934 6.49351 12.4151 6.49351 12.2623C6.49351 11.7273 6.54545 11.2178 6.64935 10.7083C4.67532 10.6319 2.88312 10.1988 1.53247 9.53652C0.935065 9.23083 0.415584 8.89966 0 8.49207ZM0 11.549C0 11.9056 0 12.2623 0 12.5934C0.0779221 13.3322 0.753246 14.1219 2 14.7332C3.81818 15.5994 5.71428 15.8032 7.37662 15.8032C7.03896 15.1663 6.80519 14.4785 6.64935 13.7398C4.67532 13.6633 2.88312 13.2303 1.53247 12.5679C0.935065 12.2877 0.415584 11.9566 0 11.549ZM0 14.6059V15.8032C0 17.7647 3.24675 19.3696 7.27273 19.3696C8.41558 19.3696 9.48052 19.2422 10.4156 19.0129C9.45454 18.4525 8.62337 17.6882 7.97402 16.7967C7.74026 16.7967 7.50649 16.8221 7.27273 16.8221C5.03896 16.8221 3.03896 16.3636 1.53247 15.6248C0.935065 15.3446 0.415584 15.0135 0 14.6059Z" fill="#FF5D39"/>
</svg>
