<svg width="21" height="12" viewBox="0 0 21 12" fill="none" xmlns="http://www.w3.org/2000/svg">
<path fill-rule="evenodd" clip-rule="evenodd" d="M16.4811 1.86597C18.0846 2.85063 19.4468 4.10072 20.5762 5.60768C20.5574 5.63696 20.5395 5.66625 20.5219 5.69502C20.4828 5.75878 20.4453 5.82001 20.4037 5.87311C19.0416 7.714 17.4208 9.29802 15.4379 10.471C13.1878 11.8068 10.7652 12.3462 8.17027 11.7725C4.58385 10.9848 2.04059 8.75859 0.0404758 5.81317C-0.0284939 5.71899 -0.00263023 5.48781 0.0749588 5.38506C1.90265 3.01331 4.19589 1.26661 7.11848 0.444629C10.4376 -0.488658 13.5671 0.0764518 16.4811 1.86597ZM10.248 1.72041C7.87715 1.72041 5.93738 3.62979 5.92875 5.98442C5.92013 8.33904 7.84266 10.2741 10.2135 10.2741C12.6016 10.2912 14.55 8.36473 14.55 5.99298C14.55 3.64692 12.6188 1.72041 10.248 1.72041ZM10.6358 3.50112C10.4461 5.10226 11.5152 5.77868 12.7652 5.57319C12.9721 6.66916 12.429 7.76513 11.4289 8.27886C10.4203 8.80972 9.16157 8.60423 8.37704 7.79081C7.59251 6.96884 7.42008 5.77012 7.96322 4.78546C8.49773 3.81792 9.60987 3.2785 10.6358 3.50112Z" fill="#8890A1" fill-opacity="0.5"/>
</svg>
